<svg xmlns="http://www.w3.org/2000/svg" width="188.684" height="100" viewBox="0 0 188.684 100"><defs><style>.c{fill:#1e1d1e}.d{fill:#5ea9ff}.e{fill:#fff}</style></defs><path d="M153.33 49.929c.007.007.017.009.024.016-.024-.022-.042-.051-.064-.075.012.018.019.041.04.059zm2.989.278zm11.457-.032v-1.849zm-.162.032zm-14.284-1.635c-.018.018-.024.041-.04.06a.843.843 0 01.113-.108.625.625 0 00-.073.048zm-.283.673a.428.428 0 00.012.062.981.981 0 010-.141c.002.027-.012.056-.012.079zm14.567-.953zm-11.06-34.706c-.018 0-.034.009-.053.01.019 0 .035-.01.054-.01zm2.372 1.913h-2.366a.96.96 0 01-.677-.279.96.96 0 00.674.278h2.371c.3-.279.62-.538.941-.8-.321.264-.64.523-.943.801zm9.644-.956a.958.958 0 01-.957.957.958.958 0 100-1.915.957.957 0 01.957.958zm-12.97 0c0-.032.016-.062.019-.094-.003.029-.019.058-.019.094z" fill="#1e1d1d"/><path d="M147.257 15.501zm-49.356 0h38.385q.366-.969.782-1.915h10.188a.958.958 0 01.883 1.328.957.957 0 00-.881-1.332H97.907a.96.96 0 100 1.919z" fill="#2b2e34"/><path class="c" d="M140.943 50.207h2.9a.958.958 0 00.957-.957.958.958 0 00-.957-.957H41.923v1.919z"/><path class="c" d="M188.682 47.701V4.339A4.339 4.339 0 00185.25.098c-.011 0-.02-.007-.03-.01a4.527 4.527 0 00-.532-.054c-.114-.01-.225-.035-.342-.035H17.586a4.34 4.34 0 00-4.345 4.337v21.9h2.878v-21.9a1.466 1.466 0 011.465-1.465h166.758a1.466 1.466 0 011.465 1.465v49.248a1.465 1.465 0 01-1.465 1.465h-13.691V40.245H41.925v2.872h125.856v11.934H41.925v2.878h142.416a4.346 4.346 0 004.343-4.345z"/><path class="c" d="M147.256 13.586h-10.188q-.416.947-.782 1.915h10.971a.958.958 0 000-1.915zm20.52 34.721a.782.782 0 00-.158-.014h-13.612a.827.827 0 00-.17.015.77.77 0 00-.093.036.877.877 0 00-.343.179.875.875 0 00-.235.29.874.874 0 00-.058.127.971.971 0 00-.046.226.981.981 0 000 .141.772.772 0 000 .106.845.845 0 00.049.137.9.9 0 00.037.1.939.939 0 00.145.218c.022.024.04.053.064.075a.919.919 0 00.242.161c.02.009.035.024.056.032a.967.967 0 00.357.071h2.317a24.898 24.898 0 01.003 0h11.3a.96.96 0 00.158-.013v-1.887zm-12.1-33.399a.759.759 0 00.045.067.97.97 0 00.163.244.96.96 0 00.677.279h2.366c.3-.278.622-.537.944-.794-.32.257-.639.516-.941.8h8.684a.958.958 0 000-1.915H156.56c-.019 0-.035.009-.054.01a.911.911 0 00-.887.85c0 .032-.019.062-.019.094a.954.954 0 00.076.365z"/><path class="d" d="M125.813 63.641h-.02a1.364 1.364 0 00-1.368 1.36v21.422a1.361 1.361 0 102.722 0v-21.39a1.364 1.364 0 00-1.334-1.392zM42.574 87.327a69.835 69.835 0 008.68-11.391 52.926 52.926 0 004.973-10.782 1.362 1.362 0 10-2.588-.847 50.111 50.111 0 01-4.713 10.223 67.079 67.079 0 01-7 9.448v3.734a1.364 1.364 0 00.648-.385zm58.004-23.726a1.363 1.363 0 00-1.3 1.416v21.388a1.36 1.36 0 102.721 0V65.017a.687.687 0 000-.107 1.363 1.363 0 00-1.421-1.309zm-25.076.04h-.026a1.363 1.363 0 00-1.367 1.36v21.422a1.364 1.364 0 002.728 0v-21.39a1.363 1.363 0 00-1.335-1.392zm77.075 10.885a50.131 50.131 0 01-4.715-10.222l-.02-.065a1.365 1.365 0 00-2.575.909 53 53 0 004.974 10.782 69.684 69.684 0 008.68 11.391 1.358 1.358 0 002-1.839 67.086 67.086 0 01-8.344-10.956zM42.15 32.743h1.954a8.1 8.1 0 00-8.094-8.093v1.951a6.147 6.147 0 016.14 6.142z"/><path class="d" d="M48.218 32.745h1.954A14.178 14.178 0 0036.01 18.584v1.954a12.221 12.221 0 0112.208 12.207z"/><path class="d" d="M54.603 32.743h1.954A20.573 20.573 0 0036.01 12.196v1.954a18.617 18.617 0 0118.593 18.593z"/><path class="e" d="M13.127 56.813a1.468 1.468 0 101.469 1.468 1.468 1.468 0 00-1.469-1.468zm12.922 1.36a3.477 3.477 0 00-1.135-.79 3.911 3.911 0 00-1.482-.282h-2.091v7.313h2.091a3.6 3.6 0 001.482-.3 3.219 3.219 0 001.135-.78 3.81 3.81 0 00.989-2.584 3.731 3.731 0 00-.264-1.43 3.559 3.559 0 00-.725-1.147z"/><path class="e" d="M36.065 35.397a3.339 3.339 0 00-3.336-3.335H6.268a3.339 3.339 0 00-3.336 3.335v58.336a3.34 3.34 0 003.336 3.336h26.461a3.34 3.34 0 003.336-3.336zM13.131 61.859a3.575 3.575 0 113.576-3.575 3.576 3.576 0 01-3.576 3.576zm15.85 1.189a5.878 5.878 0 01-1.286 1.861 5.793 5.793 0 01-1.907 1.237 5.954 5.954 0 01-2.354.46h-4.479V54.912h4.479a6.246 6.246 0 012.354.444 6.1 6.1 0 011.907 1.253 5.854 5.854 0 011.286 1.861 5.924 5.924 0 01.004 4.578z"/><path class="c" d="M38.995 35.395a6.273 6.273 0 00-6.267-6.266H6.267A6.273 6.273 0 000 35.395v58.336a6.274 6.274 0 006.267 6.267h26.461a6.274 6.274 0 006.267-6.267zm-6.267 61.672H6.267a3.34 3.34 0 01-3.336-3.336V35.395a3.339 3.339 0 013.336-3.335h26.461a3.339 3.339 0 013.336 3.335v58.336a3.34 3.34 0 01-3.336 3.338z"/><path class="c" d="M27.695 56.61a6.1 6.1 0 00-1.907-1.253 6.246 6.246 0 00-2.354-.444h-4.479v11.695h4.479a5.954 5.954 0 002.354-.46 5.793 5.793 0 001.907-1.237 5.776 5.776 0 000-8.3zm-1.644 6.729a3.219 3.219 0 01-1.136.775 3.6 3.6 0 01-1.482.3h-2.091V57.1h2.091a3.911 3.911 0 011.482.282 3.477 3.477 0 011.135.79 3.559 3.559 0 01.725 1.152 3.731 3.731 0 01.264 1.43 3.81 3.81 0 01-.988 2.585zm-12.923-8.63a3.575 3.575 0 103.576 3.575 3.576 3.576 0 00-3.576-3.575zm1.466 3.573a1.468 1.468 0 11-1.469-1.468 1.467 1.467 0 011.469 1.468z"/></svg>