<svg xmlns="http://www.w3.org/2000/svg" width="24" height="24" viewBox="0 0 24 24"><defs><style>.a{fill:#ffffff;}.b{fill:none;}</style></defs><g transform="translate(-326.602 -334.082)"><path class="a" d="M336.98,350.707l.92.92,5.546-5.546-5.546-5.546-.92.92,3.977,3.976H329.139v1.3h11.819Z"/><path class="a" d="M346.4,336.293H331.458a2.321,2.321,0,0,0-2.318,2.318v4.513h1.3v-4.513a1.018,1.018,0,0,1,1.018-1.017H346.4a1.018,1.018,0,0,1,1.018,1.017v14.941a1.018,1.018,0,0,1-1.018,1.016H331.458a1.018,1.018,0,0,1-1.018-1.016v-4.513h-1.3v4.513a2.321,2.321,0,0,0,2.318,2.317H346.4a2.321,2.321,0,0,0,2.319-2.317V338.611A2.321,2.321,0,0,0,346.4,336.293Z"/></g><rect class="b" width="24" height="24"/></svg>
