<svg xmlns="http://www.w3.org/2000/svg" width="24" height="24" viewBox="0 0 24 24"><defs><style>.a{fill:#fff}</style></defs><path class="a" d="M10.378 16.625l.92.92 5.546-5.546-5.546-5.546-.92.92 3.977 3.976H2.537v1.3h11.819z"/><path class="a" d="M19.798 2.211H4.856a2.321 2.321 0 00-2.318 2.318v4.513h1.3V4.529a1.018 1.018 0 011.018-1.017h14.942a1.018 1.018 0 011.018 1.017V19.47a1.018 1.018 0 01-1.018 1.016H4.856a1.018 1.018 0 01-1.018-1.016v-4.513h-1.3v4.513a2.321 2.321 0 002.318 2.317h14.942a2.321 2.321 0 002.319-2.317V4.529a2.321 2.321 0 00-2.319-2.318z"/><path fill="none" d="M0 0h24v24H0z"/></svg>