<svg xmlns="http://www.w3.org/2000/svg" width="100" height="100" viewBox="0 0 100 100"><defs><linearGradient id="a" x1=".5" x2=".5" y2="1" gradientUnits="objectBoundingBox"><stop offset="0" stop-color="#7fb0f8"/><stop offset="1" stop-color="#d5d3ff"/></linearGradient></defs><rect width="100" height="100" rx="10" fill="url(#a)"/><path d="M13.494 46.197a2.192 2.192 0 003.069.336l2.023-1.625v33.955a3.974 3.974 0 003.961 3.964h56.32a3.975 3.975 0 003.964-3.964V44.976l1.961 1.577a2.212 2.212 0 001.365.477 2.154 2.154 0 001.7-.833 2.2 2.2 0 00-.336-3.073L53.056 15.41l-.792-.394a3.9 3.9 0 00-3.134.01l-.83.384-34.469 27.718a2.192 2.192 0 00-.336 3.069" fill="#fff"/><path d="M64.523 66.248a8.244 8.244 0 002.915-1.982 8.982 8.982 0 001.841-2.97 9.492 9.492 0 00.672-3.607 9.3 9.3 0 00-.672-3.645 8.847 8.847 0 00-1.841-2.932 8.689 8.689 0 00-2.915-2 10.041 10.041 0 00-3.782-.713h-5.329v18.662h5.329a10.131 10.131 0 003.782-.813m-3.782-23.476a16.029 16.029 0 016 1.128 15.659 15.659 0 014.876 3.193 14.719 14.719 0 013.268 4.753 14.125 14.125 0 011.169 5.843 14.45 14.45 0 01-1.169 5.843 15.954 15.954 0 01-3.268 4.756 14.236 14.236 0 01-4.876 3.131 14.926 14.926 0 01-6 1.169h-11.43V42.772zM34.47 55.113a3.743 3.743 0 113.745-3.745 3.741 3.741 0 01-3.745 3.745m0-12.856a9.113 9.113 0 109.111 9.111 9.116 9.116 0 00-9.111-9.111" fill="#231f20"/></svg>