<svg xmlns="http://www.w3.org/2000/svg" width="200" height="77.057" viewBox="0 0 200 77.057"><defs><style>.a{fill:#fff}.b{fill:#2b2e34}</style></defs><path class="a" d="M4.435 67.219a2.975 2.975 0 01-2.969-2.969V13.834a2.975 2.975 0 012.969-2.969h170.709a2.972 2.972 0 012.969 2.969v50.415a2.972 2.972 0 01-2.969 2.969z"/><path class="b" d="M175.146 9.394H4.446A4.442 4.442 0 000 13.836V64.25a4.442 4.442 0 004.442 4.444h170.7a4.442 4.442 0 004.442-4.442V13.836a4.442 4.442 0 00-4.438-4.442m0 2.94a1.5 1.5 0 011.5 1.5V64.25a1.5 1.5 0 01-1.5 1.5H4.446a1.5 1.5 0 01-1.5-1.5V13.836a1.5 1.5 0 011.5-1.5z"/><path class="b" d="M133.688 60.788H24.959a.977.977 0 01-.693-.285.977.977 0 01-.283-.7.978.978 0 01.976-.979h108.729a.98.98 0 010 1.96"/><path d="M158.02 60.788h-13.931a.978.978 0 01-.695-.285.978.978 0 01-.286-.7.979.979 0 01.288-.689.979.979 0 01.694-.286h13.93a.98.98 0 010 1.96m-.001-35.527h-11.317a.98.98 0 01-.69-.285.98.98 0 01-.291-.7.979.979 0 01.291-.689.979.979 0 01.69-.286h11.317a.98.98 0 110 1.96" fill="#1e1d1d"/><path class="b" d="M137.181 25.261H86.659a.98.98 0 01-.7-.286.98.98 0 01-.284-.699.979.979 0 01.289-.694.979.979 0 01.7-.285h50.518a.98.98 0 110 1.96"/><path d="M161.128 50.59H18.778v18.1h142.35zm-2.938 2.94v12.218H21.718V53.53z" fill="#1e1d1e"/><path class="a" d="M158.328.85a37.8 37.8 0 00-8.354 1.635.727.727 0 01-.457.912 36.931 36.931 0 00-7.381 3.43l-.376.1a.727.727 0 01-.616-.342 37.714 37.714 0 00-3.852 2.8h37.854a4.437 4.437 0 014.438 4.447v5.129a26.751 26.751 0 010 39.261v6.028a4.442 4.442 0 01-4.442 4.442h-36.4a.722.722 0 01-.1.174 37.623 37.623 0 007.332 4.321.727.727 0 01.666-.437.718.718 0 01.28.056 37.249 37.249 0 007.8 2.327.727.727 0 01.585.835 37.908 37.908 0 006.1.493c.8 0 1.6-.025 2.4-.076a.727.727 0 01.661-.777 37.026 37.026 0 008-1.55.739.739 0 01.218-.029.722.722 0 01.69.5 37.6 37.6 0 007.722-3.579.727.727 0 01.229-.994 37.557 37.557 0 006.349-5.1.808.808 0 01.573-.235.692.692 0 01.485.191 38.053 38.053 0 005.2-6.809.727.727 0 01-.264-.988 36.962 36.962 0 003.236-7.465.72.72 0 01.69-.51.769.769 0 01.211.029 38.02 38.02 0 001.413-8.392.727.727 0 01-.692-.75c.014-.446.023-.888.023-1.333a37.254 37.254 0 00-.624-6.8.727.727 0 01.577-.837 37.721 37.721 0 00-2.636-8.1l-.309.069a.727.727 0 01-.654-.412 36.793 36.793 0 00-4.307-6.9.727.727 0 01.114-1.014q-1.179-1.442-2.526-2.789a38.325 38.325 0 00-3.572-3.15.727.727 0 01-.578.287.715.715 0 01-.434-.145 36.906 36.906 0 00-7.016-4.113.727.727 0 01-.37-.952 37.854 37.854 0 00-8.157-2.423.727.727 0 01-.715.607l-.114-.009a37.5 37.5 0 00-5.827-.463q-1.156 0-2.3.072h-.076a.677.677 0 01-.488-.193.677.677 0 01-.2-.484"/><path class="a" d="M176.645 60.587a26.631 26.631 0 01-15.236 4.759h-.278v.4h14.02a1.5 1.5 0 001.5-1.5zm-37.44-7.059h-11.818c.052.114.1.231.153.345a.727.727 0 01-.354.956 37.28 37.28 0 002.2 4h4.3a.983.983 0 01.983.981.983.983 0 01-.983.981h-2.972q.467.642.963 1.268a.738.738 0 01.457-.157.716.716 0 01.558.262 38.58 38.58 0 002.448 2.7c.3.3.609.6.921.888h22.132v-.591a26.613 26.613 0 01-11.731-4.372h-2.372a.98.98 0 01-.979-.895.98.98 0 01.808-1.051 26.912 26.912 0 01-4.714-5.315m17.046-41.196h-21.53a.716.716 0 01-.193.618 37.539 37.539 0 00-4.945 6.465.72.72 0 01-.62.35l-.365-.1a37.42 37.42 0 00-1.847 3.633h10.43a.979.979 0 01.695.286.979.979 0 01.287.694.98.98 0 01-.288.694.98.98 0 01-.694.287h-11.23q-.41 1.1-.753 2.213a.727.727 0 01.49.894 37.343 37.343 0 00-1.364 8.025.727.727 0 01-.727.683h-.036a38.01 38.01 0 00.614 8.488.683.683 0 01.15-.015.727.727 0 01.7.582 36.943 36.943 0 001.211 4.459h11.249a26.772 26.772 0 0118.766-38.256m18.889 0h-8.582a26.639 26.639 0 0110.087 4.266v-2.766a1.5 1.5 0 00-1.5-1.5"/><path d="M179.585 58.223a26.959 26.959 0 01-2.94 2.365v3.66a1.5 1.5 0 01-1.5 1.5h-14.017v2.943h14.018a4.442 4.442 0 004.442-4.442zm-4.439-48.829h-37.857q-1.373 1.139-2.661 2.423c-.04.04-.081.081-.116.119a.72.72 0 01.208.4h21.536a27.054 27.054 0 0110.3 0h8.588a1.5 1.5 0 011.5 1.5V16.6a26.96 26.96 0 012.94 2.365v-5.129a4.442 4.442 0 00-4.441-4.442m-41.455 49.434h-4.3q.632.994 1.33 1.96h2.97a.98.98 0 100-1.96m10.23.016a.98.98 0 00.17 1.946h2.372a26.872 26.872 0 01-2.542-1.946m-6.737-35.543h-10.429q-.426.969-.8 1.96h11.229a.98.98 0 100-1.96m21.008 41.858v.591h-22.127a36.408 36.408 0 002.457 2.1.722.722 0 01.226.837h22.383v-3.338a27.086 27.086 0 01-2.939-.191M137.484 50.59h-11.241q.507 1.5 1.142 2.94h11.822a26.689 26.689 0 01-1.72-2.94" fill="#dfdedf"/><path d="M164.531 77.057a.727.727 0 01-.056-1.451 37.187 37.187 0 008-1.55.727.727 0 01.432 1.384 38.706 38.706 0 01-8.307 1.61zm-9.937-.485l-.132-.014a38.672 38.672 0 01-8.1-2.418.727.727 0 01.559-1.334 37.17 37.17 0 007.8 2.327.727.727 0 01-.13 1.437m27.115-5.277a.727.727 0 01-.388-1.337 37.472 37.472 0 006.349-5.1.774.774 0 011.066-.04.674.674 0 01.037.987l-.081.081a39.08 39.08 0 01-6.6 5.3zm-43.631-2.146a.711.711 0 01-.448-.154 39.538 39.538 0 01-3.5-3.107 40.67 40.67 0 01-2.546-2.8.727.727 0 01.1-1.022.731.731 0 011.022.1 38.58 38.58 0 002.448 2.7 38.314 38.314 0 003.377 2.992.727.727 0 01.23.8.727.727 0 01-.678.489m56.218-11.039l-.359-.094a.727.727 0 01-.271-.99 37.148 37.148 0 003.238-7.467.727.727 0 111.384.428 38.436 38.436 0 01-3.364 7.76.727.727 0 01-.629.363m-67.422-3.209a.727.727 0 01-.661-.428 38.54 38.54 0 01-2.607-8.049.722.722 0 01.1-.545.722.722 0 01.461-.31.713.713 0 01.547.1.713.713 0 01.308.464 37.081 37.081 0 002.511 7.745.727.727 0 01-.361.959zm72.377-14.219h-.027a.727.727 0 01-.7-.75q.023-.669.025-1.333a37.433 37.433 0 00-.62-6.789.727.727 0 01.212-.733.727.727 0 01.751-.139.727.727 0 01.461.608 38.738 38.738 0 01.646 7.053q0 .689-.025 1.382a.727.727 0 01-.727.7m-75.646-3.604h-.04a.727.727 0 01-.687-.767 38.92 38.92 0 011.42-8.335.721.721 0 01.344-.437.721.721 0 01.553-.063.722.722 0 01.435.345.722.722 0 01.062.552 37.482 37.482 0 00-1.364 8.025.727.727 0 01-.727.683m71.96-14.14a.727.727 0 01-.654-.412 36.92 36.92 0 00-4.309-6.9.727.727 0 01.119-1.019.727.727 0 011.019.121 38.351 38.351 0 014.48 7.178.727.727 0 01-.341.969zm-66.595-3.17l-.374-.1a.722.722 0 01-.33-.446.722.722 0 01.084-.548 38.9 38.9 0 015.138-6.714.727.727 0 011.026-.025.727.727 0 01.023 1.023 37.664 37.664 0 00-4.95 6.466.714.714 0 01-.618.35m55.072-10.823a.727.727 0 01-.434-.145 36.791 36.791 0 00-7.015-4.119.727.727 0 01-.365-.959.727.727 0 01.956-.367 38.237 38.237 0 017.292 4.287.727.727 0 01.145 1.014.727.727 0 01-.58.292m-42.275-2.016a.722.722 0 01-.618-.35.727.727 0 01.242-.994 38.415 38.415 0 017.672-3.57.731.731 0 01.918.457.727.727 0 01-.457.918 36.987 36.987 0 00-7.381 3.433zm25.586-5.02l-.116-.011a37.527 37.527 0 00-8.132-.383.68.68 0 01-.538-.164.68.68 0 01-.23-.513.727.727 0 01.678-.77 38.737 38.737 0 018.448.4.721.721 0 01.474.289.721.721 0 01.129.54.727.727 0 01-.712.614" fill="#5ea9ff"/><path d="M179.586 18.963v39.261a26.682 26.682 0 008.576-19.63 26.686 26.686 0 00-8.576-19.631" fill="#edf4fa"/><path d="M158.189 60.773a1.069 1.069 0 01-.17.015H146.46a26.613 26.613 0 0011.73 4.368zm-7.056-7.245h-11.93a26.912 26.912 0 004.715 5.315 1.069 1.069 0 01.17-.015h13.931a1.069 1.069 0 01.17.015v-2.407a18.03 18.03 0 01-7.055-2.907m25.51-5.115a18.109 18.109 0 01-15.237 8.307h-.28v8.627h.28a26.631 26.631 0 0015.237-4.759zM166.56 12.332h-10.3a26.772 26.772 0 00-18.775 38.255h10.337a18.127 18.127 0 011.307-25.326h-2.427a.98.98 0 01-.98-.98.979.979 0 01.98-.979h4.974a18.133 18.133 0 0124.968 5.472V16.598a26.639 26.639 0 00-10.084-4.266" fill="#f0f5fa"/><path d="M176.643 16.599v12.175a18.045 18.045 0 012.89 9.82 18.032 18.032 0 01-2.89 9.819v12.175a26.94 26.94 0 002.94-2.363V18.964a26.7 26.7 0 00-2.94-2.366m-15.236-4.764a26.728 26.728 0 00-5.147.5h10.298a26.725 26.725 0 00-5.149-.5m-3.393 46.994H144.09a.86.86 0 00-.174.015 26.849 26.849 0 002.545 1.945h11.555a1.068 1.068 0 00.17-.014v-1.931a.86.86 0 00-.17-.015m-6.337-35.527h-4.976a.98.98 0 00-.694.285.98.98 0 00-.288.693.981.981 0 00.288.694.981.981 0 00.695.287h2.422a18.194 18.194 0 012.553-1.959m6.511 33.134v8.722a26.532 26.532 0 002.939.191v-8.63a18.4 18.4 0 01-2.939-.282m-10.372-5.846h-10.337a26.9 26.9 0 001.72 2.94h11.929a18.352 18.352 0 01-3.312-2.94" fill="#d1d7de"/><path d="M158.188 53.529h-7.049a17.994 17.994 0 007.055 2.907zm3.218-33.062a18.045 18.045 0 00-9.731 2.831h6.342a.979.979 0 01.694.286.979.979 0 01.288.693.981.981 0 01-.287.695.981.981 0 01-.694.288h-8.887a18.127 18.127 0 00-1.313 25.328h13.311v6.13h.28a18.112 18.112 0 0015.236-8.3V28.774a18.109 18.109 0 00-15.237-8.307" fill="#dfedf7"/><path d="M176.644 28.775v19.64a18.038 18.038 0 002.89-9.819 18.04 18.04 0 00-2.89-9.821m-18.625-5.474h-6.345a18.044 18.044 0 00-2.544 1.96h8.889a.98.98 0 000-1.96m3.11 27.289h-13.311a18.179 18.179 0 003.311 2.94h7.061v2.908a17.873 17.873 0 002.939.282z" fill="#c9d3dd"/><path class="a" d="M155.262 46.921a4.866 4.866 0 01-4.862-4.862v-7.064a4.866 4.866 0 014.862-4.866h13.043a4.867 4.867 0 014.86 4.862v7.068a4.867 4.867 0 01-4.86 4.862z"/><path class="b" d="M168.307 29.336h-13.046a5.653 5.653 0 00-5.653 5.657v7.061a5.653 5.653 0 005.653 5.657h13.046a5.653 5.653 0 005.648-5.656v-7.062a5.653 5.653 0 00-5.648-5.657m0 1.588a4.073 4.073 0 014.067 4.069v7.061a4.073 4.073 0 01-4.067 4.069h-13.046a4.075 4.075 0 01-4.069-4.069v-7.061a4.075 4.075 0 014.069-4.069z"/><path class="b" d="M165.542 40.922a2.239 2.239 0 00.793-.535 2.665 2.665 0 00.506-.808 2.665 2.665 0 00.179-.979 2.774 2.774 0 00-.179-1 2.4 2.4 0 00-.506-.8 2.536 2.536 0 00-.793-.551 2.819 2.819 0 00-1.026-.195h-1.453v5.072h1.454a2.491 2.491 0 001.026-.2m-1.026-6.391a4.333 4.333 0 011.631.311 4.394 4.394 0 011.321.862 4.038 4.038 0 01.884 1.292 3.85 3.85 0 01.323 1.593 4.014 4.014 0 01-.323 1.594 4.193 4.193 0 01-.884 1.29 3.968 3.968 0 01-1.322.858 4.031 4.031 0 01-1.631.317h-3.11v-8.117zm-7.142 3.357a1.022 1.022 0 111.019-1.024 1.034 1.034 0 01-1.019 1.024m0-3.5a2.483 2.483 0 102.479 2.488 2.479 2.479 0 00-2.477-2.484z"/></svg>