<svg xmlns="http://www.w3.org/2000/svg" width="154.826" height="28" viewBox="0 0 154.826 28"><path d="M32.086.463a13.883 13.883 0 019.852 3.922 13.52 13.52 0 012.966 4.3 12.865 12.865 0 011.061 5.311 13.412 13.412 0 01-1.061 5.311 13.971 13.971 0 01-2.966 4.3 13.119 13.119 0 01-4.409 2.86 13.57 13.57 0 01-5.443 1.062H21.717V.463zm3.429 21.3a7.459 7.459 0 002.64-1.8 8.859 8.859 0 001.687-2.7 8.716 8.716 0 00.6-3.268 9 9 0 00-.6-3.323 7.962 7.962 0 00-1.69-2.665 8.314 8.314 0 00-2.64-1.825 9.263 9.263 0 00-3.429-.654h-4.841v16.917h4.844a8.293 8.293 0 003.43-.683zM83.904.463v27.046h-5.523V.463zm25.745 16.451a7.2 7.2 0 01-7.457 5.747c-5.769 0-7.593-4.467-7.593-8.661s1.851-8.661 7.593-8.661a7.171 7.171 0 017.457 5.747h5.661C114.194 4.44 109.295 0 102.41 0c-7.838 0-13.553 5.747-13.553 14 0 8.226 5.688 14 13.553 14 6.885 0 11.784-4.412 12.9-11.058h-5.661zM154.826.463v27.046h-5.525V.463zm-29.364 0v10.976H137.6V.463h5.552v27.046h-5.525V16.287h-12.165v11.222h-5.525V.463zM8.273 0a8.28 8.28 0 108.273 8.28A8.273 8.273 0 008.273 0zm0 11.658a3.4 3.4 0 113.4-3.4 3.44 3.44 0 01-3.4 3.4zm59.982 15.851h5.851L64.908.463h-8.492l-9.307 27.046h5.851l1.824-5.556h11.648zm-11.893-10.3l4.273-12.933 4.249 12.938z" fill="#e5e5e5"/></svg>