<svg xmlns="http://www.w3.org/2000/svg" xmlns:xlink="http://www.w3.org/1999/xlink"><defs><style>.a,.b{fill:#5ea9ff;}.b{fill-rule:evenodd;}</style><style>.a,.b{fill:#e5e5e5;}.b{fill-rule:evenodd;}</style><style>.a,.b{fill:#707070;}.b{fill-rule:evenodd;}</style><style>.a{fill:#5ea9ff;}</style><style>.a{fill:#e5e5e5;}</style><style>.a{fill:#707070;}</style><style>.a{fill:#5d5d5d;}.b{fill:none;}</style><style>.a{fill:none;}.b{fill:#707070;}</style><style>.a{fill:#5EA9FF;}</style><style>.a{fill:#dadada;}</style><style>.a{fill:#000000;}</style><style>.a{fill:#ffffff;}.b{fill:none;}</style><style>.a{fill:#5ea9ff;}.b{fill:none;}</style><style>.a{fill:#fff;}</style><style>.a{fill:#1e1d1d;}.b{fill:#2b2e34;}.c{fill:#1e1d1e;}.d{fill:#5ea9ff;}.e{fill:#fff;}</style><style>.cls-1{fill:#f7f7f7;}.cls-2,.cls-3,.cls-5{fill:none;stroke-width:2px;}.cls-2,.cls-3{stroke:#000;}.cls-2{stroke-miterlimit:10;}.cls-3,.cls-5{stroke-linejoin:round;}.cls-4{fill:#5ea9ff;}.cls-5{stroke:#5ea9ff;stroke-linecap:round;}</style><style>.a{fill:#ffffff;}.b{fill:none;}</style><style>.cls-1{fill:#f7f7f7;}.cls-2,.cls-3,.cls-5{fill:none;stroke-width:2px;}.cls-2,.cls-3{stroke:#000;}.cls-2{stroke-miterlimit:10;}.cls-3,.cls-5{stroke-linejoin:round;}.cls-4{fill:#5ea9ff;}.cls-5{stroke:#5ea9ff;stroke-linecap:round;}</style><style>.a{fill:url(#a);}.b{fill:#fff;}.c{fill:#231f20;}</style><linearGradient id="a" x1="0.5" x2="0.5" y2="1" gradientUnits="objectBoundingBox"><stop offset="0" stop-color="#7fb0f8"/><stop offset="1" stop-color="#d5d3ff"/></linearGradient><style>.a{fill:#fff;}.b{fill:#2b2e34;}.c{fill:#1e1d1d;}.d{fill:#1e1d1e;}.e{fill:#dfdedf;}.f{fill:#5ea9ff;}.g{fill:#edf4fa;}.h{fill:#f0f5fa;}.i{fill:#d1d7de;}.j{fill:#dfedf7;}.k{fill:#c9d3dd;}</style><style>.a{fill:none;}.b{fill:#464749;}.c{fill:#0092df;}.d{fill:#0060af;}</style><style>.a{fill:#e5e5e5;}</style><style>.a{fill:none;}</style><style>.a{fill:none;}.b{fill:#0092df;}.c{fill:#1a1818;}</style><style>.a{fill:none;}.b{fill:#1a1818;}.c{fill:#e50019;}</style><style>.a{fill:none;}.b{fill:#00a1ed;}</style><style>.a{fill:#5d5d5d;}.b{fill:none;}</style><style>.a{fill:none;}.b{fill:#707070;}</style><style>.a{fill:none;}.b{fill:#ffffff;}</style>
    <clipPath id="clip-path">
      <path id="Path_2850" data-name="Path 2850" d="M0,1.323H24v-24H0Z" transform="translate(0 22.677)" fill="none"/>
    </clipPath>
  </defs><symbol id="app-google-blue" viewBox="0 0 162 48"><path class="a" d="M156,.96A5.04,5.04,0,0,1,161.04,6V42A5.04,5.04,0,0,1,156,47.04H6A5.04,5.04,0,0,1,.96,42V6A5.04,5.04,0,0,1,6,.96ZM156,0H6A6,6,0,0,0,0,6V42a6,6,0,0,0,6,6H156a6,6,0,0,0,6-6V6a6,6,0,0,0-6-6Z"/><path class="a" d="M98.117,32.9a5.1,5.1,0,1,0,5.124,5.1,5.028,5.028,0,0,0-5.124-5.1Zm0,8.2A3.1,3.1,0,1,1,101,38a2.952,2.952,0,0,1-2.88,3.1ZM86.945,32.9A5.1,5.1,0,1,0,92.057,38a5.028,5.028,0,0,0-5.124-5.1Zm0,8.2A3.1,3.1,0,1,1,89.813,38a2.952,2.952,0,0,1-2.88,3.1ZM73.637,34.47v2.16h5.184a4.524,4.524,0,0,1-1.2,2.724,5.3,5.3,0,0,1-4,1.584,5.76,5.76,0,1,1,0-11.52,5.52,5.52,0,0,1,3.924,1.548l1.524-1.524A7.548,7.548,0,0,0,73.637,27.2a7.932,7.932,0,1,0,0,15.852,7,7,0,0,0,7.4-7.284,7.041,7.041,0,0,0-.12-1.356Zm54.372,1.68A4.718,4.718,0,0,0,118.841,38a4.992,4.992,0,0,0,5.064,5.1,5.076,5.076,0,0,0,4.248-2.256l-1.74-1.2a2.917,2.917,0,0,1-2.508,1.416,2.592,2.592,0,0,1-2.472-1.548l6.828-2.82Zm-6.96,1.7a2.8,2.8,0,0,1,2.664-2.976,1.98,1.98,0,0,1,1.9,1.08ZM115.505,42.8h2.244v-15h-2.244Zm-3.672-8.76h-.084a3.6,3.6,0,0,0-2.688-1.2,5.112,5.112,0,0,0,0,10.212,3.479,3.479,0,0,0,2.688-1.2h.072v.732c0,1.956-1.044,3-2.724,3a2.82,2.82,0,0,1-2.568-1.812l-1.956.816A4.86,4.86,0,0,0,109.1,47.6c2.628,0,4.8-1.548,4.8-5.316V33.2h-2.064Zm-2.568,7.056a3.108,3.108,0,0,1,0-6.192,2.88,2.88,0,0,1,2.724,3.1,2.856,2.856,0,0,1-2.736,3.1Zm29.256-13.3h-5.364v15H135.4V37.11h3.132a4.668,4.668,0,1,0,0-9.312Zm0,7.2h-3.132V29.886h3.18a2.574,2.574,0,1,1,0,5.148Zm13.836-2.16a4.2,4.2,0,0,0-4,2.292l1.992.828a2.123,2.123,0,0,1,2.04-1.1,2.16,2.16,0,0,1,2.4,1.932v.156a4.957,4.957,0,0,0-2.34-.576c-2.148,0-4.32,1.2-4.32,3.372a3.468,3.468,0,0,0,3.72,3.3,3.157,3.157,0,0,0,2.88-1.44h.072v1.2h2.16V37.026c0-2.628-1.992-4.152-4.548-4.152Zm-.276,8.22c-.732,0-1.752-.372-1.752-1.272,0-1.2,1.272-1.6,2.4-1.6a3.984,3.984,0,0,1,2.04.5,2.712,2.712,0,0,1-2.628,2.4Zm12.756-7.86-2.568,6.5H162.2l-2.664-6.5h-2.4l4,9.1-2.28,5.052h2.34L167.333,33.2Zm-20.172,9.6h2.244v-15h-2.244Z" transform="translate(-16.349 -6.798)"/><path class="a" d="M73.342,15.13a3.253,3.253,0,0,1-.9,2.4A3.492,3.492,0,0,1,69.8,18.6a3.78,3.78,0,0,1-2.652-6.444,3.6,3.6,0,0,1,2.652-1.08,3.72,3.72,0,0,1,1.476.3,2.965,2.965,0,0,1,1.128.8l-.636.636a2.4,2.4,0,0,0-1.968-.852,2.784,2.784,0,0,0-2.8,2.88,2.832,2.832,0,0,0,4.8,2.076,2.268,2.268,0,0,0,.6-1.464H69.8V14.59h3.492A3.054,3.054,0,0,1,73.342,15.13Zm5.5-3H75.6v2.28H78.55v.864H75.6v2.28h3.24v.888h-4.2v-7.2h4.2Zm3.936,6.312H81.85V12.13H79.834v-.888h5v.888H82.774Zm5.592,0v-7.2h.924v7.2Zm5.028,0H92.47V12.13H90.454v-.888H95.4v.888h-2Zm11.376-.936a3.744,3.744,0,0,1-5.28,0,3.887,3.887,0,0,1,0-5.34,3.72,3.72,0,0,1,5.28,0,3.875,3.875,0,0,1,0,5.34Zm-4.6-.6a2.772,2.772,0,0,0,3.912,0,3.073,3.073,0,0,0,0-4.128,2.772,2.772,0,0,0-3.912,0,3.073,3.073,0,0,0,0,4.128Zm6.96,1.536v-7.2h1.128l3.5,5.6v-5.6h.924v7.2h-.96l-3.66-5.868v5.868Z" transform="translate(-16.513 -2.767)"/><path class="b" d="M102.09,11.146a3.6,3.6,0,0,0-2.554,1.063,3.767,3.767,0,0,0,0,5.173,3.624,3.624,0,0,0,5.108,0,3.756,3.756,0,0,0,0-5.172,3.6,3.6,0,0,0-2.554-1.063Zm-1.476.055a3.841,3.841,0,0,1,4.2.84v0a4,4,0,0,1,0,5.505l0,0a3.864,3.864,0,0,1-5.449,0l0,0a4.007,4.007,0,0,1,0-5.5l0,0A3.836,3.836,0,0,1,100.614,11.2Zm-30.855-.048A3.481,3.481,0,0,0,67.2,12.2h0a3.66,3.66,0,0,0,2.568,6.239h0a3.372,3.372,0,0,0,2.549-1.031,3.132,3.132,0,0,0,.867-2.311l.12-.006h-.12a2.933,2.933,0,0,0-.03-.42h-3.27v.624H72.49l0,.124a2.388,2.388,0,0,1-.632,1.541l0,.005a2.952,2.952,0,0,1-5-2.161,2.9,2.9,0,0,1,2.913-3,2.52,2.52,0,0,1,1.976.8l.465-.465a2.843,2.843,0,0,0-1.007-.689h0a3.6,3.6,0,0,0-1.428-.29Zm3.663,3.933a3.373,3.373,0,0,1-.933,2.486,3.613,3.613,0,0,1-2.729,1.1,3.9,3.9,0,0,1-2.735-6.648,3.72,3.72,0,0,1,2.739-1.116,3.839,3.839,0,0,1,1.521.309,3.084,3.084,0,0,1,1.172.836l.073.084-.808.808-.084-.1a2.28,2.28,0,0,0-1.87-.809h-.007A2.664,2.664,0,0,0,67.086,14.8V14.8a2.712,2.712,0,0,0,4.594,1.99,2.148,2.148,0,0,0,.558-1.26h-2.6v-1.1h3.712l.018.1A3.171,3.171,0,0,1,73.422,15.087Zm1.056-4.005h4.44V12.21h-3.24v2.04H78.63v1.1H75.678v2.04h3.24v1.128h-4.44Zm.24.24v6.96h3.96v-.648h-3.24v-2.52H78.39V14.49H75.438V11.97h3.24v-.648Zm4.956-.24h5.244V12.21H82.854v6.312H81.69V12.21H79.674Zm.24.24v.648H81.93v6.312h.684V11.97h2.064v-.648Zm8.292-.24H89.37v7.44H88.206Zm.24.24v6.96h.684v-6.96Zm1.848-.24h5.184V12.21h-2v6.312H92.31V12.21H90.294Zm.24.24v.648H92.55v6.312h.684V11.97h2v-.648Zm16.44-.24h1.315l3.317,5.306V11.082h1.164v7.44h-1.147l-3.473-5.569v5.569h-1.176Zm.24.24v6.96h.7V12.114l3.847,6.167h.773v-6.96h-.684v5.9l-3.691-5.9Zm-7.165,1.331a2.892,2.892,0,0,1,4.081,0l0,0a3.194,3.194,0,0,1,0,4.289l0,0a2.892,2.892,0,0,1-4.081,0l.085-.085-.088.081a3.191,3.191,0,0,1,0-4.289Zm.172,4.13a2.652,2.652,0,0,0,3.738,0,2.952,2.952,0,0,0,0-3.962,2.652,2.652,0,0,0-3.738,0,2.952,2.952,0,0,0,0,3.962Z" transform="translate(-16.473 -2.727)"/><path class="a" d="M16.585,42.162l14.7-15.247L16.6,11.694a1.7,1.7,0,0,0-.635,1.5V40.672A1.73,1.73,0,0,0,16.585,42.162Z" transform="translate(-3.991 -2.924)"/><path class="a" d="M32.282,26.439,36.661,21.9,18.828,11.755a1.92,1.92,0,0,0-.989-.277l14.44,14.96Z" transform="translate(-4.46 -2.869)"/><path class="a" d="M32.267,32.551,17.781,47.577a1.912,1.912,0,0,0,1.034-.284L36.683,37.123Z" transform="translate(-4.445 -8.138)"/><path class="a" d="M48.07,29.149l-5.934-3.381-4.5,4.666,4.532,4.7,5.9-3.372A1.375,1.375,0,0,0,48.07,29.149Z" transform="translate(-9.409 -6.442)"/></symbol><symbol id="app-google-grey" viewBox="0 0 162 48"><path class="a" d="M156,.96A5.04,5.04,0,0,1,161.04,6V42A5.04,5.04,0,0,1,156,47.04H6A5.04,5.04,0,0,1,.96,42V6A5.04,5.04,0,0,1,6,.96ZM156,0H6A6,6,0,0,0,0,6V42a6,6,0,0,0,6,6H156a6,6,0,0,0,6-6V6a6,6,0,0,0-6-6Z"/><path class="a" d="M98.117,32.9a5.1,5.1,0,1,0,5.124,5.1,5.028,5.028,0,0,0-5.124-5.1Zm0,8.2A3.1,3.1,0,1,1,101,38a2.952,2.952,0,0,1-2.88,3.1ZM86.945,32.9A5.1,5.1,0,1,0,92.057,38a5.028,5.028,0,0,0-5.124-5.1Zm0,8.2A3.1,3.1,0,1,1,89.813,38a2.952,2.952,0,0,1-2.88,3.1ZM73.637,34.47v2.16h5.184a4.524,4.524,0,0,1-1.2,2.724,5.3,5.3,0,0,1-4,1.584,5.76,5.76,0,1,1,0-11.52,5.52,5.52,0,0,1,3.924,1.548l1.524-1.524A7.548,7.548,0,0,0,73.637,27.2a7.932,7.932,0,1,0,0,15.852,7,7,0,0,0,7.4-7.284,7.041,7.041,0,0,0-.12-1.356Zm54.372,1.68A4.718,4.718,0,0,0,118.841,38a4.992,4.992,0,0,0,5.064,5.1,5.076,5.076,0,0,0,4.248-2.256l-1.74-1.2a2.917,2.917,0,0,1-2.508,1.416,2.592,2.592,0,0,1-2.472-1.548l6.828-2.82Zm-6.96,1.7a2.8,2.8,0,0,1,2.664-2.976,1.98,1.98,0,0,1,1.9,1.08ZM115.505,42.8h2.244v-15h-2.244Zm-3.672-8.76h-.084a3.6,3.6,0,0,0-2.688-1.2,5.112,5.112,0,0,0,0,10.212,3.479,3.479,0,0,0,2.688-1.2h.072v.732c0,1.956-1.044,3-2.724,3a2.82,2.82,0,0,1-2.568-1.812l-1.956.816A4.86,4.86,0,0,0,109.1,47.6c2.628,0,4.8-1.548,4.8-5.316V33.2h-2.064Zm-2.568,7.056a3.108,3.108,0,0,1,0-6.192,2.88,2.88,0,0,1,2.724,3.1,2.856,2.856,0,0,1-2.736,3.1Zm29.256-13.3h-5.364v15H135.4V37.11h3.132a4.668,4.668,0,1,0,0-9.312Zm0,7.2h-3.132V29.886h3.18a2.574,2.574,0,1,1,0,5.148Zm13.836-2.16a4.2,4.2,0,0,0-4,2.292l1.992.828a2.123,2.123,0,0,1,2.04-1.1,2.16,2.16,0,0,1,2.4,1.932v.156a4.957,4.957,0,0,0-2.34-.576c-2.148,0-4.32,1.2-4.32,3.372a3.468,3.468,0,0,0,3.72,3.3,3.157,3.157,0,0,0,2.88-1.44h.072v1.2h2.16V37.026c0-2.628-1.992-4.152-4.548-4.152Zm-.276,8.22c-.732,0-1.752-.372-1.752-1.272,0-1.2,1.272-1.6,2.4-1.6a3.984,3.984,0,0,1,2.04.5,2.712,2.712,0,0,1-2.628,2.4Zm12.756-7.86-2.568,6.5H162.2l-2.664-6.5h-2.4l4,9.1-2.28,5.052h2.34L167.333,33.2Zm-20.172,9.6h2.244v-15h-2.244Z" transform="translate(-16.349 -6.798)"/><path class="a" d="M73.342,15.13a3.253,3.253,0,0,1-.9,2.4A3.492,3.492,0,0,1,69.8,18.6a3.78,3.78,0,0,1-2.652-6.444,3.6,3.6,0,0,1,2.652-1.08,3.72,3.72,0,0,1,1.476.3,2.965,2.965,0,0,1,1.128.8l-.636.636a2.4,2.4,0,0,0-1.968-.852,2.784,2.784,0,0,0-2.8,2.88,2.832,2.832,0,0,0,4.8,2.076,2.268,2.268,0,0,0,.6-1.464H69.8V14.59h3.492A3.054,3.054,0,0,1,73.342,15.13Zm5.5-3H75.6v2.28H78.55v.864H75.6v2.28h3.24v.888h-4.2v-7.2h4.2Zm3.936,6.312H81.85V12.13H79.834v-.888h5v.888H82.774Zm5.592,0v-7.2h.924v7.2Zm5.028,0H92.47V12.13H90.454v-.888H95.4v.888h-2Zm11.376-.936a3.744,3.744,0,0,1-5.28,0,3.887,3.887,0,0,1,0-5.34,3.72,3.72,0,0,1,5.28,0,3.875,3.875,0,0,1,0,5.34Zm-4.6-.6a2.772,2.772,0,0,0,3.912,0,3.073,3.073,0,0,0,0-4.128,2.772,2.772,0,0,0-3.912,0,3.073,3.073,0,0,0,0,4.128Zm6.96,1.536v-7.2h1.128l3.5,5.6v-5.6h.924v7.2h-.96l-3.66-5.868v5.868Z" transform="translate(-16.513 -2.767)"/><path class="b" d="M102.09,11.146a3.6,3.6,0,0,0-2.554,1.063,3.767,3.767,0,0,0,0,5.173,3.624,3.624,0,0,0,5.108,0,3.756,3.756,0,0,0,0-5.172,3.6,3.6,0,0,0-2.554-1.063Zm-1.476.055a3.841,3.841,0,0,1,4.2.84v0a4,4,0,0,1,0,5.505l0,0a3.864,3.864,0,0,1-5.449,0l0,0a4.007,4.007,0,0,1,0-5.5l0,0A3.836,3.836,0,0,1,100.614,11.2Zm-30.855-.048A3.481,3.481,0,0,0,67.2,12.2h0a3.66,3.66,0,0,0,2.568,6.239h0a3.372,3.372,0,0,0,2.549-1.031,3.132,3.132,0,0,0,.867-2.311l.12-.006h-.12a2.933,2.933,0,0,0-.03-.42h-3.27v.624H72.49l0,.124a2.388,2.388,0,0,1-.632,1.541l0,.005a2.952,2.952,0,0,1-5-2.161,2.9,2.9,0,0,1,2.913-3,2.52,2.52,0,0,1,1.976.8l.465-.465a2.843,2.843,0,0,0-1.007-.689h0a3.6,3.6,0,0,0-1.428-.29Zm3.663,3.933a3.373,3.373,0,0,1-.933,2.486,3.613,3.613,0,0,1-2.729,1.1,3.9,3.9,0,0,1-2.735-6.648,3.72,3.72,0,0,1,2.739-1.116,3.839,3.839,0,0,1,1.521.309,3.084,3.084,0,0,1,1.172.836l.073.084-.808.808-.084-.1a2.28,2.28,0,0,0-1.87-.809h-.007A2.664,2.664,0,0,0,67.086,14.8V14.8a2.712,2.712,0,0,0,4.594,1.99,2.148,2.148,0,0,0,.558-1.26h-2.6v-1.1h3.712l.018.1A3.171,3.171,0,0,1,73.422,15.087Zm1.056-4.005h4.44V12.21h-3.24v2.04H78.63v1.1H75.678v2.04h3.24v1.128h-4.44Zm.24.24v6.96h3.96v-.648h-3.24v-2.52H78.39V14.49H75.438V11.97h3.24v-.648Zm4.956-.24h5.244V12.21H82.854v6.312H81.69V12.21H79.674Zm.24.24v.648H81.93v6.312h.684V11.97h2.064v-.648Zm8.292-.24H89.37v7.44H88.206Zm.24.24v6.96h.684v-6.96Zm1.848-.24h5.184V12.21h-2v6.312H92.31V12.21H90.294Zm.24.24v.648H92.55v6.312h.684V11.97h2v-.648Zm16.44-.24h1.315l3.317,5.306V11.082h1.164v7.44h-1.147l-3.473-5.569v5.569h-1.176Zm.24.24v6.96h.7V12.114l3.847,6.167h.773v-6.96h-.684v5.9l-3.691-5.9Zm-7.165,1.331a2.892,2.892,0,0,1,4.081,0l0,0a3.194,3.194,0,0,1,0,4.289l0,0a2.892,2.892,0,0,1-4.081,0l.085-.085-.088.081a3.191,3.191,0,0,1,0-4.289Zm.172,4.13a2.652,2.652,0,0,0,3.738,0,2.952,2.952,0,0,0,0-3.962,2.652,2.652,0,0,0-3.738,0,2.952,2.952,0,0,0,0,3.962Z" transform="translate(-16.473 -2.727)"/><path class="a" d="M16.585,42.162l14.7-15.247L16.6,11.694a1.7,1.7,0,0,0-.635,1.5V40.672A1.73,1.73,0,0,0,16.585,42.162Z" transform="translate(-3.991 -2.924)"/><path class="a" d="M32.282,26.439,36.661,21.9,18.828,11.755a1.92,1.92,0,0,0-.989-.277l14.44,14.96Z" transform="translate(-4.46 -2.869)"/><path class="a" d="M32.267,32.551,17.781,47.577a1.912,1.912,0,0,0,1.034-.284L36.683,37.123Z" transform="translate(-4.445 -8.138)"/><path class="a" d="M48.07,29.149l-5.934-3.381-4.5,4.666,4.532,4.7,5.9-3.372A1.375,1.375,0,0,0,48.07,29.149Z" transform="translate(-9.409 -6.442)"/></symbol><symbol id="app-google" viewBox="0 0 162 48"><path class="a" d="M156,.96A5.04,5.04,0,0,1,161.04,6V42A5.04,5.04,0,0,1,156,47.04H6A5.04,5.04,0,0,1,.96,42V6A5.04,5.04,0,0,1,6,.96ZM156,0H6A6,6,0,0,0,0,6V42a6,6,0,0,0,6,6H156a6,6,0,0,0,6-6V6a6,6,0,0,0-6-6Z"/><path class="a" d="M98.117,32.9a5.1,5.1,0,1,0,5.124,5.1,5.028,5.028,0,0,0-5.124-5.1Zm0,8.2A3.1,3.1,0,1,1,101,38a2.952,2.952,0,0,1-2.88,3.1ZM86.945,32.9A5.1,5.1,0,1,0,92.057,38a5.028,5.028,0,0,0-5.124-5.1Zm0,8.2A3.1,3.1,0,1,1,89.813,38a2.952,2.952,0,0,1-2.88,3.1ZM73.637,34.47v2.16h5.184a4.524,4.524,0,0,1-1.2,2.724,5.3,5.3,0,0,1-4,1.584,5.76,5.76,0,1,1,0-11.52,5.52,5.52,0,0,1,3.924,1.548l1.524-1.524A7.548,7.548,0,0,0,73.637,27.2a7.932,7.932,0,1,0,0,15.852,7,7,0,0,0,7.4-7.284,7.041,7.041,0,0,0-.12-1.356Zm54.372,1.68A4.718,4.718,0,0,0,118.841,38a4.992,4.992,0,0,0,5.064,5.1,5.076,5.076,0,0,0,4.248-2.256l-1.74-1.2a2.917,2.917,0,0,1-2.508,1.416,2.592,2.592,0,0,1-2.472-1.548l6.828-2.82Zm-6.96,1.7a2.8,2.8,0,0,1,2.664-2.976,1.98,1.98,0,0,1,1.9,1.08ZM115.505,42.8h2.244v-15h-2.244Zm-3.672-8.76h-.084a3.6,3.6,0,0,0-2.688-1.2,5.112,5.112,0,0,0,0,10.212,3.479,3.479,0,0,0,2.688-1.2h.072v.732c0,1.956-1.044,3-2.724,3a2.82,2.82,0,0,1-2.568-1.812l-1.956.816A4.86,4.86,0,0,0,109.1,47.6c2.628,0,4.8-1.548,4.8-5.316V33.2h-2.064Zm-2.568,7.056a3.108,3.108,0,0,1,0-6.192,2.88,2.88,0,0,1,2.724,3.1,2.856,2.856,0,0,1-2.736,3.1Zm29.256-13.3h-5.364v15H135.4V37.11h3.132a4.668,4.668,0,1,0,0-9.312Zm0,7.2h-3.132V29.886h3.18a2.574,2.574,0,1,1,0,5.148Zm13.836-2.16a4.2,4.2,0,0,0-4,2.292l1.992.828a2.123,2.123,0,0,1,2.04-1.1,2.16,2.16,0,0,1,2.4,1.932v.156a4.957,4.957,0,0,0-2.34-.576c-2.148,0-4.32,1.2-4.32,3.372a3.468,3.468,0,0,0,3.72,3.3,3.157,3.157,0,0,0,2.88-1.44h.072v1.2h2.16V37.026c0-2.628-1.992-4.152-4.548-4.152Zm-.276,8.22c-.732,0-1.752-.372-1.752-1.272,0-1.2,1.272-1.6,2.4-1.6a3.984,3.984,0,0,1,2.04.5,2.712,2.712,0,0,1-2.628,2.4Zm12.756-7.86-2.568,6.5H162.2l-2.664-6.5h-2.4l4,9.1-2.28,5.052h2.34L167.333,33.2Zm-20.172,9.6h2.244v-15h-2.244Z" transform="translate(-16.349 -6.798)"/><path class="a" d="M73.342,15.13a3.253,3.253,0,0,1-.9,2.4A3.492,3.492,0,0,1,69.8,18.6a3.78,3.78,0,0,1-2.652-6.444,3.6,3.6,0,0,1,2.652-1.08,3.72,3.72,0,0,1,1.476.3,2.965,2.965,0,0,1,1.128.8l-.636.636a2.4,2.4,0,0,0-1.968-.852,2.784,2.784,0,0,0-2.8,2.88,2.832,2.832,0,0,0,4.8,2.076,2.268,2.268,0,0,0,.6-1.464H69.8V14.59h3.492A3.054,3.054,0,0,1,73.342,15.13Zm5.5-3H75.6v2.28H78.55v.864H75.6v2.28h3.24v.888h-4.2v-7.2h4.2Zm3.936,6.312H81.85V12.13H79.834v-.888h5v.888H82.774Zm5.592,0v-7.2h.924v7.2Zm5.028,0H92.47V12.13H90.454v-.888H95.4v.888h-2Zm11.376-.936a3.744,3.744,0,0,1-5.28,0,3.887,3.887,0,0,1,0-5.34,3.72,3.72,0,0,1,5.28,0,3.875,3.875,0,0,1,0,5.34Zm-4.6-.6a2.772,2.772,0,0,0,3.912,0,3.073,3.073,0,0,0,0-4.128,2.772,2.772,0,0,0-3.912,0,3.073,3.073,0,0,0,0,4.128Zm6.96,1.536v-7.2h1.128l3.5,5.6v-5.6h.924v7.2h-.96l-3.66-5.868v5.868Z" transform="translate(-16.513 -2.767)"/><path class="b" d="M102.09,11.146a3.6,3.6,0,0,0-2.554,1.063,3.767,3.767,0,0,0,0,5.173,3.624,3.624,0,0,0,5.108,0,3.756,3.756,0,0,0,0-5.172,3.6,3.6,0,0,0-2.554-1.063Zm-1.476.055a3.841,3.841,0,0,1,4.2.84v0a4,4,0,0,1,0,5.505l0,0a3.864,3.864,0,0,1-5.449,0l0,0a4.007,4.007,0,0,1,0-5.5l0,0A3.836,3.836,0,0,1,100.614,11.2Zm-30.855-.048A3.481,3.481,0,0,0,67.2,12.2h0a3.66,3.66,0,0,0,2.568,6.239h0a3.372,3.372,0,0,0,2.549-1.031,3.132,3.132,0,0,0,.867-2.311l.12-.006h-.12a2.933,2.933,0,0,0-.03-.42h-3.27v.624H72.49l0,.124a2.388,2.388,0,0,1-.632,1.541l0,.005a2.952,2.952,0,0,1-5-2.161,2.9,2.9,0,0,1,2.913-3,2.52,2.52,0,0,1,1.976.8l.465-.465a2.843,2.843,0,0,0-1.007-.689h0a3.6,3.6,0,0,0-1.428-.29Zm3.663,3.933a3.373,3.373,0,0,1-.933,2.486,3.613,3.613,0,0,1-2.729,1.1,3.9,3.9,0,0,1-2.735-6.648,3.72,3.72,0,0,1,2.739-1.116,3.839,3.839,0,0,1,1.521.309,3.084,3.084,0,0,1,1.172.836l.073.084-.808.808-.084-.1a2.28,2.28,0,0,0-1.87-.809h-.007A2.664,2.664,0,0,0,67.086,14.8V14.8a2.712,2.712,0,0,0,4.594,1.99,2.148,2.148,0,0,0,.558-1.26h-2.6v-1.1h3.712l.018.1A3.171,3.171,0,0,1,73.422,15.087Zm1.056-4.005h4.44V12.21h-3.24v2.04H78.63v1.1H75.678v2.04h3.24v1.128h-4.44Zm.24.24v6.96h3.96v-.648h-3.24v-2.52H78.39V14.49H75.438V11.97h3.24v-.648Zm4.956-.24h5.244V12.21H82.854v6.312H81.69V12.21H79.674Zm.24.24v.648H81.93v6.312h.684V11.97h2.064v-.648Zm8.292-.24H89.37v7.44H88.206Zm.24.24v6.96h.684v-6.96Zm1.848-.24h5.184V12.21h-2v6.312H92.31V12.21H90.294Zm.24.24v.648H92.55v6.312h.684V11.97h2v-.648Zm16.44-.24h1.315l3.317,5.306V11.082h1.164v7.44h-1.147l-3.473-5.569v5.569h-1.176Zm.24.24v6.96h.7V12.114l3.847,6.167h.773v-6.96h-.684v5.9l-3.691-5.9Zm-7.165,1.331a2.892,2.892,0,0,1,4.081,0l0,0a3.194,3.194,0,0,1,0,4.289l0,0a2.892,2.892,0,0,1-4.081,0l.085-.085-.088.081a3.191,3.191,0,0,1,0-4.289Zm.172,4.13a2.652,2.652,0,0,0,3.738,0,2.952,2.952,0,0,0,0-3.962,2.652,2.652,0,0,0-3.738,0,2.952,2.952,0,0,0,0,3.962Z" transform="translate(-16.473 -2.727)"/><path class="a" d="M16.585,42.162l14.7-15.247L16.6,11.694a1.7,1.7,0,0,0-.635,1.5V40.672A1.73,1.73,0,0,0,16.585,42.162Z" transform="translate(-3.991 -2.924)"/><path class="a" d="M32.282,26.439,36.661,21.9,18.828,11.755a1.92,1.92,0,0,0-.989-.277l14.44,14.96Z" transform="translate(-4.46 -2.869)"/><path class="a" d="M32.267,32.551,17.781,47.577a1.912,1.912,0,0,0,1.034-.284L36.683,37.123Z" transform="translate(-4.445 -8.138)"/><path class="a" d="M48.07,29.149l-5.934-3.381-4.5,4.666,4.532,4.7,5.9-3.372A1.375,1.375,0,0,0,48.07,29.149Z" transform="translate(-9.409 -6.442)"/></symbol><symbol id="app-ios-blue" viewBox="0 0 162 48"><g transform="translate(0 0)"><path class="a" d="M405.862,321.28a5.039,5.039,0,0,1,5.04,5.04v36a5.039,5.039,0,0,1-5.04,5.04h-150a5.041,5.041,0,0,1-5.04-5.04v-36a5.041,5.041,0,0,1,5.04-5.04Zm0-.96h-150a6,6,0,0,0-6,6v36a6,6,0,0,0,6,6h150a6,6,0,0,0,6-6v-36a6,6,0,0,0-6-6Z" transform="translate(-249.862 -320.32)"/><path class="a" d="M294.636,348.4a6.627,6.627,0,0,1,3.157-5.561,6.786,6.786,0,0,0-5.346-2.89c-2.249-.237-4.431,1.345-5.576,1.345-1.169,0-2.933-1.323-4.834-1.284a7.118,7.118,0,0,0-5.991,3.654c-2.591,4.486-.658,11.077,1.823,14.7,1.242,1.775,2.693,3.758,4.592,3.688,1.858-.077,2.552-1.185,4.794-1.185,2.222,0,2.873,1.185,4.81,1.14,1.994-.032,3.25-1.784,4.448-3.575a14.688,14.688,0,0,0,2.034-4.142A6.405,6.405,0,0,1,294.636,348.4Z" transform="translate(-256.1 -325.22)"/><path class="a" d="M294.908,335.214a6.526,6.526,0,0,0,1.493-4.676,6.641,6.641,0,0,0-4.3,2.223,6.206,6.206,0,0,0-1.532,4.5A5.49,5.49,0,0,0,294.908,335.214Z" transform="translate(-260.031 -322.875)"/><path class="a" d="M332.812,364.016h-2.6l-1.423-4.47h-4.943l-1.355,4.47h-2.528l4.9-15.216h3.026Zm-4.448-6.345-1.286-3.973q-.2-.61-.767-2.866h-.046q-.225.971-.723,2.866l-1.263,3.973Z" transform="translate(-267.388 -327.44)"/><path class="a" d="M350.367,359.734a6.239,6.239,0,0,1-1.513,4.424,4.424,4.424,0,0,1-3.364,1.445,3.364,3.364,0,0,1-3.116-1.557h-.046v5.779h-2.437V358q0-1.761-.091-3.612h2.144l.136,1.739h.046a4.337,4.337,0,0,1,6.941-.43A6.048,6.048,0,0,1,350.367,359.734Zm-2.484.089a4.516,4.516,0,0,0-.722-2.641,2.5,2.5,0,0,0-2.122-1.084,2.536,2.536,0,0,0-1.636.6,2.774,2.774,0,0,0-.959,1.57,3.215,3.215,0,0,0-.113.743v1.829a2.929,2.929,0,0,0,.734,2.021,2.433,2.433,0,0,0,1.907.824,2.5,2.5,0,0,0,2.144-1.06A4.671,4.671,0,0,0,347.883,359.824Z" transform="translate(-272.347 -328.78)"/><path class="a" d="M367.193,359.734a6.233,6.233,0,0,1-1.514,4.424,4.418,4.418,0,0,1-3.362,1.445,3.361,3.361,0,0,1-3.115-1.557h-.046v5.779h-2.437V358q0-1.761-.091-3.612h2.144l.136,1.739h.046a4.339,4.339,0,0,1,6.943-.43A6.062,6.062,0,0,1,367.193,359.734Zm-2.484.089a4.51,4.51,0,0,0-.724-2.641,2.49,2.49,0,0,0-2.12-1.084,2.54,2.54,0,0,0-1.638.6,2.772,2.772,0,0,0-.958,1.57,3.259,3.259,0,0,0-.113.743v1.829a2.938,2.938,0,0,0,.732,2.021,2.437,2.437,0,0,0,1.909.824,2.5,2.5,0,0,0,2.144-1.06A4.672,4.672,0,0,0,364.709,359.824Z" transform="translate(-276.553 -328.78)"/><path class="a" d="M386.38,359.674a4.055,4.055,0,0,1-1.351,3.16,5.988,5.988,0,0,1-4.145,1.332,7.256,7.256,0,0,1-3.943-.948l.565-2.032a6.683,6.683,0,0,0,3.524.972,3.332,3.332,0,0,0,2.146-.622,2.032,2.032,0,0,0,.766-1.663,2.117,2.117,0,0,0-.632-1.559,5.867,5.867,0,0,0-2.1-1.177q-4-1.491-3.994-4.363a3.862,3.862,0,0,1,1.4-3.075,5.525,5.525,0,0,1,3.725-1.2,7.384,7.384,0,0,1,3.453.722l-.61,1.988a5.989,5.989,0,0,0-2.912-.7,2.946,2.946,0,0,0-2.008.632,1.8,1.8,0,0,0-.61,1.378,1.858,1.858,0,0,0,.7,1.49,7.911,7.911,0,0,0,2.214,1.174,7.5,7.5,0,0,1,2.889,1.85A3.864,3.864,0,0,1,386.38,359.674Z" transform="translate(-281.632 -327.366)"/><path class="a" d="M398.046,355.377h-2.687V360.7q0,2.033,1.422,2.033a4.356,4.356,0,0,0,1.083-.113l.068,1.851a5.533,5.533,0,0,1-1.9.27,2.925,2.925,0,0,1-2.258-.88,4.326,4.326,0,0,1-.813-2.958v-5.531h-1.6v-1.829h1.6v-2.009l2.395-.722v2.732h2.687Z" transform="translate(-285.238 -327.944)"/><path class="a" d="M412.855,359.78a6.015,6.015,0,0,1-1.445,4.154,5.159,5.159,0,0,1-4.02,1.671,4.907,4.907,0,0,1-3.847-1.6,5.835,5.835,0,0,1-1.433-4.041,5.958,5.958,0,0,1,1.478-4.175,5.116,5.116,0,0,1,3.983-1.626,5.01,5.01,0,0,1,3.883,1.6A5.768,5.768,0,0,1,412.855,359.78Zm-2.529.079a4.934,4.934,0,0,0-.654-2.6,2.408,2.408,0,0,0-2.189-1.312,2.444,2.444,0,0,0-2.235,1.313,5.028,5.028,0,0,0-.654,2.649,4.929,4.929,0,0,0,.654,2.6,2.491,2.491,0,0,0,4.4-.023A4.952,4.952,0,0,0,410.326,359.858Z" transform="translate(-287.924 -328.78)"/><path class="a" d="M425.045,356.527a4.272,4.272,0,0,0-.769-.068,2.3,2.3,0,0,0-1.987.972,3.654,3.654,0,0,0-.61,2.167v5.757h-2.437l.023-7.517q0-1.9-.091-3.454H421.3l.089,2.1h.067a3.752,3.752,0,0,1,1.219-1.738,2.947,2.947,0,0,1,1.762-.588,3.929,3.929,0,0,1,.61.045Z" transform="translate(-292.19 -328.78)"/><path class="a" d="M438.288,359.344a5.708,5.708,0,0,1-.089,1.106h-7.313a3.181,3.181,0,0,0,1.061,2.485,3.624,3.624,0,0,0,2.392.767,8.082,8.082,0,0,0,2.959-.519l.383,1.692a9.148,9.148,0,0,1-3.679.678,5.329,5.329,0,0,1-4.009-1.5,5.545,5.545,0,0,1-1.455-4.029,6.285,6.285,0,0,1,1.356-4.131,4.672,4.672,0,0,1,3.836-1.759,4.089,4.089,0,0,1,3.591,1.759A5.936,5.936,0,0,1,438.288,359.344Zm-2.325-.632a3.307,3.307,0,0,0-.473-1.874,2.129,2.129,0,0,0-1.943-1.016,2.313,2.313,0,0,0-1.94.994,3.64,3.64,0,0,0-.721,1.9h5.077Z" transform="translate(-294.531 -328.773)"/><path class="a" d="M328.041,335.114a3.753,3.753,0,0,1-1.21,3.039,4.81,4.81,0,0,1-3.182.942,14.627,14.627,0,0,1-1.753-.089v-7.353a12.944,12.944,0,0,1,2.063-.155,4.45,4.45,0,0,1,2.962.854A3.45,3.45,0,0,1,328.041,335.114Zm-1.263.033a2.436,2.436,0,0,0-2.718-2.706,5.089,5.089,0,0,0-.965.077v5.591a6.421,6.421,0,0,0,.81.033,2.835,2.835,0,0,0,2.123-.765A3.066,3.066,0,0,0,326.778,335.147Z" transform="translate(-267.871 -323.114)"/><path class="a" d="M337.262,336.966a2.957,2.957,0,0,1-.71,2.041,2.533,2.533,0,0,1-1.975.821,2.408,2.408,0,0,1-1.891-.787,2.867,2.867,0,0,1-.7-1.985,2.929,2.929,0,0,1,.726-2.051,2.517,2.517,0,0,1,1.957-.8,2.464,2.464,0,0,1,1.908.787A2.845,2.845,0,0,1,337.262,336.966Zm-1.244.039a2.438,2.438,0,0,0-.321-1.279,1.184,1.184,0,0,0-1.075-.645,1.2,1.2,0,0,0-1.1.645,2.468,2.468,0,0,0-.321,1.3,2.439,2.439,0,0,0,.321,1.279,1.21,1.21,0,0,0,1.088.645,1.2,1.2,0,0,0,1.075-.656A2.422,2.422,0,0,0,336.019,337.005Z" transform="translate(-270.392 -323.791)"/><path class="a" d="M348.4,334.352l-1.687,5.39h-1.1l-.7-2.341a17.485,17.485,0,0,1-.433-1.742h-.022a12.767,12.767,0,0,1-.433,1.742l-.742,2.341h-1.11l-1.585-5.39h1.231l.609,2.563c.148.606.269,1.183.366,1.729h.022c.089-.45.237-1.024.445-1.718l.765-2.573H345l.733,2.518q.266.92.432,1.774h.033a17.178,17.178,0,0,1,.366-1.774l.654-2.518H348.4Z" transform="translate(-272.543 -323.828)"/><path class="a" d="M357.705,339.7h-1.2v-3.087q0-1.428-1.086-1.427a1.081,1.081,0,0,0-.866.392,1.393,1.393,0,0,0-.333.924v3.2h-1.2v-3.848q0-.71-.044-1.543h1.053l.056.843h.033a1.734,1.734,0,0,1,.621-.651,2.026,2.026,0,0,1,1.086-.3,1.72,1.72,0,0,1,1.254.488,2.373,2.373,0,0,1,.621,1.786Z" transform="translate(-275.642 -323.79)"/><path class="a" d="M363.287,338.918h-1.2v-7.863h1.2Z" transform="translate(-277.919 -323.004)"/><path class="a" d="M371.332,336.966a2.957,2.957,0,0,1-.71,2.041,2.533,2.533,0,0,1-1.975.821,2.4,2.4,0,0,1-1.891-.787,2.871,2.871,0,0,1-.7-1.985,2.929,2.929,0,0,1,.726-2.051,2.519,2.519,0,0,1,1.957-.8,2.468,2.468,0,0,1,1.909.787A2.845,2.845,0,0,1,371.332,336.966Zm-1.244.039a2.438,2.438,0,0,0-.321-1.279,1.183,1.183,0,0,0-1.074-.645,1.2,1.2,0,0,0-1.1.645,2.474,2.474,0,0,0-.321,1.3,2.439,2.439,0,0,0,.321,1.279,1.21,1.21,0,0,0,1.088.645,1.2,1.2,0,0,0,1.074-.656A2.416,2.416,0,0,0,370.088,337.005Z" transform="translate(-278.91 -323.791)"/><path class="a" d="M379.349,339.706h-1.076l-.089-.621h-.034a1.845,1.845,0,0,1-1.574.743,1.625,1.625,0,0,1-1.23-.488,1.532,1.532,0,0,1-.422-1.1,1.674,1.674,0,0,1,.827-1.508,4.287,4.287,0,0,1,2.325-.51v-.1q0-1.065-1.12-1.065a2.508,2.508,0,0,0-1.4.4l-.244-.787a3.457,3.457,0,0,1,1.849-.465q2.113,0,2.115,2.23v1.984A8.38,8.38,0,0,0,379.349,339.706Zm-1.244-1.852v-.831q-1.982-.035-1.982,1.086a.813.813,0,0,0,.229.632.837.837,0,0,0,.586.211,1.21,1.21,0,0,0,.733-.25,1.023,1.023,0,0,0,.434-.848Z" transform="translate(-281.128 -323.791)"/><path class="a" d="M388.187,338.918h-1.063l-.056-.865h-.034a1.791,1.791,0,0,1-1.731.988,2.027,2.027,0,0,1-1.618-.765,2.979,2.979,0,0,1-.643-1.984,3.123,3.123,0,0,1,.7-2.119,2.149,2.149,0,0,1,1.664-.755,1.615,1.615,0,0,1,1.518.732h.023v-3.094h1.2v6.411Q388.145,338.252,388.187,338.918Zm-1.241-2.273v-.9a1.758,1.758,0,0,0-.034-.377,1.364,1.364,0,0,0-.433-.726,1.178,1.178,0,0,0-.8-.294,1.23,1.23,0,0,0-1.054.532,2.284,2.284,0,0,0-.384,1.364,2.127,2.127,0,0,0,.368,1.3,1.233,1.233,0,0,0,1.047.532,1.155,1.155,0,0,0,.947-.443A1.479,1.479,0,0,0,386.946,336.645Z" transform="translate(-283.157 -323.004)"/><path class="a" d="M401.807,336.966a2.957,2.957,0,0,1-.71,2.041,2.532,2.532,0,0,1-1.975.821,2.412,2.412,0,0,1-1.891-.787,2.871,2.871,0,0,1-.7-1.985,2.929,2.929,0,0,1,.726-2.051,2.518,2.518,0,0,1,1.959-.8,2.46,2.46,0,0,1,1.906.787A2.845,2.845,0,0,1,401.807,336.966Zm-1.242.039a2.438,2.438,0,0,0-.321-1.279,1.186,1.186,0,0,0-1.076-.645,1.205,1.205,0,0,0-1.1.645,2.468,2.468,0,0,0-.321,1.3,2.439,2.439,0,0,0,.321,1.279,1.21,1.21,0,0,0,1.087.645,1.2,1.2,0,0,0,1.076-.656A2.43,2.43,0,0,0,400.565,337.005Z" transform="translate(-286.529 -323.791)"/><path class="a" d="M410.583,339.7h-1.2v-3.087q0-1.428-1.087-1.427a1.079,1.079,0,0,0-.865.392,1.389,1.389,0,0,0-.332.924v3.2h-1.2v-3.848q0-.71-.042-1.543h1.052l.056.843H407a1.749,1.749,0,0,1,.62-.651,2.033,2.033,0,0,1,1.087-.3,1.722,1.722,0,0,1,1.253.488,2.37,2.37,0,0,1,.621,1.786Z" transform="translate(-288.861 -323.79)"/><path class="a" d="M421.815,334.8h-1.32v2.618c0,.665.235,1,.7,1a2.086,2.086,0,0,0,.534-.056l.031.909a2.689,2.689,0,0,1-.931.134,1.43,1.43,0,0,1-1.108-.433,2.111,2.111,0,0,1-.4-1.453V334.8h-.787v-.9h.787v-.988l1.175-.354V333.9h1.319v.9Z" transform="translate(-292.03 -323.381)"/><path class="a" d="M429.807,338.918h-1.2v-3.064q0-1.449-1.085-1.45a1.143,1.143,0,0,0-1.143.841,1.484,1.484,0,0,0-.056.43v3.242h-1.2v-7.861h1.2V334.3h.023a1.812,1.812,0,0,1,1.619-.886,1.672,1.672,0,0,1,1.233.488,2.458,2.458,0,0,1,.609,1.808Z" transform="translate(-293.678 -323.004)"/><path class="a" d="M438.495,336.753a2.906,2.906,0,0,1-.044.543h-3.594a1.569,1.569,0,0,0,.52,1.219,1.781,1.781,0,0,0,1.176.377,3.956,3.956,0,0,0,1.454-.255l.188.833a4.507,4.507,0,0,1-1.809.333,2.612,2.612,0,0,1-1.967-.737,2.716,2.716,0,0,1-.715-1.979,3.084,3.084,0,0,1,.665-2.029,2.291,2.291,0,0,1,1.884-.865,2,2,0,0,1,1.762.865A2.879,2.879,0,0,1,438.495,336.753Zm-1.144-.31a1.611,1.611,0,0,0-.232-.92,1.047,1.047,0,0,0-.953-.5,1.137,1.137,0,0,0-.954.488,1.817,1.817,0,0,0-.355.932Z" transform="translate(-295.822 -323.788)"/></g></symbol><symbol id="app-ios-grey" viewBox="0 0 162 48"><g transform="translate(0 0)"><path class="a" d="M405.862,321.28a5.039,5.039,0,0,1,5.04,5.04v36a5.039,5.039,0,0,1-5.04,5.04h-150a5.041,5.041,0,0,1-5.04-5.04v-36a5.041,5.041,0,0,1,5.04-5.04Zm0-.96h-150a6,6,0,0,0-6,6v36a6,6,0,0,0,6,6h150a6,6,0,0,0,6-6v-36a6,6,0,0,0-6-6Z" transform="translate(-249.862 -320.32)"/><path class="a" d="M294.636,348.4a6.627,6.627,0,0,1,3.157-5.561,6.786,6.786,0,0,0-5.346-2.89c-2.249-.237-4.431,1.345-5.576,1.345-1.169,0-2.933-1.323-4.834-1.284a7.118,7.118,0,0,0-5.991,3.654c-2.591,4.486-.658,11.077,1.823,14.7,1.242,1.775,2.693,3.758,4.592,3.688,1.858-.077,2.552-1.185,4.794-1.185,2.222,0,2.873,1.185,4.81,1.14,1.994-.032,3.25-1.784,4.448-3.575a14.688,14.688,0,0,0,2.034-4.142A6.405,6.405,0,0,1,294.636,348.4Z" transform="translate(-256.1 -325.22)"/><path class="a" d="M294.908,335.214a6.526,6.526,0,0,0,1.493-4.676,6.641,6.641,0,0,0-4.3,2.223,6.206,6.206,0,0,0-1.532,4.5A5.49,5.49,0,0,0,294.908,335.214Z" transform="translate(-260.031 -322.875)"/><path class="a" d="M332.812,364.016h-2.6l-1.423-4.47h-4.943l-1.355,4.47h-2.528l4.9-15.216h3.026Zm-4.448-6.345-1.286-3.973q-.2-.61-.767-2.866h-.046q-.225.971-.723,2.866l-1.263,3.973Z" transform="translate(-267.388 -327.44)"/><path class="a" d="M350.367,359.734a6.239,6.239,0,0,1-1.513,4.424,4.424,4.424,0,0,1-3.364,1.445,3.364,3.364,0,0,1-3.116-1.557h-.046v5.779h-2.437V358q0-1.761-.091-3.612h2.144l.136,1.739h.046a4.337,4.337,0,0,1,6.941-.43A6.048,6.048,0,0,1,350.367,359.734Zm-2.484.089a4.516,4.516,0,0,0-.722-2.641,2.5,2.5,0,0,0-2.122-1.084,2.536,2.536,0,0,0-1.636.6,2.774,2.774,0,0,0-.959,1.57,3.215,3.215,0,0,0-.113.743v1.829a2.929,2.929,0,0,0,.734,2.021,2.433,2.433,0,0,0,1.907.824,2.5,2.5,0,0,0,2.144-1.06A4.671,4.671,0,0,0,347.883,359.824Z" transform="translate(-272.347 -328.78)"/><path class="a" d="M367.193,359.734a6.233,6.233,0,0,1-1.514,4.424,4.418,4.418,0,0,1-3.362,1.445,3.361,3.361,0,0,1-3.115-1.557h-.046v5.779h-2.437V358q0-1.761-.091-3.612h2.144l.136,1.739h.046a4.339,4.339,0,0,1,6.943-.43A6.062,6.062,0,0,1,367.193,359.734Zm-2.484.089a4.51,4.51,0,0,0-.724-2.641,2.49,2.49,0,0,0-2.12-1.084,2.54,2.54,0,0,0-1.638.6,2.772,2.772,0,0,0-.958,1.57,3.259,3.259,0,0,0-.113.743v1.829a2.938,2.938,0,0,0,.732,2.021,2.437,2.437,0,0,0,1.909.824,2.5,2.5,0,0,0,2.144-1.06A4.672,4.672,0,0,0,364.709,359.824Z" transform="translate(-276.553 -328.78)"/><path class="a" d="M386.38,359.674a4.055,4.055,0,0,1-1.351,3.16,5.988,5.988,0,0,1-4.145,1.332,7.256,7.256,0,0,1-3.943-.948l.565-2.032a6.683,6.683,0,0,0,3.524.972,3.332,3.332,0,0,0,2.146-.622,2.032,2.032,0,0,0,.766-1.663,2.117,2.117,0,0,0-.632-1.559,5.867,5.867,0,0,0-2.1-1.177q-4-1.491-3.994-4.363a3.862,3.862,0,0,1,1.4-3.075,5.525,5.525,0,0,1,3.725-1.2,7.384,7.384,0,0,1,3.453.722l-.61,1.988a5.989,5.989,0,0,0-2.912-.7,2.946,2.946,0,0,0-2.008.632,1.8,1.8,0,0,0-.61,1.378,1.858,1.858,0,0,0,.7,1.49,7.911,7.911,0,0,0,2.214,1.174,7.5,7.5,0,0,1,2.889,1.85A3.864,3.864,0,0,1,386.38,359.674Z" transform="translate(-281.632 -327.366)"/><path class="a" d="M398.046,355.377h-2.687V360.7q0,2.033,1.422,2.033a4.356,4.356,0,0,0,1.083-.113l.068,1.851a5.533,5.533,0,0,1-1.9.27,2.925,2.925,0,0,1-2.258-.88,4.326,4.326,0,0,1-.813-2.958v-5.531h-1.6v-1.829h1.6v-2.009l2.395-.722v2.732h2.687Z" transform="translate(-285.238 -327.944)"/><path class="a" d="M412.855,359.78a6.015,6.015,0,0,1-1.445,4.154,5.159,5.159,0,0,1-4.02,1.671,4.907,4.907,0,0,1-3.847-1.6,5.835,5.835,0,0,1-1.433-4.041,5.958,5.958,0,0,1,1.478-4.175,5.116,5.116,0,0,1,3.983-1.626,5.01,5.01,0,0,1,3.883,1.6A5.768,5.768,0,0,1,412.855,359.78Zm-2.529.079a4.934,4.934,0,0,0-.654-2.6,2.408,2.408,0,0,0-2.189-1.312,2.444,2.444,0,0,0-2.235,1.313,5.028,5.028,0,0,0-.654,2.649,4.929,4.929,0,0,0,.654,2.6,2.491,2.491,0,0,0,4.4-.023A4.952,4.952,0,0,0,410.326,359.858Z" transform="translate(-287.924 -328.78)"/><path class="a" d="M425.045,356.527a4.272,4.272,0,0,0-.769-.068,2.3,2.3,0,0,0-1.987.972,3.654,3.654,0,0,0-.61,2.167v5.757h-2.437l.023-7.517q0-1.9-.091-3.454H421.3l.089,2.1h.067a3.752,3.752,0,0,1,1.219-1.738,2.947,2.947,0,0,1,1.762-.588,3.929,3.929,0,0,1,.61.045Z" transform="translate(-292.19 -328.78)"/><path class="a" d="M438.288,359.344a5.708,5.708,0,0,1-.089,1.106h-7.313a3.181,3.181,0,0,0,1.061,2.485,3.624,3.624,0,0,0,2.392.767,8.082,8.082,0,0,0,2.959-.519l.383,1.692a9.148,9.148,0,0,1-3.679.678,5.329,5.329,0,0,1-4.009-1.5,5.545,5.545,0,0,1-1.455-4.029,6.285,6.285,0,0,1,1.356-4.131,4.672,4.672,0,0,1,3.836-1.759,4.089,4.089,0,0,1,3.591,1.759A5.936,5.936,0,0,1,438.288,359.344Zm-2.325-.632a3.307,3.307,0,0,0-.473-1.874,2.129,2.129,0,0,0-1.943-1.016,2.313,2.313,0,0,0-1.94.994,3.64,3.64,0,0,0-.721,1.9h5.077Z" transform="translate(-294.531 -328.773)"/><path class="a" d="M328.041,335.114a3.753,3.753,0,0,1-1.21,3.039,4.81,4.81,0,0,1-3.182.942,14.627,14.627,0,0,1-1.753-.089v-7.353a12.944,12.944,0,0,1,2.063-.155,4.45,4.45,0,0,1,2.962.854A3.45,3.45,0,0,1,328.041,335.114Zm-1.263.033a2.436,2.436,0,0,0-2.718-2.706,5.089,5.089,0,0,0-.965.077v5.591a6.421,6.421,0,0,0,.81.033,2.835,2.835,0,0,0,2.123-.765A3.066,3.066,0,0,0,326.778,335.147Z" transform="translate(-267.871 -323.114)"/><path class="a" d="M337.262,336.966a2.957,2.957,0,0,1-.71,2.041,2.533,2.533,0,0,1-1.975.821,2.408,2.408,0,0,1-1.891-.787,2.867,2.867,0,0,1-.7-1.985,2.929,2.929,0,0,1,.726-2.051,2.517,2.517,0,0,1,1.957-.8,2.464,2.464,0,0,1,1.908.787A2.845,2.845,0,0,1,337.262,336.966Zm-1.244.039a2.438,2.438,0,0,0-.321-1.279,1.184,1.184,0,0,0-1.075-.645,1.2,1.2,0,0,0-1.1.645,2.468,2.468,0,0,0-.321,1.3,2.439,2.439,0,0,0,.321,1.279,1.21,1.21,0,0,0,1.088.645,1.2,1.2,0,0,0,1.075-.656A2.422,2.422,0,0,0,336.019,337.005Z" transform="translate(-270.392 -323.791)"/><path class="a" d="M348.4,334.352l-1.687,5.39h-1.1l-.7-2.341a17.485,17.485,0,0,1-.433-1.742h-.022a12.767,12.767,0,0,1-.433,1.742l-.742,2.341h-1.11l-1.585-5.39h1.231l.609,2.563c.148.606.269,1.183.366,1.729h.022c.089-.45.237-1.024.445-1.718l.765-2.573H345l.733,2.518q.266.92.432,1.774h.033a17.178,17.178,0,0,1,.366-1.774l.654-2.518H348.4Z" transform="translate(-272.543 -323.828)"/><path class="a" d="M357.705,339.7h-1.2v-3.087q0-1.428-1.086-1.427a1.081,1.081,0,0,0-.866.392,1.393,1.393,0,0,0-.333.924v3.2h-1.2v-3.848q0-.71-.044-1.543h1.053l.056.843h.033a1.734,1.734,0,0,1,.621-.651,2.026,2.026,0,0,1,1.086-.3,1.72,1.72,0,0,1,1.254.488,2.373,2.373,0,0,1,.621,1.786Z" transform="translate(-275.642 -323.79)"/><path class="a" d="M363.287,338.918h-1.2v-7.863h1.2Z" transform="translate(-277.919 -323.004)"/><path class="a" d="M371.332,336.966a2.957,2.957,0,0,1-.71,2.041,2.533,2.533,0,0,1-1.975.821,2.4,2.4,0,0,1-1.891-.787,2.871,2.871,0,0,1-.7-1.985,2.929,2.929,0,0,1,.726-2.051,2.519,2.519,0,0,1,1.957-.8,2.468,2.468,0,0,1,1.909.787A2.845,2.845,0,0,1,371.332,336.966Zm-1.244.039a2.438,2.438,0,0,0-.321-1.279,1.183,1.183,0,0,0-1.074-.645,1.2,1.2,0,0,0-1.1.645,2.474,2.474,0,0,0-.321,1.3,2.439,2.439,0,0,0,.321,1.279,1.21,1.21,0,0,0,1.088.645,1.2,1.2,0,0,0,1.074-.656A2.416,2.416,0,0,0,370.088,337.005Z" transform="translate(-278.91 -323.791)"/><path class="a" d="M379.349,339.706h-1.076l-.089-.621h-.034a1.845,1.845,0,0,1-1.574.743,1.625,1.625,0,0,1-1.23-.488,1.532,1.532,0,0,1-.422-1.1,1.674,1.674,0,0,1,.827-1.508,4.287,4.287,0,0,1,2.325-.51v-.1q0-1.065-1.12-1.065a2.508,2.508,0,0,0-1.4.4l-.244-.787a3.457,3.457,0,0,1,1.849-.465q2.113,0,2.115,2.23v1.984A8.38,8.38,0,0,0,379.349,339.706Zm-1.244-1.852v-.831q-1.982-.035-1.982,1.086a.813.813,0,0,0,.229.632.837.837,0,0,0,.586.211,1.21,1.21,0,0,0,.733-.25,1.023,1.023,0,0,0,.434-.848Z" transform="translate(-281.128 -323.791)"/><path class="a" d="M388.187,338.918h-1.063l-.056-.865h-.034a1.791,1.791,0,0,1-1.731.988,2.027,2.027,0,0,1-1.618-.765,2.979,2.979,0,0,1-.643-1.984,3.123,3.123,0,0,1,.7-2.119,2.149,2.149,0,0,1,1.664-.755,1.615,1.615,0,0,1,1.518.732h.023v-3.094h1.2v6.411Q388.145,338.252,388.187,338.918Zm-1.241-2.273v-.9a1.758,1.758,0,0,0-.034-.377,1.364,1.364,0,0,0-.433-.726,1.178,1.178,0,0,0-.8-.294,1.23,1.23,0,0,0-1.054.532,2.284,2.284,0,0,0-.384,1.364,2.127,2.127,0,0,0,.368,1.3,1.233,1.233,0,0,0,1.047.532,1.155,1.155,0,0,0,.947-.443A1.479,1.479,0,0,0,386.946,336.645Z" transform="translate(-283.157 -323.004)"/><path class="a" d="M401.807,336.966a2.957,2.957,0,0,1-.71,2.041,2.532,2.532,0,0,1-1.975.821,2.412,2.412,0,0,1-1.891-.787,2.871,2.871,0,0,1-.7-1.985,2.929,2.929,0,0,1,.726-2.051,2.518,2.518,0,0,1,1.959-.8,2.46,2.46,0,0,1,1.906.787A2.845,2.845,0,0,1,401.807,336.966Zm-1.242.039a2.438,2.438,0,0,0-.321-1.279,1.186,1.186,0,0,0-1.076-.645,1.205,1.205,0,0,0-1.1.645,2.468,2.468,0,0,0-.321,1.3,2.439,2.439,0,0,0,.321,1.279,1.21,1.21,0,0,0,1.087.645,1.2,1.2,0,0,0,1.076-.656A2.43,2.43,0,0,0,400.565,337.005Z" transform="translate(-286.529 -323.791)"/><path class="a" d="M410.583,339.7h-1.2v-3.087q0-1.428-1.087-1.427a1.079,1.079,0,0,0-.865.392,1.389,1.389,0,0,0-.332.924v3.2h-1.2v-3.848q0-.71-.042-1.543h1.052l.056.843H407a1.749,1.749,0,0,1,.62-.651,2.033,2.033,0,0,1,1.087-.3,1.722,1.722,0,0,1,1.253.488,2.37,2.37,0,0,1,.621,1.786Z" transform="translate(-288.861 -323.79)"/><path class="a" d="M421.815,334.8h-1.32v2.618c0,.665.235,1,.7,1a2.086,2.086,0,0,0,.534-.056l.031.909a2.689,2.689,0,0,1-.931.134,1.43,1.43,0,0,1-1.108-.433,2.111,2.111,0,0,1-.4-1.453V334.8h-.787v-.9h.787v-.988l1.175-.354V333.9h1.319v.9Z" transform="translate(-292.03 -323.381)"/><path class="a" d="M429.807,338.918h-1.2v-3.064q0-1.449-1.085-1.45a1.143,1.143,0,0,0-1.143.841,1.484,1.484,0,0,0-.056.43v3.242h-1.2v-7.861h1.2V334.3h.023a1.812,1.812,0,0,1,1.619-.886,1.672,1.672,0,0,1,1.233.488,2.458,2.458,0,0,1,.609,1.808Z" transform="translate(-293.678 -323.004)"/><path class="a" d="M438.495,336.753a2.906,2.906,0,0,1-.044.543h-3.594a1.569,1.569,0,0,0,.52,1.219,1.781,1.781,0,0,0,1.176.377,3.956,3.956,0,0,0,1.454-.255l.188.833a4.507,4.507,0,0,1-1.809.333,2.612,2.612,0,0,1-1.967-.737,2.716,2.716,0,0,1-.715-1.979,3.084,3.084,0,0,1,.665-2.029,2.291,2.291,0,0,1,1.884-.865,2,2,0,0,1,1.762.865A2.879,2.879,0,0,1,438.495,336.753Zm-1.144-.31a1.611,1.611,0,0,0-.232-.92,1.047,1.047,0,0,0-.953-.5,1.137,1.137,0,0,0-.954.488,1.817,1.817,0,0,0-.355.932Z" transform="translate(-295.822 -323.788)"/></g></symbol><symbol id="app-ios" viewBox="0 0 162 48"><g transform="translate(0 0)"><path class="a" d="M405.862,321.28a5.039,5.039,0,0,1,5.04,5.04v36a5.039,5.039,0,0,1-5.04,5.04h-150a5.041,5.041,0,0,1-5.04-5.04v-36a5.041,5.041,0,0,1,5.04-5.04Zm0-.96h-150a6,6,0,0,0-6,6v36a6,6,0,0,0,6,6h150a6,6,0,0,0,6-6v-36a6,6,0,0,0-6-6Z" transform="translate(-249.862 -320.32)"/><path class="a" d="M294.636,348.4a6.627,6.627,0,0,1,3.157-5.561,6.786,6.786,0,0,0-5.346-2.89c-2.249-.237-4.431,1.345-5.576,1.345-1.169,0-2.933-1.323-4.834-1.284a7.118,7.118,0,0,0-5.991,3.654c-2.591,4.486-.658,11.077,1.823,14.7,1.242,1.775,2.693,3.758,4.592,3.688,1.858-.077,2.552-1.185,4.794-1.185,2.222,0,2.873,1.185,4.81,1.14,1.994-.032,3.25-1.784,4.448-3.575a14.688,14.688,0,0,0,2.034-4.142A6.405,6.405,0,0,1,294.636,348.4Z" transform="translate(-256.1 -325.22)"/><path class="a" d="M294.908,335.214a6.526,6.526,0,0,0,1.493-4.676,6.641,6.641,0,0,0-4.3,2.223,6.206,6.206,0,0,0-1.532,4.5A5.49,5.49,0,0,0,294.908,335.214Z" transform="translate(-260.031 -322.875)"/><path class="a" d="M332.812,364.016h-2.6l-1.423-4.47h-4.943l-1.355,4.47h-2.528l4.9-15.216h3.026Zm-4.448-6.345-1.286-3.973q-.2-.61-.767-2.866h-.046q-.225.971-.723,2.866l-1.263,3.973Z" transform="translate(-267.388 -327.44)"/><path class="a" d="M350.367,359.734a6.239,6.239,0,0,1-1.513,4.424,4.424,4.424,0,0,1-3.364,1.445,3.364,3.364,0,0,1-3.116-1.557h-.046v5.779h-2.437V358q0-1.761-.091-3.612h2.144l.136,1.739h.046a4.337,4.337,0,0,1,6.941-.43A6.048,6.048,0,0,1,350.367,359.734Zm-2.484.089a4.516,4.516,0,0,0-.722-2.641,2.5,2.5,0,0,0-2.122-1.084,2.536,2.536,0,0,0-1.636.6,2.774,2.774,0,0,0-.959,1.57,3.215,3.215,0,0,0-.113.743v1.829a2.929,2.929,0,0,0,.734,2.021,2.433,2.433,0,0,0,1.907.824,2.5,2.5,0,0,0,2.144-1.06A4.671,4.671,0,0,0,347.883,359.824Z" transform="translate(-272.347 -328.78)"/><path class="a" d="M367.193,359.734a6.233,6.233,0,0,1-1.514,4.424,4.418,4.418,0,0,1-3.362,1.445,3.361,3.361,0,0,1-3.115-1.557h-.046v5.779h-2.437V358q0-1.761-.091-3.612h2.144l.136,1.739h.046a4.339,4.339,0,0,1,6.943-.43A6.062,6.062,0,0,1,367.193,359.734Zm-2.484.089a4.51,4.51,0,0,0-.724-2.641,2.49,2.49,0,0,0-2.12-1.084,2.54,2.54,0,0,0-1.638.6,2.772,2.772,0,0,0-.958,1.57,3.259,3.259,0,0,0-.113.743v1.829a2.938,2.938,0,0,0,.732,2.021,2.437,2.437,0,0,0,1.909.824,2.5,2.5,0,0,0,2.144-1.06A4.672,4.672,0,0,0,364.709,359.824Z" transform="translate(-276.553 -328.78)"/><path class="a" d="M386.38,359.674a4.055,4.055,0,0,1-1.351,3.16,5.988,5.988,0,0,1-4.145,1.332,7.256,7.256,0,0,1-3.943-.948l.565-2.032a6.683,6.683,0,0,0,3.524.972,3.332,3.332,0,0,0,2.146-.622,2.032,2.032,0,0,0,.766-1.663,2.117,2.117,0,0,0-.632-1.559,5.867,5.867,0,0,0-2.1-1.177q-4-1.491-3.994-4.363a3.862,3.862,0,0,1,1.4-3.075,5.525,5.525,0,0,1,3.725-1.2,7.384,7.384,0,0,1,3.453.722l-.61,1.988a5.989,5.989,0,0,0-2.912-.7,2.946,2.946,0,0,0-2.008.632,1.8,1.8,0,0,0-.61,1.378,1.858,1.858,0,0,0,.7,1.49,7.911,7.911,0,0,0,2.214,1.174,7.5,7.5,0,0,1,2.889,1.85A3.864,3.864,0,0,1,386.38,359.674Z" transform="translate(-281.632 -327.366)"/><path class="a" d="M398.046,355.377h-2.687V360.7q0,2.033,1.422,2.033a4.356,4.356,0,0,0,1.083-.113l.068,1.851a5.533,5.533,0,0,1-1.9.27,2.925,2.925,0,0,1-2.258-.88,4.326,4.326,0,0,1-.813-2.958v-5.531h-1.6v-1.829h1.6v-2.009l2.395-.722v2.732h2.687Z" transform="translate(-285.238 -327.944)"/><path class="a" d="M412.855,359.78a6.015,6.015,0,0,1-1.445,4.154,5.159,5.159,0,0,1-4.02,1.671,4.907,4.907,0,0,1-3.847-1.6,5.835,5.835,0,0,1-1.433-4.041,5.958,5.958,0,0,1,1.478-4.175,5.116,5.116,0,0,1,3.983-1.626,5.01,5.01,0,0,1,3.883,1.6A5.768,5.768,0,0,1,412.855,359.78Zm-2.529.079a4.934,4.934,0,0,0-.654-2.6,2.408,2.408,0,0,0-2.189-1.312,2.444,2.444,0,0,0-2.235,1.313,5.028,5.028,0,0,0-.654,2.649,4.929,4.929,0,0,0,.654,2.6,2.491,2.491,0,0,0,4.4-.023A4.952,4.952,0,0,0,410.326,359.858Z" transform="translate(-287.924 -328.78)"/><path class="a" d="M425.045,356.527a4.272,4.272,0,0,0-.769-.068,2.3,2.3,0,0,0-1.987.972,3.654,3.654,0,0,0-.61,2.167v5.757h-2.437l.023-7.517q0-1.9-.091-3.454H421.3l.089,2.1h.067a3.752,3.752,0,0,1,1.219-1.738,2.947,2.947,0,0,1,1.762-.588,3.929,3.929,0,0,1,.61.045Z" transform="translate(-292.19 -328.78)"/><path class="a" d="M438.288,359.344a5.708,5.708,0,0,1-.089,1.106h-7.313a3.181,3.181,0,0,0,1.061,2.485,3.624,3.624,0,0,0,2.392.767,8.082,8.082,0,0,0,2.959-.519l.383,1.692a9.148,9.148,0,0,1-3.679.678,5.329,5.329,0,0,1-4.009-1.5,5.545,5.545,0,0,1-1.455-4.029,6.285,6.285,0,0,1,1.356-4.131,4.672,4.672,0,0,1,3.836-1.759,4.089,4.089,0,0,1,3.591,1.759A5.936,5.936,0,0,1,438.288,359.344Zm-2.325-.632a3.307,3.307,0,0,0-.473-1.874,2.129,2.129,0,0,0-1.943-1.016,2.313,2.313,0,0,0-1.94.994,3.64,3.64,0,0,0-.721,1.9h5.077Z" transform="translate(-294.531 -328.773)"/><path class="a" d="M328.041,335.114a3.753,3.753,0,0,1-1.21,3.039,4.81,4.81,0,0,1-3.182.942,14.627,14.627,0,0,1-1.753-.089v-7.353a12.944,12.944,0,0,1,2.063-.155,4.45,4.45,0,0,1,2.962.854A3.45,3.45,0,0,1,328.041,335.114Zm-1.263.033a2.436,2.436,0,0,0-2.718-2.706,5.089,5.089,0,0,0-.965.077v5.591a6.421,6.421,0,0,0,.81.033,2.835,2.835,0,0,0,2.123-.765A3.066,3.066,0,0,0,326.778,335.147Z" transform="translate(-267.871 -323.114)"/><path class="a" d="M337.262,336.966a2.957,2.957,0,0,1-.71,2.041,2.533,2.533,0,0,1-1.975.821,2.408,2.408,0,0,1-1.891-.787,2.867,2.867,0,0,1-.7-1.985,2.929,2.929,0,0,1,.726-2.051,2.517,2.517,0,0,1,1.957-.8,2.464,2.464,0,0,1,1.908.787A2.845,2.845,0,0,1,337.262,336.966Zm-1.244.039a2.438,2.438,0,0,0-.321-1.279,1.184,1.184,0,0,0-1.075-.645,1.2,1.2,0,0,0-1.1.645,2.468,2.468,0,0,0-.321,1.3,2.439,2.439,0,0,0,.321,1.279,1.21,1.21,0,0,0,1.088.645,1.2,1.2,0,0,0,1.075-.656A2.422,2.422,0,0,0,336.019,337.005Z" transform="translate(-270.392 -323.791)"/><path class="a" d="M348.4,334.352l-1.687,5.39h-1.1l-.7-2.341a17.485,17.485,0,0,1-.433-1.742h-.022a12.767,12.767,0,0,1-.433,1.742l-.742,2.341h-1.11l-1.585-5.39h1.231l.609,2.563c.148.606.269,1.183.366,1.729h.022c.089-.45.237-1.024.445-1.718l.765-2.573H345l.733,2.518q.266.92.432,1.774h.033a17.178,17.178,0,0,1,.366-1.774l.654-2.518H348.4Z" transform="translate(-272.543 -323.828)"/><path class="a" d="M357.705,339.7h-1.2v-3.087q0-1.428-1.086-1.427a1.081,1.081,0,0,0-.866.392,1.393,1.393,0,0,0-.333.924v3.2h-1.2v-3.848q0-.71-.044-1.543h1.053l.056.843h.033a1.734,1.734,0,0,1,.621-.651,2.026,2.026,0,0,1,1.086-.3,1.72,1.72,0,0,1,1.254.488,2.373,2.373,0,0,1,.621,1.786Z" transform="translate(-275.642 -323.79)"/><path class="a" d="M363.287,338.918h-1.2v-7.863h1.2Z" transform="translate(-277.919 -323.004)"/><path class="a" d="M371.332,336.966a2.957,2.957,0,0,1-.71,2.041,2.533,2.533,0,0,1-1.975.821,2.4,2.4,0,0,1-1.891-.787,2.871,2.871,0,0,1-.7-1.985,2.929,2.929,0,0,1,.726-2.051,2.519,2.519,0,0,1,1.957-.8,2.468,2.468,0,0,1,1.909.787A2.845,2.845,0,0,1,371.332,336.966Zm-1.244.039a2.438,2.438,0,0,0-.321-1.279,1.183,1.183,0,0,0-1.074-.645,1.2,1.2,0,0,0-1.1.645,2.474,2.474,0,0,0-.321,1.3,2.439,2.439,0,0,0,.321,1.279,1.21,1.21,0,0,0,1.088.645,1.2,1.2,0,0,0,1.074-.656A2.416,2.416,0,0,0,370.088,337.005Z" transform="translate(-278.91 -323.791)"/><path class="a" d="M379.349,339.706h-1.076l-.089-.621h-.034a1.845,1.845,0,0,1-1.574.743,1.625,1.625,0,0,1-1.23-.488,1.532,1.532,0,0,1-.422-1.1,1.674,1.674,0,0,1,.827-1.508,4.287,4.287,0,0,1,2.325-.51v-.1q0-1.065-1.12-1.065a2.508,2.508,0,0,0-1.4.4l-.244-.787a3.457,3.457,0,0,1,1.849-.465q2.113,0,2.115,2.23v1.984A8.38,8.38,0,0,0,379.349,339.706Zm-1.244-1.852v-.831q-1.982-.035-1.982,1.086a.813.813,0,0,0,.229.632.837.837,0,0,0,.586.211,1.21,1.21,0,0,0,.733-.25,1.023,1.023,0,0,0,.434-.848Z" transform="translate(-281.128 -323.791)"/><path class="a" d="M388.187,338.918h-1.063l-.056-.865h-.034a1.791,1.791,0,0,1-1.731.988,2.027,2.027,0,0,1-1.618-.765,2.979,2.979,0,0,1-.643-1.984,3.123,3.123,0,0,1,.7-2.119,2.149,2.149,0,0,1,1.664-.755,1.615,1.615,0,0,1,1.518.732h.023v-3.094h1.2v6.411Q388.145,338.252,388.187,338.918Zm-1.241-2.273v-.9a1.758,1.758,0,0,0-.034-.377,1.364,1.364,0,0,0-.433-.726,1.178,1.178,0,0,0-.8-.294,1.23,1.23,0,0,0-1.054.532,2.284,2.284,0,0,0-.384,1.364,2.127,2.127,0,0,0,.368,1.3,1.233,1.233,0,0,0,1.047.532,1.155,1.155,0,0,0,.947-.443A1.479,1.479,0,0,0,386.946,336.645Z" transform="translate(-283.157 -323.004)"/><path class="a" d="M401.807,336.966a2.957,2.957,0,0,1-.71,2.041,2.532,2.532,0,0,1-1.975.821,2.412,2.412,0,0,1-1.891-.787,2.871,2.871,0,0,1-.7-1.985,2.929,2.929,0,0,1,.726-2.051,2.518,2.518,0,0,1,1.959-.8,2.46,2.46,0,0,1,1.906.787A2.845,2.845,0,0,1,401.807,336.966Zm-1.242.039a2.438,2.438,0,0,0-.321-1.279,1.186,1.186,0,0,0-1.076-.645,1.205,1.205,0,0,0-1.1.645,2.468,2.468,0,0,0-.321,1.3,2.439,2.439,0,0,0,.321,1.279,1.21,1.21,0,0,0,1.087.645,1.2,1.2,0,0,0,1.076-.656A2.43,2.43,0,0,0,400.565,337.005Z" transform="translate(-286.529 -323.791)"/><path class="a" d="M410.583,339.7h-1.2v-3.087q0-1.428-1.087-1.427a1.079,1.079,0,0,0-.865.392,1.389,1.389,0,0,0-.332.924v3.2h-1.2v-3.848q0-.71-.042-1.543h1.052l.056.843H407a1.749,1.749,0,0,1,.62-.651,2.033,2.033,0,0,1,1.087-.3,1.722,1.722,0,0,1,1.253.488,2.37,2.37,0,0,1,.621,1.786Z" transform="translate(-288.861 -323.79)"/><path class="a" d="M421.815,334.8h-1.32v2.618c0,.665.235,1,.7,1a2.086,2.086,0,0,0,.534-.056l.031.909a2.689,2.689,0,0,1-.931.134,1.43,1.43,0,0,1-1.108-.433,2.111,2.111,0,0,1-.4-1.453V334.8h-.787v-.9h.787v-.988l1.175-.354V333.9h1.319v.9Z" transform="translate(-292.03 -323.381)"/><path class="a" d="M429.807,338.918h-1.2v-3.064q0-1.449-1.085-1.45a1.143,1.143,0,0,0-1.143.841,1.484,1.484,0,0,0-.056.43v3.242h-1.2v-7.861h1.2V334.3h.023a1.812,1.812,0,0,1,1.619-.886,1.672,1.672,0,0,1,1.233.488,2.458,2.458,0,0,1,.609,1.808Z" transform="translate(-293.678 -323.004)"/><path class="a" d="M438.495,336.753a2.906,2.906,0,0,1-.044.543h-3.594a1.569,1.569,0,0,0,.52,1.219,1.781,1.781,0,0,0,1.176.377,3.956,3.956,0,0,0,1.454-.255l.188.833a4.507,4.507,0,0,1-1.809.333,2.612,2.612,0,0,1-1.967-.737,2.716,2.716,0,0,1-.715-1.979,3.084,3.084,0,0,1,.665-2.029,2.291,2.291,0,0,1,1.884-.865,2,2,0,0,1,1.762.865A2.879,2.879,0,0,1,438.495,336.753Zm-1.144-.31a1.611,1.611,0,0,0-.232-.92,1.047,1.047,0,0,0-.953-.5,1.137,1.137,0,0,0-.954.488,1.817,1.817,0,0,0-.355.932Z" transform="translate(-295.822 -323.788)"/></g></symbol><symbol id="arrow-big" viewBox="0 0 24 24"><g transform="translate(-326.602 -307.58)"><path class="a" d="M348.042,324.989l-9.44-9.44-9.439,9.44-.92-.92L338.6,313.711l10.36,10.358Z"/></g><rect class="b" width="24" height="24"/></symbol><symbol id="arrow-down" viewBox="0 0 16 16"><g transform="translate(0 16) rotate(-90)"><rect class="a" width="16" height="16"/><g transform="translate(3.333 0)"><path class="b" d="M8,16,0,8,8,0,9.407,1.407,2.814,8l6.593,6.593Z"/></g></g></symbol><symbol id="arrow-right-blue" viewBox="0 0 45.642 26.87"><path class="a" d="M26.87,13.435,13.435,0,0,13.435l1.414,1.414L12.435,3.828V45.642h2V3.828L25.456,14.849Z" transform="translate(45.642) rotate(90)"/></symbol><symbol id="arrow-right-disabled" viewBox="0 0 45.642 26.87"><path class="a" d="M26.87,13.435,13.435,0,0,13.435l1.414,1.414L12.435,3.828V45.642h2V3.828L25.456,14.849Z" transform="translate(45.642) rotate(90)"/></symbol><symbol id="arrow-right" viewBox="0 0 45.642 26.87"><path class="a" d="M26.87,13.435,13.435,0,0,13.435l1.414,1.414L12.435,3.828V45.642h2V3.828L25.456,14.849Z" transform="translate(45.642) rotate(90)"/></symbol><symbol id="checked-white" viewBox="0 0 24 24"><g transform="translate(-326.602 -253.008)"><path class="a" d="M335.307,271.584l-5.3-5.461.934-.9,4.383,4.518,10.947-10.845.914.924Z"/></g><rect class="b" width="24" height="24"/></symbol><symbol id="checked" viewBox="0 0 24 24"><g transform="translate(-326.602 -253.008)"><path class="a" d="M335.307,271.584l-5.3-5.461.934-.9,4.383,4.518,10.947-10.845.914.924Z"/></g><rect class="b" width="24" height="24"/></symbol><symbol id="close" viewBox="0 0 24 24">
<path d="M8 8L16 16" stroke="currentColor" stroke-width="1.5" stroke-linecap="round" stroke-linejoin="round" fill="none"/>
<path d="M16 8L8 16" stroke="currentColor" stroke-width="1.5" stroke-linecap="round" stroke-linejoin="round" fill="none"/>
</symbol><symbol id="cloud-logo" viewBox="0 0 220.415 28"><path class="a" d="M44.034.718A13.883,13.883,0,0,1,53.886,4.64a13.52,13.52,0,0,1,2.966,4.3,12.865,12.865,0,0,1,1.061,5.311,13.412,13.412,0,0,1-1.061,5.311,13.971,13.971,0,0,1-2.966,4.3,13.119,13.119,0,0,1-4.409,2.86,13.57,13.57,0,0,1-5.443,1.062H33.665V.718Zm3.429,21.3a7.459,7.459,0,0,0,2.64-1.8,8.859,8.859,0,0,0,1.687-2.7,8.716,8.716,0,0,0,.6-3.268,9,9,0,0,0-.6-3.323A7.962,7.962,0,0,0,50.1,8.262a8.314,8.314,0,0,0-2.64-1.825,9.263,9.263,0,0,0-3.429-.654H39.19V22.7h4.844A8.293,8.293,0,0,0,47.464,22.017Z" transform="translate(-11.948 -0.255)"/><path class="a" d="M127.023.718V27.764H121.5V.718Z" transform="translate(-43.119 -0.255)"/><path class="a" d="M158.532,16.914a7.2,7.2,0,0,1-7.457,5.747c-5.769,0-7.593-4.467-7.593-8.661s1.851-8.661,7.593-8.661a7.171,7.171,0,0,1,7.457,5.747h5.661C163.077,4.44,158.178,0,151.293,0c-7.838,0-13.553,5.747-13.553,14,0,8.226,5.688,14,13.553,14,6.885,0,11.784-4.412,12.9-11.058h-5.661Z" transform="translate(-48.883)"/><path class="a" d="M236.961.718V27.764h-5.525V.718Z" transform="translate(-82.135 -0.255)"/><path class="a" d="M191.442.718V11.694h12.138V.718h5.552V27.764h-5.525V16.542H191.442V27.764h-5.525V.718Z" transform="translate(-65.98 -0.255)"/><path class="a" d="M8.273,0a8.28,8.28,0,1,0,8.273,8.28A8.273,8.273,0,0,0,8.273,0Zm0,11.658a3.4,3.4,0,1,1,3.4-3.4A3.44,3.44,0,0,1,8.273,11.658Z"/><path class="a" d="M94.171,27.764h5.851L90.824.718H82.332L73.025,27.764h5.851L80.7,22.208H92.348Zm-11.893-10.3L86.551,4.531,90.8,17.469Z" transform="translate(-25.916 -0.255)"/><path class="a" d="M5.474,12.86a4.44,4.44,0,0,1-3.305-1.347A4.555,4.555,0,0,1,.848,8.2a4.58,4.58,0,0,1,4.7-4.665,4.572,4.572,0,0,1,1.972.38A5.635,5.635,0,0,1,9.044,5L7.858,6.365A4.511,4.511,0,0,0,6.769,5.6,2.885,2.885,0,0,0,5.539,5.36a2.42,2.42,0,0,0-1.875.818A2.894,2.894,0,0,0,2.923,8.2a2.9,2.9,0,0,0,.741,2.01,2.411,2.411,0,0,0,1.875.825,2.823,2.823,0,0,0,1.25-.258,4.892,4.892,0,0,0,1.121-.8l1.263,1.353a4.828,4.828,0,0,1-1.591,1.16A5.269,5.269,0,0,1,5.474,12.86Zm11.011-1.044a3.689,3.689,0,0,1-2.674,1.044,3.657,3.657,0,0,1-2.661-1.037,3.433,3.433,0,0,1-1.063-2.558,3.419,3.419,0,0,1,1.076-2.552,3.689,3.689,0,0,1,2.674-1.044A3.657,3.657,0,0,1,16.5,6.707a3.433,3.433,0,0,1,1.063,2.558A3.419,3.419,0,0,1,16.486,11.816Zm-2.648-.644a1.661,1.661,0,0,0,1.3-.548,1.965,1.965,0,0,0,.49-1.36,1.933,1.933,0,0,0-.509-1.347,1.687,1.687,0,0,0-1.308-.561,1.661,1.661,0,0,0-1.3.548,1.965,1.965,0,0,0-.49,1.36,1.933,1.933,0,0,0,.509,1.347A1.687,1.687,0,0,0,13.837,11.172Zm5.142,1.533V5.8h1.959v.979a2.53,2.53,0,0,1,2.036-1.108,2.01,2.01,0,0,1,1.946,1.1,2.89,2.89,0,0,1,2.268-1.1,2.247,2.247,0,0,1,1.72.651,2.655,2.655,0,0,1,.612,1.888v4.5H27.561V8.852q0-1.4-1.147-1.4a1.1,1.1,0,0,0-.87.361,1.539,1.539,0,0,0-.316,1.044v3.853H23.27V8.852q0-1.4-1.147-1.4a1.1,1.1,0,0,0-.87.361,1.539,1.539,0,0,0-.316,1.044v3.853Zm12.577,0V7.473h-.812V5.863h.812V5.424a2.277,2.277,0,0,1,.554-1.675A2.148,2.148,0,0,1,33.7,3.208a4.578,4.578,0,0,1,1.392.193V5.025a2.615,2.615,0,0,0-.889-.168q-.709,0-.709.747v.271h1.585v1.6H33.515v5.232Zm10.522-.889a3.939,3.939,0,0,1-5.335.006A3.433,3.433,0,0,1,35.68,9.265a3.419,3.419,0,0,1,1.076-2.552,3.939,3.939,0,0,1,5.335-.006,3.433,3.433,0,0,1,1.063,2.558A3.419,3.419,0,0,1,42.078,11.816Zm-2.648-.644a1.661,1.661,0,0,0,1.3-.548,1.965,1.965,0,0,0,.49-1.36,1.934,1.934,0,0,0-.509-1.347A1.687,1.687,0,0,0,39.4,7.357a1.661,1.661,0,0,0-1.3.548,1.965,1.965,0,0,0-.49,1.36,1.933,1.933,0,0,0,.509,1.347A1.687,1.687,0,0,0,39.43,11.172Zm5.142,1.533V5.8H46.53V7.19a2.168,2.168,0,0,1,2.2-1.521V7.718h-.1a1.975,1.975,0,0,0-1.553.612,2.659,2.659,0,0,0-.548,1.823v2.552Zm7.719.116a2.148,2.148,0,0,1-1.488-.47,2.08,2.08,0,0,1-.522-1.6V7.473h-.825V5.8h.825V4.033h1.959V5.8h1.624V7.473H52.239v2.951q0,.67.631.67a2,2,0,0,0,.966-.245v1.572A2.962,2.962,0,0,1,52.29,12.821Z" transform="translate(166.553 -2.235)"/></symbol><symbol id="controll" viewBox="0 0 188.684 100"><g transform="translate(-1321.446 -33.416)"><path class="a" d="M1478.4,84.524c.007.007.017.009.024.016-.024-.022-.042-.051-.064-.075C1478.372,84.483,1478.379,84.506,1478.4,84.524Z" transform="translate(-3.624 -1.179)"/><path class="a" d="M1481.426,84.785h0c-.5-.335-.979-.692-1.452-1.06C1480.449,84.093,1480.93,84.45,1481.426,84.785Z" transform="translate(-3.661 -1.162)"/><path class="a" d="M1493.188,84.733h0V82.884h0Z" transform="translate(-3.966 -1.142)"/><path class="a" d="M1493.022,84.81h0Z" transform="translate(-3.962 -1.187)"/><path class="a" d="M1478.4,83.135c-.018.018-.024.041-.04.06a.843.843,0,0,1,.113-.108A.625.625,0,0,0,1478.4,83.135Z" transform="translate(-3.624 -1.147)"/><path class="a" d="M1478.111,83.823a.428.428,0,0,0,.012.062.981.981,0,0,1,0-.141C1478.125,83.771,1478.111,83.8,1478.111,83.823Z" transform="translate(-3.618 -1.162)"/><path class="a" d="M1493.022,82.85h0Z" transform="translate(-3.962 -1.142)"/><path class="a" d="M1481.7,47.323c-.018,0-.034.009-.053.01.019,0,.035-.01.054-.01Z" transform="translate(-3.7 -0.321)"/><path class="a" d="M1484.057,49.263h-2.366a.96.96,0,0,1-.677-.279v0a.96.96,0,0,0,.674.278h2.371c.3-.279.62-.538.941-.8C1484.679,48.726,1484.36,48.985,1484.057,49.263Z" transform="translate(-3.685 -0.348)"/><path class="a" d="M1493.978,48.28a.958.958,0,0,1-.957.957h0a.957.957,0,1,0,0-1.915h0A.957.957,0,0,1,1493.978,48.28Z" transform="translate(-3.962 -0.321)"/><path class="a" d="M1480.724,48.3h0c0-.032.016-.062.019-.094C1480.74,48.235,1480.724,48.264,1480.724,48.3Z" transform="translate(-3.678 -0.341)"/><path class="b" d="M1472.184,49.283h0Z" transform="translate(-3.481 -0.366)"/><path class="b" d="M1421.639,49.238h38.385q.366-.969.782-1.915h10.188a.958.958,0,0,1,.883,1.328.957.957,0,0,0-.881-1.332h-49.351a.959.959,0,1,0,0,1.919Z" transform="translate(-2.292 -0.321)"/><path class="c" d="M1463.38,84.765h2.9a.958.958,0,0,0,.957-.957v0h0a.958.958,0,0,0-.957-.957h-101.92v1.919Z" transform="translate(-0.991 -1.142)"/><path class="c" d="M1510.441,81.117l0,0V42.766h0V37.755a4.339,4.339,0,0,0-3.432-4.241c-.011,0-.02-.007-.03-.01a4.527,4.527,0,0,0-.532-.054c-.114-.01-.225-.035-.342-.035H1339.345A4.34,4.34,0,0,0,1335,37.752v21.9h2.878v-21.9a1.466,1.466,0,0,1,1.465-1.465H1497.7l.011,0h8.39a1.466,1.466,0,0,1,1.465,1.465v2.7h0V52.348l0,0h0V83.428l0,0v0h0V87a1.465,1.465,0,0,1-1.465,1.465H1492.41v0h0v-.393h0V79.647h0V73.661H1363.684v2.872H1489.54V87.892h0v.575H1363.684v2.878H1506.1A4.346,4.346,0,0,0,1510.443,87Z" transform="translate(-0.313)"/><path class="c" d="M1471.924,47.323h-10.188q-.416.947-.782,1.915h10.971a.957.957,0,0,0,0-1.915Z" transform="translate(-3.222 -0.321)"/><path class="c" d="M1492.84,82.865a.782.782,0,0,0-.158-.014H1479.07a.827.827,0,0,0-.17.015h0a.77.77,0,0,0-.093.036.877.877,0,0,0-.343.179.875.875,0,0,0-.235.29.874.874,0,0,0-.058.127.971.971,0,0,0-.046.226.981.981,0,0,0,0,.141.772.772,0,0,0,0,.106.845.845,0,0,0,.049.137.9.9,0,0,0,.037.1.939.939,0,0,0,.145.218c.022.024.04.053.064.075a.919.919,0,0,0,.242.161c.02.009.035.024.056.032a.967.967,0,0,0,.357.071h2.317l0,0c-.5-.335-.977-.692-1.449-1.06.473.368.954.725,1.452,1.06h11.3a.96.96,0,0,0,.158-.013V82.865Z" transform="translate(-3.618 -1.142)"/><path class="c" d="M1480.8,48.645a.759.759,0,0,0,.045.067.97.97,0,0,0,.163.244h0a.96.96,0,0,0,.677.279h2.366c.3-.278.622-.537.944-.794-.32.257-.639.516-.941.8h8.684a.957.957,0,0,0,0-1.915h-11.054c-.019,0-.035.009-.054.01a.911.911,0,0,0-.887.85c0,.032-.019.062-.019.094v0A.954.954,0,0,0,1480.8,48.645Z" transform="translate(-3.678 -0.321)"/><path class="d" d="M1450.2,98.561h-.02a1.364,1.364,0,0,0-1.368,1.36v21.422a1.361,1.361,0,1,0,2.722,0V99.953A1.364,1.364,0,0,0,1450.2,98.561Z" transform="translate(-2.941 -1.504)"/><path class="d" d="M1365.011,122.241a69.835,69.835,0,0,0,8.68-11.391,52.926,52.926,0,0,0,4.973-10.782,1.361,1.361,0,1,0-2.588-.847,50.111,50.111,0,0,1-4.713,10.223,67.079,67.079,0,0,1-7,9.448v3.734A1.364,1.364,0,0,0,1365.011,122.241Z" transform="translate(-0.991 -1.498)"/><path class="d" d="M1424.371,98.521h0a1.363,1.363,0,0,0-1.3,1.416v21.388a1.36,1.36,0,1,0,2.721,0V99.937a.687.687,0,0,0,0-.107A1.363,1.363,0,0,0,1424.371,98.521Z" transform="translate(-2.347 -1.504)"/><path class="d" d="M1398.7,98.561h-.026a1.363,1.363,0,0,0-1.367,1.36v21.422a1.364,1.364,0,0,0,2.728,0V99.953A1.363,1.363,0,0,0,1398.7,98.561Z" transform="translate(-1.752 -1.504)"/><path class="d" d="M1477.455,109.439a50.131,50.131,0,0,1-4.715-10.222l-.02-.065a1.365,1.365,0,0,0-2.575.909,53,53,0,0,0,4.974,10.782,69.684,69.684,0,0,0,8.68,11.391,1.358,1.358,0,0,0,2-1.839A67.086,67.086,0,0,1,1477.455,109.439Z" transform="translate(-3.432 -1.497)"/><path class="d" d="M1364.447,66.742h1.954a8.1,8.1,0,0,0-8.094-8.093V60.6A6.147,6.147,0,0,1,1364.447,66.742Z" transform="translate(-0.851 -0.583)"/><path class="d" d="M1370.515,66.6h1.954a14.178,14.178,0,0,0-14.162-14.161v1.954A12.221,12.221,0,0,1,1370.515,66.6Z" transform="translate(-0.851 -0.439)"/><path class="d" d="M1376.9,66.447h1.954A20.573,20.573,0,0,0,1358.307,45.9v1.954A18.617,18.617,0,0,1,1376.9,66.447Z" transform="translate(-0.851 -0.288)"/><path class="e" d="M1334.849,91.572a1.468,1.468,0,1,0,1.469,1.468h0A1.468,1.468,0,0,0,1334.849,91.572Z" transform="translate(-0.276 -1.343)"/><path class="e" d="M1348,92.939a3.477,3.477,0,0,0-1.135-.79,3.911,3.911,0,0,0-1.482-.282h-2.091v7.313h2.091a3.6,3.6,0,0,0,1.482-.3v0A3.219,3.219,0,0,0,1348,98.1a3.81,3.81,0,0,0,.989-2.584,3.731,3.731,0,0,0-.264-1.43A3.559,3.559,0,0,0,1348,92.939Z" transform="translate(-0.505 -1.35)"/><path class="e" d="M1357.58,69.571a3.339,3.339,0,0,0-3.336-3.335h-26.461a3.339,3.339,0,0,0-3.336,3.335v58.336a3.34,3.34,0,0,0,3.336,3.336h26.461a3.34,3.34,0,0,0,3.336-3.336Zm-22.934,26.462a3.575,3.575,0,1,1,3.576-3.575A3.576,3.576,0,0,1,1334.646,96.034Zm15.85,1.189a5.878,5.878,0,0,1-1.286,1.861,5.793,5.793,0,0,1-1.907,1.237,5.954,5.954,0,0,1-2.354.46h-4.479V89.086h4.479a6.246,6.246,0,0,1,2.354.444,6.1,6.1,0,0,1,1.907,1.253,5.854,5.854,0,0,1,1.286,1.861A5.924,5.924,0,0,1,1350.5,97.222Z" transform="translate(-0.069 -0.758)"/><path class="c" d="M1360.441,69.5a6.273,6.273,0,0,0-6.267-6.266h-26.461a6.273,6.273,0,0,0-6.267,6.266v58.336a6.274,6.274,0,0,0,6.267,6.267h26.461a6.274,6.274,0,0,0,6.267-6.267Zm-6.267,61.672h-26.461a3.34,3.34,0,0,1-3.336-3.336V69.5a3.339,3.339,0,0,1,3.336-3.335h26.461a3.339,3.339,0,0,1,3.336,3.335v58.336A3.34,3.34,0,0,1,1354.174,131.174Z" transform="translate(0 -0.689)"/><path class="c" d="M1349.589,91.324a6.1,6.1,0,0,0-1.907-1.253,6.246,6.246,0,0,0-2.354-.444h-4.479v11.695h4.479a5.954,5.954,0,0,0,2.354-.46,5.793,5.793,0,0,0,1.907-1.237,5.776,5.776,0,0,0,0-8.3Zm-1.644,6.729a3.219,3.219,0,0,1-1.136.775v0a3.6,3.6,0,0,1-1.482.3h-2.091V91.814h2.091a3.911,3.911,0,0,1,1.482.282,3.477,3.477,0,0,1,1.135.79,3.559,3.559,0,0,1,.725,1.152,3.731,3.731,0,0,1,.264,1.43A3.81,3.81,0,0,1,1347.945,98.053Z" transform="translate(-0.448 -1.298)"/><path class="c" d="M1334.8,89.418a3.575,3.575,0,1,0,3.576,3.575A3.576,3.576,0,0,0,1334.8,89.418Zm1.466,3.573a1.468,1.468,0,1,1-1.469-1.468,1.467,1.467,0,0,1,1.469,1.468Z" transform="translate(-0.226 -1.293)"/></g></symbol><symbol id="crosshead-sd" viewBox="0 0 320 150"><g id="Layer_2" data-name="Layer 2"><rect class="cls-1" width="320" height="150"/></g><g id="Layer_1" data-name="Layer 1"><rect class="cls-2" x="110.57" y="40.88" width="6" height="81.16" transform="translate(32.1 195.03) rotate(-90)"/><path class="cls-3" d="M205.26,37.29H246a0,0,0,0,1,0,0v67.8a20.38,20.38,0,0,1-20.38,20.38h0a20.38,20.38,0,0,1-20.38-20.38V37.29A0,0,0,0,1,205.26,37.29Z" transform="translate(144.26 307.01) rotate(-90)"/><polyline class="cls-3" points="181.55 61 161 66.52 161 81.38 161 96.23 181.55 101.75"/><rect class="cls-2" x="137.2" y="77.95" width="40.75" height="6.85" rx="3.43" transform="translate(76.2 238.95) rotate(-90)"/><line class="cls-3" x1="181.55" y1="81.46" x2="269.73" y2="81.46"/><path class="cls-4" d="M30.84,15a16,16,0,1,0,16,16A16,16,0,0,0,30.84,15Zm1,17V43h-2V32h-11V30h11V19h2V30h11v2Z"/><polygon class="cls-5" points="55.34 81.39 64.38 84.46 72.99 84.46 72.99 78.46 64.38 78.46 55.34 81.39"/></g></symbol><symbol id="difficulty-arrow" viewBox="0 0 22 19">
  <path fill="#E5E5E5" d="M11 0 l11 19 h-22 z"/>
</symbol><symbol id="exit-white" viewBox="0 0 24 24"><g transform="translate(-326.602 -334.082)"><path class="a" d="M336.98,350.707l.92.92,5.546-5.546-5.546-5.546-.92.92,3.977,3.976H329.139v1.3h11.819Z"/><path class="a" d="M346.4,336.293H331.458a2.321,2.321,0,0,0-2.318,2.318v4.513h1.3v-4.513a1.018,1.018,0,0,1,1.018-1.017H346.4a1.018,1.018,0,0,1,1.018,1.017v14.941a1.018,1.018,0,0,1-1.018,1.016H331.458a1.018,1.018,0,0,1-1.018-1.016v-4.513h-1.3v4.513a2.321,2.321,0,0,0,2.318,2.317H346.4a2.321,2.321,0,0,0,2.319-2.317V338.611A2.321,2.321,0,0,0,346.4,336.293Z"/></g><rect class="b" width="24" height="24"/></symbol><symbol id="flat-sd" viewBox="0 0 320 150"><g id="Layer_2" data-name="Layer 2"><rect class="cls-1" width="320" height="150"/></g><g id="Layer_1" data-name="Layer 1"><rect class="cls-2" x="110.57" y="40.88" width="6" height="81.16" transform="translate(32.1 195.03) rotate(-90)"/><path class="cls-3" d="M205.26,37.29H246a0,0,0,0,1,0,0v67.8a20.38,20.38,0,0,1-20.38,20.38h0a20.38,20.38,0,0,1-20.38-20.38V37.29a0,0,0,0,1,0,0Z" transform="translate(144.26 307.01) rotate(-90)"/><polyline class="cls-3" points="181.55 61 161 66.52 161 81.38 161 96.23 181.55 101.75"/><rect class="cls-2" x="137.2" y="77.95" width="40.75" height="6.85" rx="3.43" transform="translate(76.2 238.95) rotate(-90)"/><line class="cls-3" x1="181.55" y1="81.46" x2="269.73" y2="81.46"/><path class="cls-4" d="M30.84,47a16,16,0,0,0,16-15H14.89A16,16,0,0,0,30.84,47Z"/><path class="cls-4" d="M30.84,15A16,16,0,0,0,14.89,30h31.9A16,16,0,0,0,30.84,15Z"/><polygon class="cls-4" points="46.84 31 46.84 31 46.84 31 46.84 31"/><polygon class="cls-5" points="56.1 78.46 56.1 84.46 66.99 85.46 72.99 84.46 72.99 78.46 66.99 77.46 56.1 78.46"/></g></symbol><symbol id="house" viewBox="0 0 100 100"><g transform="translate(-1282.057 -2030.057)"><g transform="translate(1282.057 2030.057)"><rect class="a" width="100" height="100" rx="10"/><g transform="translate(13.017 14.692)"><path class="b" d="M333.338,260.528a2.192,2.192,0,0,0,3.069.336l2.023-1.625v33.955a3.974,3.974,0,0,0,3.961,3.964h56.32a3.975,3.975,0,0,0,3.964-3.964V259.307l1.961,1.577a2.212,2.212,0,0,0,1.365.477,2.154,2.154,0,0,0,1.7-.833,2.2,2.2,0,0,0-.336-3.073L372.9,229.741l-.792-.394a3.9,3.9,0,0,0-3.134.01l-.83.384-34.469,27.718a2.192,2.192,0,0,0-.336,3.069" transform="translate(-332.861 -229.023)"/><path class="c" d="M358.657,260.687a8.244,8.244,0,0,0,2.915-1.982,8.982,8.982,0,0,0,1.841-2.97,9.492,9.492,0,0,0,.672-3.607,9.3,9.3,0,0,0-.672-3.645,8.847,8.847,0,0,0-1.841-2.932,8.689,8.689,0,0,0-2.915-2,10.041,10.041,0,0,0-3.782-.713h-5.329V261.5h5.329a10.131,10.131,0,0,0,3.782-.813m-3.782-23.476a16.029,16.029,0,0,1,6,1.128,15.659,15.659,0,0,1,4.876,3.193,14.719,14.719,0,0,1,3.268,4.753,14.125,14.125,0,0,1,1.169,5.843,14.45,14.45,0,0,1-1.169,5.843,15.954,15.954,0,0,1-3.268,4.756,14.236,14.236,0,0,1-4.876,3.131,14.926,14.926,0,0,1-6,1.169H343.445V237.211Z" transform="translate(-307.151 -209.131)"/><path class="c" d="M345.574,249.917a3.743,3.743,0,1,1,3.745-3.745,3.741,3.741,0,0,1-3.745,3.745m0-12.856a9.113,9.113,0,1,0,9.111,9.111,9.116,9.116,0,0,0-9.111-9.111" transform="translate(-324.121 -209.496)"/></g></g></g></symbol><symbol id="install" viewBox="0 0 200 77.057"><g transform="translate(-16133.348 22175.498)"><g transform="translate(16134.814 -22164.633)"><path class="a" d="M1.643,31.192a2.975,2.975,0,0,1-2.969-2.969V-22.193a2.975,2.975,0,0,1,2.969-2.969H172.352a2.972,2.972,0,0,1,2.969,2.969V28.222a2.972,2.972,0,0,1-2.969,2.969Z" transform="translate(1.326 25.162)"/></g><g transform="translate(16133.348 -22166.104)"><path class="b" d="M96.946,0h-170.7A4.442,4.442,0,0,0-78.2,4.442V54.856A4.442,4.442,0,0,0-73.758,59.3h170.7a4.442,4.442,0,0,0,4.442-4.442V4.442A4.442,4.442,0,0,0,96.946,0m0,2.94a1.5,1.5,0,0,1,1.5,1.5V54.856a1.5,1.5,0,0,1-1.5,1.5h-170.7a1.5,1.5,0,0,1-1.5-1.5V4.442a1.5,1.5,0,0,1,1.5-1.5Z" transform="translate(78.2)"/></g><g transform="translate(16157.331 -22116.67)"><path class="b" d="M60.722,1.085H-48.007A.977.977,0,0,1-48.7.8.977.977,0,0,1-48.983.1a.978.978,0,0,1,.976-.979H60.722a.98.98,0,0,1,0,1.96" transform="translate(48.983 0.875)"/></g><g transform="translate(16276.456 -22116.67)"><path class="c" d="M8.254,1.085H-5.677A.978.978,0,0,1-6.372.8.978.978,0,0,1-6.658.1.979.979,0,0,1-6.37-.589a.979.979,0,0,1,.694-.286H8.254a.98.98,0,0,1,0,1.96" transform="translate(6.658 0.875)"/></g><g transform="translate(16279.069 -22152.197)"><path class="c" d="M6.807,1.085H-4.51A.98.98,0,0,1-5.2.8.98.98,0,0,1-5.491.1.979.979,0,0,1-5.2-.589.979.979,0,0,1-4.51-.875H6.807a.98.98,0,1,1,0,1.96" transform="translate(5.491 0.875)"/></g><g transform="translate(16219.023 -22152.197)"><path class="b" d="M28.506,1.085H-22.016a.98.98,0,0,1-.7-.286A.98.98,0,0,1-23,.1a.979.979,0,0,1,.289-.694.979.979,0,0,1,.7-.285H28.507a.98.98,0,1,1,0,1.96" transform="translate(23 0.875)"/></g><g transform="translate(16152.126 -22124.908)"><path class="d" d="M78.791,0H-63.559V18.1H78.791ZM75.853,2.94V15.158H-60.619V2.94Z" transform="translate(63.559)"/></g><g transform="translate(16270.639 -22174.648)"><path class="a" d="M11.644,0A37.8,37.8,0,0,0,3.29,1.635a.727.727,0,0,1-.457.912,36.931,36.931,0,0,0-7.381,3.43l-.376.1a.727.727,0,0,1-.616-.342,37.714,37.714,0,0,0-3.852,2.8H28.462A4.437,4.437,0,0,1,32.9,12.982v5.129a26.751,26.751,0,0,1,0,39.261V63.4a4.442,4.442,0,0,1-4.442,4.442h-36.4a.722.722,0,0,1-.1.174A37.623,37.623,0,0,0-.71,72.337.727.727,0,0,1-.044,71.9a.718.718,0,0,1,.28.056,37.249,37.249,0,0,0,7.8,2.327.727.727,0,0,1,.585.835,37.908,37.908,0,0,0,6.1.493c.8,0,1.6-.025,2.4-.076a.727.727,0,0,1,.661-.777,37.026,37.026,0,0,0,8-1.55A.739.739,0,0,1,26,73.179a.722.722,0,0,1,.69.5A37.6,37.6,0,0,0,34.412,70.1a.727.727,0,0,1,.229-.994,37.557,37.557,0,0,0,6.349-5.1.808.808,0,0,1,.573-.235.692.692,0,0,1,.485.191,38.053,38.053,0,0,0,5.2-6.809.727.727,0,0,1-.264-.988A36.962,36.962,0,0,0,50.22,48.7a.72.72,0,0,1,.69-.51.769.769,0,0,1,.211.029,38.02,38.02,0,0,0,1.413-8.392.727.727,0,0,1-.692-.75c.014-.446.023-.888.023-1.333a37.254,37.254,0,0,0-.624-6.8.727.727,0,0,1,.577-.837,37.721,37.721,0,0,0-2.636-8.1l-.309.069a.727.727,0,0,1-.654-.412,36.793,36.793,0,0,0-4.307-6.9.727.727,0,0,1,.114-1.014q-1.179-1.442-2.526-2.789a38.325,38.325,0,0,0-3.572-3.15.727.727,0,0,1-.578.287.715.715,0,0,1-.434-.145A36.906,36.906,0,0,0,29.9,3.84a.727.727,0,0,1-.37-.952A37.854,37.854,0,0,0,21.373.465a.727.727,0,0,1-.715.607l-.114-.009A37.5,37.5,0,0,0,14.717.6q-1.156,0-2.3.072c-.027,0-.052,0-.076,0a.677.677,0,0,1-.488-.193.677.677,0,0,1-.2-.484" transform="translate(9.393 0)"/></g><g transform="translate(16256.882 -22163.166)"><path class="a" d="M29.394,26.709a26.631,26.631,0,0,1-15.236,4.759h-.278v.4H27.9a1.5,1.5,0,0,0,1.5-1.5ZM-8.046,19.65H-19.864c.052.114.1.231.153.345a.727.727,0,0,1-.354.956,37.28,37.28,0,0,0,2.2,4h4.3a.983.983,0,0,1,.983.981.983.983,0,0,1-.983.981h-2.972q.467.642.963,1.268a.738.738,0,0,1,.457-.157.716.716,0,0,1,.558.262c.768.934,1.593,1.841,2.448,2.7.3.3.609.6.921.888H10.942v-.591A26.613,26.613,0,0,1-.789,26.911H-3.161a.98.98,0,0,1-.979-.895.98.98,0,0,1,.808-1.051A26.912,26.912,0,0,1-8.046,19.65M9-21.546H-12.53a.716.716,0,0,1-.193.618,37.539,37.539,0,0,0-4.945,6.465.72.72,0,0,1-.62.35l-.365-.1A37.42,37.42,0,0,0-20.5-10.58h10.43a.979.979,0,0,1,.695.286.979.979,0,0,1,.287.694.98.98,0,0,1-.288.694.98.98,0,0,1-.694.287H-21.3q-.41,1.1-.753,2.213a.727.727,0,0,1,.49.894,37.343,37.343,0,0,0-1.364,8.025.727.727,0,0,1-.727.683h-.036a38.01,38.01,0,0,0,.614,8.488.683.683,0,0,1,.15-.015.727.727,0,0,1,.7.582,36.943,36.943,0,0,0,1.211,4.459H-9.766A26.772,26.772,0,0,1,9-21.546m18.889,0H19.307A26.639,26.639,0,0,1,29.394-17.28v-2.766a1.5,1.5,0,0,0-1.5-1.5" transform="translate(23.717 21.546)"/></g><g transform="translate(16267.86 -22166.104)"><path class="e" d="M24.948,27.029a26.959,26.959,0,0,1-2.94,2.365v3.66a1.5,1.5,0,0,1-1.5,1.5H6.491v2.943H20.509a4.442,4.442,0,0,0,4.442-4.442ZM20.509-21.8H-17.348q-1.373,1.139-2.661,2.423c-.04.04-.081.081-.116.119a.72.72,0,0,1,.208.4H1.619a27.054,27.054,0,0,1,10.3,0h8.588a1.5,1.5,0,0,1,1.5,1.5v2.764a26.96,26.96,0,0,1,2.94,2.365v-5.129A4.442,4.442,0,0,0,20.506-21.8" transform="translate(20.125 21.8)"/></g><g transform="translate(16262.734 -22116.67)"><path class="e" d="M2.381,0h-4.3q.632.994,1.33,1.96H2.381a.98.98,0,1,0,0-1.96" transform="translate(1.921 0)"/></g><g transform="translate(16276.454 -22116.654)"><path class="e" d="M.45,0A.98.98,0,0,0,.62,1.946H2.992A26.872,26.872,0,0,1,.45,0" transform="translate(0.362)"/></g><g transform="translate(16259.3 -22152.197)"><path class="e" d="M6.215,0H-4.214q-.426.969-.8,1.96H6.215a.98.98,0,1,0,0-1.96" transform="translate(5.014 0)"/></g><g transform="translate(16259.591 -22124.908)"><path class="e" d="M17.682,8.064v.591H-4.445c.793.739,1.615,1.445,2.457,2.1a.722.722,0,0,1,.226.837H20.621V8.254a27.086,27.086,0,0,1-2.939-.191M-3.023-6.505H-14.264q.507,1.5,1.142,2.94H-1.3a26.689,26.689,0,0,1-1.72-2.94" transform="translate(14.264 6.505)"/></g><g transform="translate(16256.226 -22175.498)"><path class="f" d="M23.056,42.651A.727.727,0,0,1,23,41.2a37.187,37.187,0,0,0,8-1.55.727.727,0,0,1,.432,1.384,38.706,38.706,0,0,1-8.307,1.61Zm-9.937-.485-.132-.014a38.672,38.672,0,0,1-8.1-2.418A.727.727,0,0,1,5.446,38.4a37.17,37.17,0,0,0,7.8,2.327.727.727,0,0,1-.13,1.437m27.115-5.277a.727.727,0,0,1-.388-1.337,37.472,37.472,0,0,0,6.349-5.1.774.774,0,0,1,1.066-.04.674.674,0,0,1,.037.987l-.081.081a39.08,39.08,0,0,1-6.6,5.3ZM-3.4,34.741a.711.711,0,0,1-.448-.154,39.538,39.538,0,0,1-3.5-3.107c-.888-.888-1.744-1.832-2.546-2.8a.727.727,0,0,1,.1-1.022.731.731,0,0,1,1.022.1c.768.934,1.593,1.841,2.448,2.7a38.314,38.314,0,0,0,3.377,2.992.727.727,0,0,1,.23.8.727.727,0,0,1-.678.489M52.823,23.7l-.359-.094a.727.727,0,0,1-.271-.99,37.148,37.148,0,0,0,3.238-7.467.727.727,0,1,1,1.384.428,38.436,38.436,0,0,1-3.364,7.76.727.727,0,0,1-.629.363M-14.6,20.491a.727.727,0,0,1-.661-.428,38.54,38.54,0,0,1-2.607-8.049.722.722,0,0,1,.1-.545.722.722,0,0,1,.461-.31.713.713,0,0,1,.547.1.713.713,0,0,1,.308.464,37.081,37.081,0,0,0,2.511,7.745.727.727,0,0,1-.361.959ZM57.777,6.272h-.027a.727.727,0,0,1-.7-.75q.023-.669.025-1.333A37.433,37.433,0,0,0,56.455-2.6a.727.727,0,0,1,.212-.733.727.727,0,0,1,.751-.139.727.727,0,0,1,.461.608,38.738,38.738,0,0,1,.646,7.053q0,.689-.025,1.382a.727.727,0,0,1-.727.7M-17.873,2.667h-.04A.727.727,0,0,1-18.6,1.9,38.92,38.92,0,0,1-17.18-6.435a.721.721,0,0,1,.344-.437.721.721,0,0,1,.553-.063.722.722,0,0,1,.435.345.722.722,0,0,1,.062.552,37.482,37.482,0,0,0-1.364,8.025.727.727,0,0,1-.727.683m71.96-14.14a.727.727,0,0,1-.654-.412,36.92,36.92,0,0,0-4.309-6.9.727.727,0,0,1,.119-1.019.727.727,0,0,1,1.019.121,38.351,38.351,0,0,1,4.48,7.178.727.727,0,0,1-.341.969ZM-12.512-14.64l-.374-.1a.722.722,0,0,1-.33-.446.722.722,0,0,1,.084-.548,38.9,38.9,0,0,1,5.138-6.714.727.727,0,0,1,1.026-.025.727.727,0,0,1,.023,1.023,37.664,37.664,0,0,0-4.95,6.466.714.714,0,0,1-.618.35M42.559-25.457a.727.727,0,0,1-.434-.145,36.791,36.791,0,0,0-7.015-4.119.727.727,0,0,1-.365-.959.727.727,0,0,1,.956-.367,38.237,38.237,0,0,1,7.292,4.287.727.727,0,0,1,.145,1.014.727.727,0,0,1-.58.292M.283-27.47a.722.722,0,0,1-.618-.35.727.727,0,0,1,.242-.994,38.415,38.415,0,0,1,7.672-3.57.731.731,0,0,1,.918.457.727.727,0,0,1-.457.918A36.987,36.987,0,0,0,.659-27.576ZM25.869-32.49l-.116-.011a37.527,37.527,0,0,0-8.132-.383.68.68,0,0,1-.538-.164.68.68,0,0,1-.23-.513.727.727,0,0,1,.678-.77,38.737,38.737,0,0,1,8.448.4.721.721,0,0,1,.474.289.721.721,0,0,1,.129.54.727.727,0,0,1-.712.614" transform="translate(18.597 34.406)"/></g><g transform="translate(16312.934 -22156.535)"><path class="g" d="M0,0V39.261A26.682,26.682,0,0,0,8.576,19.631,26.686,26.686,0,0,0,0,0"/></g><g transform="translate(16268 -22163.166)"><path class="h" d="M13.029,26.812a1.069,1.069,0,0,1-.17.015H1.3A26.613,26.613,0,0,0,13.03,31.195ZM5.973,19.567H-5.957a26.912,26.912,0,0,0,4.715,5.315,1.069,1.069,0,0,1,.17-.015H12.859a1.069,1.069,0,0,1,.17.015V22.475a18.03,18.03,0,0,1-7.055-2.907m25.51-5.115a18.109,18.109,0,0,1-15.237,8.307h-.28v8.627h.28a26.631,26.631,0,0,0,15.237-4.759ZM21.4-21.629H11.1A26.772,26.772,0,0,0-7.675,16.626H2.662A18.127,18.127,0,0,1,3.969-8.7H1.542a.98.98,0,0,1-.98-.98.979.979,0,0,1,.98-.979H6.516A18.133,18.133,0,0,1,31.484-5.187V-17.363A26.639,26.639,0,0,0,21.4-21.629" transform="translate(10.508 21.629)"/></g><g transform="translate(16289.607 -22163.664)"><path class="i" d="M11.285,2.635V14.81a18.045,18.045,0,0,1,2.89,9.82,18.032,18.032,0,0,1-2.89,9.819V46.624a26.94,26.94,0,0,0,2.94-2.363V5a26.7,26.7,0,0,0-2.94-2.366M-3.951-2.13a26.728,26.728,0,0,0-5.147.5H1.2a26.725,26.725,0,0,0-5.149-.5" transform="translate(9.099 2.13)"/></g><g transform="translate(16277.264 -22116.67)"><path class="i" d="M7.8,0H-6.126A.86.86,0,0,0-6.3.015,26.849,26.849,0,0,0-3.755,1.96H7.8a1.068,1.068,0,0,0,.17-.014V.015A.86.86,0,0,0,7.8,0" transform="translate(6.3 0)"/></g><g transform="translate(16279.068 -22152.197)"><path class="i" d="M3.3,0H-1.676a.98.98,0,0,0-.694.285.98.98,0,0,0-.288.693.981.981,0,0,0,.288.694.981.981,0,0,0,.695.287H.747A18.194,18.194,0,0,1,3.3,0" transform="translate(2.659 0)"/></g><g transform="translate(16270.829 -22124.908)"><path class="i" d="M11.46,3.235v8.722a26.532,26.532,0,0,0,2.939.191V3.518a18.4,18.4,0,0,1-2.939-.282M1.088-2.61H-9.249A26.9,26.9,0,0,0-7.529.33H4.4A18.352,18.352,0,0,1,1.088-2.61" transform="translate(9.249 2.61)"/></g><g transform="translate(16276.63 -22155.031)"><path class="j" d="M8.249,18.3H1.2a17.994,17.994,0,0,0,7.055,2.907Zm3.218-33.062a18.045,18.045,0,0,0-9.731,2.831H8.078a.979.979,0,0,1,.694.286.979.979,0,0,1,.288.693.981.981,0,0,1-.287.695.981.981,0,0,1-.694.288H-.808A18.127,18.127,0,0,0-2.121,15.359H11.19v6.13h.28a18.112,18.112,0,0,0,15.236-8.3V-6.455a18.109,18.109,0,0,0-15.237-8.307" transform="translate(6.657 14.762)"/></g><g transform="translate(16309.992 -22146.723)"><path class="k" d="M0,0V19.64A18.038,18.038,0,0,0,2.89,9.821,18.04,18.04,0,0,0,0,0" transform="translate(0)"/></g><g transform="translate(16282.478 -22152.197)"><path class="k" d="M4.92,0H-1.425A18.044,18.044,0,0,0-3.969,1.96H4.92A.98.98,0,0,0,4.92,0" transform="translate(3.969 0)"/></g><g transform="translate(16281.166 -22124.908)"><path class="k" d="M7.368,0H-5.943A18.179,18.179,0,0,0-2.632,2.94H4.429V5.848a17.873,17.873,0,0,0,2.939.282Z" transform="translate(5.943)"/></g><g transform="translate(16283.748 -22145.369)"><path class="a" d="M2.691,9.292A4.866,4.866,0,0,1-2.171,4.43V-2.634A4.866,4.866,0,0,1,2.691-7.5H15.734a4.867,4.867,0,0,1,4.86,4.862V4.43a4.867,4.867,0,0,1-4.86,4.862Z" transform="translate(2.171 7.5)"/></g><g transform="translate(16282.956 -22146.162)"><path class="b" d="M10.352,0H-2.694A5.653,5.653,0,0,0-8.347,5.657v7.061a5.653,5.653,0,0,0,5.653,5.657H10.352A5.653,5.653,0,0,0,16,12.719V5.657A5.653,5.653,0,0,0,10.352,0m0,1.588a4.073,4.073,0,0,1,4.067,4.069v7.061a4.073,4.073,0,0,1-4.067,4.069H-2.694a4.075,4.075,0,0,1-4.069-4.069V5.657A4.075,4.075,0,0,1-2.694,1.588Z" transform="translate(8.347 0)"/></g><g transform="translate(16294.754 -22140.963)"><path class="b" d="M2.289,3.535A2.239,2.239,0,0,0,3.082,3a2.665,2.665,0,0,0,.506-.808,2.665,2.665,0,0,0,.179-.979,2.774,2.774,0,0,0-.179-1,2.4,2.4,0,0,0-.506-.8,2.536,2.536,0,0,0-.793-.551,2.819,2.819,0,0,0-1.026-.195H-.19V3.739H1.264a2.491,2.491,0,0,0,1.026-.2M1.264-2.852a4.333,4.333,0,0,1,1.631.311,4.394,4.394,0,0,1,1.321.862A4.038,4.038,0,0,1,5.1-.387a3.85,3.85,0,0,1,.323,1.593A4.014,4.014,0,0,1,5.1,2.8,4.193,4.193,0,0,1,4.216,4.09a3.968,3.968,0,0,1-1.322.858,4.031,4.031,0,0,1-1.631.317H-1.847V-2.852Z" transform="translate(1.847 2.852)"/></g><g transform="translate(16288.237 -22141.102)"><path class="b" d="M1.376,1.935A1.022,1.022,0,1,1,2.395.911h0A1.034,1.034,0,0,1,1.376,1.935m0-3.5A2.483,2.483,0,1,0,3.855.923h0A2.479,2.479,0,0,0,1.378-1.561Z" transform="translate(1.11 1.561)"/></g></g></symbol><symbol id="logo-axioma" viewBox="0 0 160 42"><g transform="translate(-1502 -3558)"><rect class="a" width="160" height="42" transform="translate(1502 3558)"/><g transform="translate(1503.16 3565)"><path class="b" d="M216.7,769.831l1.991-6.541a5.348,5.348,0,0,0,.268-1.57,1.859,1.859,0,0,0-2.1-2.1,5.6,5.6,0,0,0-4.039,1.825l-4.828,4.46,1.083-3.379a3.919,3.919,0,0,0,.182-1.118q0-1.789-1.968-1.787a6.023,6.023,0,0,0-4.305,1.866l-5,4.419,1.885-6.285H181.9a9.042,9.042,0,0,0-5.872,1.786,7.084,7.084,0,0,0-2.5,4.656,6.9,6.9,0,0,0-.082,1.061,4.9,4.9,0,0,0,1.925,4.026,8.752,8.752,0,0,0,6.058,1.827,8.325,8.325,0,0,0,5.506-1.807,6.349,6.349,0,0,0,2.412-4.832,5.477,5.477,0,0,0-.282-1.993,3.149,3.149,0,0,0-.9-1.58h4.752l-3.05,10.213h3.4a2.894,2.894,0,0,0,2.12-.844l6.639-5.825-1.29,3.252a4.572,4.572,0,0,0-.249,1.414q0,2,2.269,2,1.518,0,3.653-2.081l5.6-5c-.489,1.848-.858,2.966-1.1,3.935a2.844,2.844,0,0,0-.065.609,2.6,2.6,0,0,0,.675,1.758,1.946,1.946,0,0,0,1.474.775h6.774a3.4,3.4,0,0,0,3.789-3.142Zm-34.371,0c-.157.014-.339.02-.55.02q-2.673,0-2.671-1.688a2.6,2.6,0,0,1,.117-.746l1.369-4.656h3.82Z" transform="translate(-87.327 -745.928)"/><path class="b" d="M180,769.728a3.957,3.957,0,0,1-1.8,2.553,4.078,4.078,0,0,1-2.136.589h-6.59a2.1,2.1,0,0,1-2.387-2.357,4.965,4.965,0,0,1,.233-1.433l3-9.353h6.056l-3.182,10Z" transform="translate(-93.41 -745.824)"/><path class="b" d="M185.577,759.619h-5.439l-2.9,2.531-1.435-2.531h-6.956l3.787,6.559-4.161,3.653h-4.885l3.137-10.212h-9.527a8.673,8.673,0,0,0-5.991,2.159,8.242,8.242,0,0,0-2.669,6.481,4.509,4.509,0,0,0,1.3,3.3,3.991,3.991,0,0,0,3.17,1.414,4.9,4.9,0,0,0,4.392-2.042q0,2.041,2.7,2.042h9.932l4.37-3.732,2.154,3.732h6.772l-4.337-7.679Zm-27.916,10.212c-.157.014-.341.02-.55.02q-2.673,0-2.671-1.688a2.6,2.6,0,0,1,.117-.746l1.369-4.656h3.82Z" transform="translate(-111.183 -745.928)"/><path class="b" d="M213.98,769.831l3.139-10.212h-9.527a8.673,8.673,0,0,0-5.991,2.159,8.235,8.235,0,0,0-2.669,6.481,4.476,4.476,0,0,0,1.245,3.3,3.986,3.986,0,0,0,3.17,1.414,4.989,4.989,0,0,0,4.444-2.042q0,2.041,2.7,2.042h6.324a3.818,3.818,0,0,0,4.088-3.142Zm-5.921,0c-.157.014-.341.02-.55.02-1.782,0-2.669-.562-2.669-1.688a2.6,2.6,0,0,1,.116-.746l1.369-4.656h3.82Z" transform="translate(-62.906 -745.928)"/><path class="c" d="M163.216,770.874l-10.733-17.627a1.312,1.312,0,0,0-1.12-.621h-9.87a1.316,1.316,0,0,0-1.124.621l-10.731,17.627a1.23,1.23,0,0,0,.012,1.3l4.374,6.9a1.321,1.321,0,0,0,2.232-.025l9.046-15.08a1.324,1.324,0,0,1,2.252,0l9.044,15.078a1.321,1.321,0,0,0,2.232.027l4.374-6.9a1.23,1.23,0,0,0,.014-1.3" transform="translate(-129.457 -752.626)"/><path class="d" d="M139.536,762.521a1.259,1.259,0,0,1,2.146,0l1.921,3.223,1.919,3.225a1.2,1.2,0,0,1-1.075,1.8h-7.675a1.2,1.2,0,0,1-1.073-1.8l1.919-3.225Z" transform="translate(-123.639 -743.723)"/><path class="b" d="M174.954,761.129l1.122-3.687h-4.047a2.72,2.72,0,0,0-2.6,1.921l-.542,1.766Z" transform="translate(-91.687 -748.013)"/></g></g></symbol><symbol id="logo-daichi-grey" viewBox="0 0 154.826 28"><g transform="translate(-41 -254)"><g transform="translate(41 254)"><path class="a" d="M44.034.718A13.883,13.883,0,0,1,53.886,4.64a13.52,13.52,0,0,1,2.966,4.3,12.865,12.865,0,0,1,1.061,5.311,13.412,13.412,0,0,1-1.061,5.311,13.971,13.971,0,0,1-2.966,4.3,13.119,13.119,0,0,1-4.409,2.86,13.57,13.57,0,0,1-5.443,1.062H33.665V.718Zm3.429,21.3a7.459,7.459,0,0,0,2.64-1.8,8.859,8.859,0,0,0,1.687-2.7,8.716,8.716,0,0,0,.6-3.268,9,9,0,0,0-.6-3.323A7.962,7.962,0,0,0,50.1,8.262a8.314,8.314,0,0,0-2.64-1.825,9.263,9.263,0,0,0-3.429-.654H39.19V22.7h4.844A8.293,8.293,0,0,0,47.464,22.017Z" transform="translate(-11.948 -0.255)"/><path class="a" d="M127.023.718V27.764H121.5V.718Z" transform="translate(-43.119 -0.255)"/><path class="a" d="M158.532,16.914a7.2,7.2,0,0,1-7.457,5.747c-5.769,0-7.593-4.467-7.593-8.661s1.851-8.661,7.593-8.661a7.171,7.171,0,0,1,7.457,5.747h5.661C163.077,4.44,158.178,0,151.293,0c-7.838,0-13.553,5.747-13.553,14,0,8.226,5.688,14,13.553,14,6.885,0,11.784-4.412,12.9-11.058h-5.661Z" transform="translate(-48.883)"/><path class="a" d="M236.961.718V27.764h-5.525V.718Z" transform="translate(-82.135 -0.255)"/><path class="a" d="M191.442.718V11.694h12.138V.718h5.552V27.764h-5.525V16.542H191.442V27.764h-5.525V.718Z" transform="translate(-65.98 -0.255)"/><path class="a" d="M8.273,0a8.28,8.28,0,1,0,8.273,8.28A8.273,8.273,0,0,0,8.273,0Zm0,11.658a3.4,3.4,0,1,1,3.4-3.4A3.44,3.44,0,0,1,8.273,11.658Z"/><path class="a" d="M94.171,27.764h5.851L90.824.718H82.332L73.025,27.764h5.851L80.7,22.208H92.348Zm-11.893-10.3L86.551,4.531,90.8,17.469Z" transform="translate(-25.916 -0.255)"/></g></g></symbol><symbol id="logo-daichi" viewBox="0 0 160 42"><g transform="translate(-1502 -3501)"><rect class="a" width="160" height="42" transform="translate(1502 3501)"/><g transform="translate(1504 3508)"><path d="M157.13,720.436a14.725,14.725,0,0,1,5.559,1.046,14.523,14.523,0,0,1,4.51,2.956,13.846,13.846,0,0,1,3.029,4.4,13.924,13.924,0,0,1,0,10.8,13.9,13.9,0,0,1-3.029,4.391,13.652,13.652,0,0,1-4.51,2.917,13.991,13.991,0,0,1-5.559,1.09H146.564v-27.6Zm3.5,21.728a7.7,7.7,0,0,0,2.679-1.829,9.019,9.019,0,0,0,2.335-6.1,8.876,8.876,0,0,0-.623-3.383,8.519,8.519,0,0,0-1.711-2.718,8.251,8.251,0,0,0-2.679-1.865,9.208,9.208,0,0,0-3.5-.662H152.2v17.259h4.931a8.525,8.525,0,0,0,3.5-.7" transform="translate(-124.384 -719.97)"/><rect width="5.64" height="27.598" transform="translate(79.991 0.467)"/><path d="M195.8,737.485a7.3,7.3,0,0,1-7.6,5.85c-5.877,0-7.762-4.559-7.762-8.825s1.885-8.823,7.762-8.823a7.307,7.307,0,0,1,7.6,5.847h5.764c-1.125-6.779-6.126-11.289-13.157-11.289-8.009,0-13.82,5.865-13.82,14.265s5.811,14.265,13.82,14.265c7.031,0,12.033-4.513,13.157-11.289Z" transform="translate(-83.902 -720.245)"/><rect width="5.64" height="27.598" transform="translate(152.36 0.467)"/><path d="M205.6,720.436V731.65H193.2V720.436h-5.635v27.6H193.2V736.583h12.4v11.451h5.635v-27.6Z" transform="translate(-65.149 -719.969)"/><path d="M145.923,720.245a8.432,8.432,0,1,0,8.432,8.432,8.431,8.431,0,0,0-8.432-8.432m0,11.9a3.464,3.464,0,1,1,3.464-3.464,3.464,3.464,0,0,1-3.464,3.464" transform="translate(-137.491 -720.245)"/><rect width="13.45" height="4.86" transform="translate(55.293 17.55)"/><path d="M166.653,720.435l-9.5,27.6h5.982l9.128-27.6Z" transform="translate(-109.082 -719.971)"/><path d="M162.287,720.435l9.05,27.6h5.982l-9.419-27.6Z" transform="translate(-101.669 -719.971)"/></g></g></symbol><symbol id="logo-daikin" viewBox="0 0 160 42"><g transform="translate(-1502 -3437)"><rect class="a" width="160" height="42" transform="translate(1502 3437)"/><g transform="translate(1502 3441)"><path class="b" d="M39.685,717.941H75.834L39.685,751.466Z" transform="translate(-39.685 -717.941)"/><path class="c" d="M57.755,717.941H39.685V734.7Z" transform="translate(-39.685 -717.941)"/><path class="b" d="M106.622,721.639h8.506l-4.694,19.139h-8.508Z" transform="translate(19.163 -714.413)"/><path class="b" d="M88.824,740.777h7.727l1.4-5.786,4.272,5.786h9.449l-6.809-9.719,10.589-9.42H106.51L99.74,727.5l1.445-5.862H93.124Z" transform="translate(6.775 -714.413)"/><path class="b" d="M82.062,740.777l4.7-19.139h8.506l-4.7,19.139Z" transform="translate(0.381 -714.413)"/><path class="b" d="M108.381,740.777h5.889l2.735-10.919,3.445,10.919h9.519l4.764-19.139h-6.282l-2.677,10.549-3.689-10.549h-8.965Z" transform="translate(25.266 -714.413)"/><path class="b" d="M68.733,736.32a5.6,5.6,0,0,0,4.7-4.621s.547-3.31-.7-4.523a3.037,3.037,0,0,0-2.068-.739H67.4l-2.348,9.883Zm-12.916,4.457,4.763-19.139H73.361s8.8.705,7.881,9.654c-.025.26-.449,7.97-9.832,9.484Z" transform="translate(-24.433 -714.414)"/><path class="b" d="M82.3,732.751l-.872-4.9-2.677,4.9Zm-5.916,4.385-2.3,3.642H68.481L79.1,721.639h9.712l3.377,19.139H83.716l-.646-3.642Z" transform="translate(-12.459 -714.412)"/></g></g></symbol><symbol id="logo-kent" viewBox="0 0 160.16 42"><g transform="translate(-1502 -3501)"><rect class="a" width="160" height="42" transform="translate(1502 3501)"/><g transform="translate(1504.16 3510)"><path class="b" d="M235.768,722.241h4.548v6.969h.049l5.136-6.969h5.478l-6.311,7.947,6.8,9.121h-5.8l-5.306-7.752h-.049v7.752h-4.548Z" transform="translate(-203.518 -719.237)"/><path class="b" d="M245.571,722.241H257.6v3.226h-7.484v3.524h7.069v3.228h-7.069v3.863h7.752v3.228h-12.3Z" transform="translate(-195.544 -719.237)"/><path class="b" d="M254.054,722.241h5.8l5.772,11.592h.047l-.073-11.592h4.158v17.068h-5.649l-5.968-11.664h-.049l.147,11.664h-4.182Z" transform="translate(-188.644 -719.237)"/><path class="b" d="M268.145,725.616h-4.207v-3.375H276.9v3.375h-4.207V739.31h-4.548Z" transform="translate(-180.604 -719.237)"/><path class="b" d="M279.774,725.764h-.047l-2.2,6.675H281.8Zm-2.787-3.522h5.574l6.579,17.068h-4.987l-1.273-3.643h-6.409l-1.344,3.643h-4.621Z" transform="translate(-175.261 -719.237)"/><path class="b" d="M284.492,725.616h-4.207v-3.375h12.962v3.375H289.04V739.31h-4.548Z" transform="translate(-167.307 -719.237)"/><path class="b" d="M288.9,735.237a9.993,9.993,0,0,0,4.695,1.124c1.444,0,2.814-.294,2.814-1.663,0-3.179-8.072-1.175-8.072-7.384,0-4.109,4.011-5.235,7.435-5.235a14.472,14.472,0,0,1,4.4.636l-.294,3.522a9.169,9.169,0,0,0-3.79-.783c-1.151,0-3.056.1-3.056,1.59,0,2.764,8.07.9,8.07,7.067,0,4.427-3.718,5.625-7.509,5.625a17.949,17.949,0,0,1-5.087-.733Z" transform="translate(-160.758 -719.37)"/><path class="b" d="M311.825,732.83c0,4.671-3.032,6.775-7.482,6.775s-7.484-2.1-7.484-6.775V722.241h4.548v9.831c0,2.25.611,4.158,2.936,4.158s2.934-1.908,2.934-4.158v-9.831h4.548Z" transform="translate(-153.825 -719.238)"/><rect class="c" width="6.196" height="6.2" transform="translate(8.441)"/><rect class="c" width="6.196" height="6.202" transform="translate(8.441 16.847)"/><rect class="c" width="6.198" height="6.195" transform="matrix(0.864, -0.503, 0.503, 0.864, 0, 14.627)"/><rect class="c" width="6.199" height="6.198" transform="translate(0.013 8.376) rotate(-59.585)"/><rect class="c" width="6.196" height="6.199" transform="translate(14.625 16.864) rotate(-59.812)"/><rect class="c" width="6.199" height="6.199" transform="translate(14.601 6.168) rotate(-30.406)"/></g></g></symbol><symbol id="logo-midea" viewBox="0 0 160 42"><g transform="translate(-1502 -3373)"><rect class="a" width="160" height="42" transform="translate(1502 3373)"/><g transform="translate(1557 3373)"><path class="b" d="M117.941,776a4.933,4.933,0,0,1-1.319.758,5.33,5.33,0,0,1-2.006.353,3.712,3.712,0,0,1-2.9-1.206,5.307,5.307,0,0,1-1.051-3.568,5,5,0,0,1,.993-3.418,3.934,3.934,0,0,1,3.043-1.12,5.816,5.816,0,0,1,1.994.334,3.551,3.551,0,0,1,1.234.68.729.729,0,0,1,.208.511l0,6.163a.751.751,0,0,1-.2.513m3.512-16.665h-3.006c-.3,0-.307.349-.307.349v6.17l-.429-.227a5.153,5.153,0,0,0-1.452-.511,9.74,9.74,0,0,0-1.793-.147,7.97,7.97,0,0,0-5.7,2.048,7.605,7.605,0,0,0-2.12,5.7,8.127,8.127,0,0,0,1.781,5.33,6.4,6.4,0,0,0,5.173,2.1,5.38,5.38,0,0,0,4.538-1.961l.009,1.9h3.631v-3.56c0-3.968,0-16.834,0-16.834s.015-.361-.319-.361m-18.033,0h-2.934a.347.347,0,0,0-.358.424c0,.465,0,2.7,0,3.159h3.628v-3.207a.326.326,0,0,0-.337-.377M151.507,776.6a.5.5,0,0,1-.269.5,7.04,7.04,0,0,1-3.49.593,2.529,2.529,0,0,1-2.4-1.811,2.649,2.649,0,0,1,1.728-3.084,7.735,7.735,0,0,1,4.083.1c.274.075.344.233.344.559Zm-2.692-11.672c-4.262,0-5.763,2.585-6.237,3.824l-.165.448,1.418.484s.917-2.621,4.529-2.471c3.652.148,3.224,3.137,3.2,3.614a10.71,10.71,0,0,0-6.773.307,4.67,4.67,0,0,0-2.645,4.833c.109,2.35,2.184,4,4.884,4.153,2.423.136,3.514-.394,4.516-1.4l-.027,1.368h3.2V769.76c.068-1.781-1.191-4.833-5.892-4.833m-20.281,6.131c-.169-.005-.184-.17-.181-.252a3.921,3.921,0,0,1,1.075-2.161,3.963,3.963,0,0,1,2.846-1.113,3.713,3.713,0,0,1,2.52.888,4.022,4.022,0,0,1,1.227,2.21c.034.107.094.416-.158.416Zm9.028-3.834a6.6,6.6,0,0,0-5.247-2.251,7.705,7.705,0,0,0-5.529,2.121,7.34,7.34,0,0,0-2.185,5.529,7.171,7.171,0,0,0,2.14,5.437,8.506,8.506,0,0,0,6.036,2.028c4.981,0,6.063-3.432,6.472-4.568l-1.288-.416c-1.147,2.094-3.722,2.22-5.224,2.123a5.38,5.38,0,0,1-2.82-1,3.967,3.967,0,0,1-1.554-2.638l-.07-.462H139.5a8.953,8.953,0,0,0-1.937-5.909m-84.606.693c0-10.8,9.106-19.579,20.3-19.579a20.558,20.558,0,0,1,17.1,9.1,20.023,20.023,0,0,0-18.923-12.971c-11.033,0-20.008,8.607-20.008,19.185a18.508,18.508,0,0,0,2.023,8.326,18.892,18.892,0,0,1-.491-4.062m40.805-8.6H90.108a.32.32,0,0,0-.348.371,18.331,18.331,0,0,1,.169,2.861,20.646,20.646,0,0,1-4.355,13.593l-.278.344s-2.353-16.461-2.4-16.786c0,0-.014-.383-.331-.383H78.882c-.348,0-.325.368-.325.368-.085,1.9-1.147,17.752-12.712,20.312a13.178,13.178,0,0,0,8.048-2.108,13.031,13.031,0,0,0,6.073-8.293s1.413,8.837,1.6,10.868l.012.13-.114.06a22.571,22.571,0,0,1-31.347-11,21.317,21.317,0,0,0,20.833,16.759c11.792,0,18.8-9.869,20.012-16.88,0,0,1.588,10.222,1.629,10.556h4.824c-.072-.44-3.267-20.085-3.319-20.405,0,0-.017-.37-.332-.37m6.368,5.727v15.048l3.556-.005,0-15.043Z" transform="translate(-50.115 -744.469)"/></g></g></symbol><symbol id="search-close" viewBox="0 0 24 24"><path class="a" d="M346.52,368.872l-.92-.92-7,7-7-7-.92.92,7,7-7,7,.92.92,7-7,7,7,.92-.92-7-7Z" transform="translate(-326.602 -363.869)"/><rect class="b" width="24" height="24"/></symbol><symbol id="search-grey" viewBox="0 0 24 24"><rect class="a" width="24" height="24"/><g transform="translate(2.8 2.535)"><path class="a" d="M583.268,262.27a5.249,5.249,0,1,0,0,7.423A5.256,5.256,0,0,0,583.268,262.27Z" transform="translate(-573.258 -259.683)"/><path class="b" d="M592.514,278l-5.2-5.2a7.957,7.957,0,1,0-.937.937l5.2,5.2Zm-15.939-5.625a6.629,6.629,0,1,1,9.375,0A6.636,6.636,0,0,1,576.575,272.376Z" transform="translate(-573.308 -259.733)"/></g></symbol><symbol id="search-white" viewBox="0 0 24 24"><rect class="a" width="24" height="24"/><g transform="translate(2.8 2.535)"><path class="a" d="M583.268,262.27a5.249,5.249,0,1,0,0,7.423A5.256,5.256,0,0,0,583.268,262.27Z" transform="translate(-573.258 -259.683)"/><path class="b" d="M592.514,278l-5.2-5.2a7.957,7.957,0,1,0-.937.937l5.2,5.2Zm-15.939-5.625a6.629,6.629,0,1,1,9.375,0A6.636,6.636,0,0,1,576.575,272.376Z" transform="translate(-573.308 -259.733)"/></g></symbol><symbol id="warning-dark" viewBox="0 0 24 24">
<path fill-rule="evenodd" clip-rule="evenodd" d="M12 4V4C16.4187 4 20 7.58133 20 12V12C20 16.4187 16.4187 20 12 20V20C7.58133 20 4 16.4187 4 12V12C4 7.58133 7.58133 4 12 4Z" stroke="currentColor" stroke-width="1.5" stroke-linecap="round" stroke-linejoin="round" fill="none"/>
<path d="M12 12V8" stroke="currentColor" stroke-width="1.5" stroke-linecap="round" stroke-linejoin="round" fill="none"/>
<path d="M12 15.25C12 15.25 12 15.362 12 15.5C12 15.638 12 15.75 12 15.75C12 15.75 12 15.638 12 15.5C12 15.362 12 15.25 12 15.25" stroke="currentColor" stroke-width="1.5" stroke-linecap="round" stroke-linejoin="round" fill="none"/>
</symbol><symbol id="warning" viewBox="0 0 36 36">
  
  <g id="Group_1730" data-name="Group 1730" transform="translate(-930 -265)">
    <g id="Group_1729" data-name="Group 1729" transform="translate(936 293.354)">
      <g id="Group_1728" data-name="Group 1728" transform="translate(0 -22.677)" clip-path="url(#clip-path)">
        <g id="Group_1727" data-name="Group 1727" transform="translate(1.058 1.058)">
          <path id="Path_2849" data-name="Path 2849" d="M.6.26V9.15m0,1.189v2.38M11.545,6.489A10.942,10.942,0,1,1,.6-4.453,10.942,10.942,0,0,1,11.545,6.489Z" transform="translate(10.339 4.453)" fill="none" stroke="red" stroke-width="2"/>
        </g>
      </g>
    </g>
    <rect id="Rectangle_772" data-name="Rectangle 772" width="36" height="36" transform="translate(930 265)" fill="none"/>
  </g>
</symbol><symbol id="wire-a" viewBox="0 0 12 12">
<circle cx="6" cy="6" r="6" fill="#1A1A1A"/>
<path d="M2.91943 9H4.23343L4.69243 7.677H7.23043L7.68943 9H9.08443L6.64543 2.475H5.34943L2.91943 9ZM5.96143 4.05L6.86143 6.624H5.06143L5.96143 4.05Z" fill="white"/>
</symbol><symbol id="wire-b" viewBox="0 0 12 12">
<circle cx="6" cy="6" r="6" fill="#1A1A1A"/>
<path d="M3.59672 9H6.24272C7.58372 9 8.74472 8.478 8.74472 7.074C8.74472 6.174 8.27672 5.796 7.77272 5.553C8.10572 5.337 8.51072 4.788 8.51072 4.176C8.51072 2.835 7.27772 2.475 6.13472 2.475H3.59672V9ZM4.88372 6.138H6.25172C7.05272 6.138 7.43072 6.462 7.43072 7.074C7.43072 7.677 7.06172 7.992 6.30572 7.992H4.88372V6.138ZM4.88372 3.483H6.21572C6.81872 3.483 7.18772 3.789 7.18772 4.302C7.18772 4.878 6.82772 5.166 6.21572 5.166H4.88372V3.483Z" fill="white"/>
</symbol><symbol id="wire-c" viewBox="0 0 12 12">
<circle cx="6" cy="6" r="6" fill="#1A1A1A"/>
<path d="M7.77863 6.858C7.56263 7.749 6.93263 8.091 6.15863 8.091C5.22263 8.091 4.45763 7.263 4.45763 5.706C4.45763 4.194 5.22263 3.384 6.20363 3.384C6.92363 3.384 7.53563 3.681 7.77863 4.59H9.00263C8.78663 3.231 7.74263 2.358 6.21263 2.358C4.31363 2.358 3.12563 3.645 3.12563 5.706C3.12563 7.794 4.23263 9.117 6.17663 9.117C7.73363 9.117 8.83163 8.181 9.00263 6.858H7.77863Z" fill="white"/>
</symbol><symbol id="wire-d" viewBox="0 0 12 12">
<circle cx="6" cy="6" r="6" fill="#1A1A1A"/>
<path d="M7.58063 5.733C7.58063 7.704 6.41963 7.992 5.23163 7.992H4.63763V3.483H5.23163C6.41963 3.483 7.58063 3.78 7.58063 5.733ZM3.35063 2.475V9H5.28563C7.35563 9 8.91263 8.325 8.91263 5.733C8.91263 3.141 7.35563 2.475 5.28563 2.475H3.35063Z" fill="white"/>
</symbol><symbol id="wire-e" viewBox="0 0 12 12">
<circle cx="6" cy="6" r="6" fill="#1A1A1A"/>
<path d="M3.80766 9H8.55966V7.956H5.09466V6.183H8.37066V5.139H5.09466V3.519H8.55966V2.475H3.80766V9Z" fill="white"/>
</symbol><symbol id="wire-f" viewBox="0 0 12 12">
<circle cx="6" cy="6" r="6" fill="#1A1A1A"/>
<path d="M3.91752 9H5.20452V6.183H8.48052V5.139H5.20452V3.519H8.66952V2.475H3.91752V9Z" fill="white"/>
</symbol><symbol id="wire-g" viewBox="0 0 12 12">
<circle cx="6" cy="6" r="6" fill="#1A1A1A"/>
<path d="M6.10969 2.358C4.11169 2.358 2.91469 3.681 2.91469 5.706C2.91469 7.794 4.05769 9.117 5.89369 9.117C6.82069 9.117 7.48669 8.775 7.85569 8.235L7.89169 9H8.90869V5.535H6.09169V6.588H7.72069V6.696C7.72069 7.74 6.78469 8.091 6.09169 8.091C4.97569 8.091 4.24669 7.263 4.24669 5.706C4.24669 4.149 5.01169 3.384 6.10069 3.384C6.82969 3.384 7.45969 3.735 7.66669 4.455H8.89069C8.67469 3.249 7.64869 2.358 6.10969 2.358Z" fill="white"/>
</symbol><symbol id="wire-h" viewBox="0 0 12 12">
<circle cx="6" cy="6" r="6" fill="#1A1A1A"/>
<path d="M7.46155 2.475V5.139H4.53655V2.475H3.24955V9H4.53655V6.183H7.46155V9H8.74855V2.475H7.46155Z" fill="white"/>
</symbol><symbol id="wire-i" viewBox="0 0 12 12">
<circle cx="6" cy="6" r="6" fill="#1A1A1A"/>
<path d="M6.64153 2.475H5.35453V9H6.64153V2.475Z" fill="white"/>
</symbol><symbol id="wire-j" viewBox="0 0 12 12">
<circle cx="6" cy="6" r="6" fill="#1A1A1A"/>
<path d="M5.76062 9.117C7.19162 9.117 8.00162 8.244 8.00162 6.867V2.475H6.71462V6.867C6.71462 7.758 6.32762 8.064 5.76062 8.064C5.18462 8.064 4.82462 7.758 4.79762 6.867H3.51062C3.53762 8.19 4.32962 9.117 5.76062 9.117Z" fill="white"/>
</symbol><symbol id="wire-k" viewBox="0 0 12 12">
<circle cx="6" cy="6" r="6" fill="#1A1A1A"/>
<path d="M4.80901 2.475H3.52201V9H4.80901V7.038L5.70901 6.057L7.63501 9H9.15601L6.57301 5.103L8.97601 2.475H7.47301L4.80901 5.463V2.475Z" fill="white"/>
</symbol><symbol id="wire-l" viewBox="0 0 12 12">
<circle cx="6" cy="6" r="6" fill="#1A1A1A"/>
<path d="M5.34954 2.475H4.06254V9H8.52654V7.956H5.34954V2.475Z" fill="white"/>
</symbol><symbol id="wire-m" viewBox="0 0 12 12">
<circle cx="6" cy="6" r="6" fill="#1A1A1A"/>
<path d="M6.64561 9L8.24761 4.095V9H9.44461V2.475H7.55461L6.01561 7.56L4.43161 2.475H2.55961V9H3.75661V4.095L5.36761 9H6.64561Z" fill="white"/>
</symbol></svg>