<svg xmlns="http://www.w3.org/2000/svg" width="188.684" height="100" viewBox="0 0 188.684 100"><defs><style>.a{fill:#1e1d1d;}.b{fill:#2b2e34;}.c{fill:#1e1d1e;}.d{fill:#5ea9ff;}.e{fill:#fff;}</style></defs><g transform="translate(-1321.446 -33.416)"><path class="a" d="M1478.4,84.524c.007.007.017.009.024.016-.024-.022-.042-.051-.064-.075C1478.372,84.483,1478.379,84.506,1478.4,84.524Z" transform="translate(-3.624 -1.179)"/><path class="a" d="M1481.426,84.785h0c-.5-.335-.979-.692-1.452-1.06C1480.449,84.093,1480.93,84.45,1481.426,84.785Z" transform="translate(-3.661 -1.162)"/><path class="a" d="M1493.188,84.733h0V82.884h0Z" transform="translate(-3.966 -1.142)"/><path class="a" d="M1493.022,84.81h0Z" transform="translate(-3.962 -1.187)"/><path class="a" d="M1478.4,83.135c-.018.018-.024.041-.04.06a.843.843,0,0,1,.113-.108A.625.625,0,0,0,1478.4,83.135Z" transform="translate(-3.624 -1.147)"/><path class="a" d="M1478.111,83.823a.428.428,0,0,0,.012.062.981.981,0,0,1,0-.141C1478.125,83.771,1478.111,83.8,1478.111,83.823Z" transform="translate(-3.618 -1.162)"/><path class="a" d="M1493.022,82.85h0Z" transform="translate(-3.962 -1.142)"/><path class="a" d="M1481.7,47.323c-.018,0-.034.009-.053.01.019,0,.035-.01.054-.01Z" transform="translate(-3.7 -0.321)"/><path class="a" d="M1484.057,49.263h-2.366a.96.96,0,0,1-.677-.279v0a.96.96,0,0,0,.674.278h2.371c.3-.279.62-.538.941-.8C1484.679,48.726,1484.36,48.985,1484.057,49.263Z" transform="translate(-3.685 -0.348)"/><path class="a" d="M1493.978,48.28a.958.958,0,0,1-.957.957h0a.957.957,0,1,0,0-1.915h0A.957.957,0,0,1,1493.978,48.28Z" transform="translate(-3.962 -0.321)"/><path class="a" d="M1480.724,48.3h0c0-.032.016-.062.019-.094C1480.74,48.235,1480.724,48.264,1480.724,48.3Z" transform="translate(-3.678 -0.341)"/><path class="b" d="M1472.184,49.283h0Z" transform="translate(-3.481 -0.366)"/><path class="b" d="M1421.639,49.238h38.385q.366-.969.782-1.915h10.188a.958.958,0,0,1,.883,1.328.957.957,0,0,0-.881-1.332h-49.351a.959.959,0,1,0,0,1.919Z" transform="translate(-2.292 -0.321)"/><path class="c" d="M1463.38,84.765h2.9a.958.958,0,0,0,.957-.957v0h0a.958.958,0,0,0-.957-.957h-101.92v1.919Z" transform="translate(-0.991 -1.142)"/><path class="c" d="M1510.441,81.117l0,0V42.766h0V37.755a4.339,4.339,0,0,0-3.432-4.241c-.011,0-.02-.007-.03-.01a4.527,4.527,0,0,0-.532-.054c-.114-.01-.225-.035-.342-.035H1339.345A4.34,4.34,0,0,0,1335,37.752v21.9h2.878v-21.9a1.466,1.466,0,0,1,1.465-1.465H1497.7l.011,0h8.39a1.466,1.466,0,0,1,1.465,1.465v2.7h0V52.348l0,0h0V83.428l0,0v0h0V87a1.465,1.465,0,0,1-1.465,1.465H1492.41v0h0v-.393h0V79.647h0V73.661H1363.684v2.872H1489.54V87.892h0v.575H1363.684v2.878H1506.1A4.346,4.346,0,0,0,1510.443,87Z" transform="translate(-0.313)"/><path class="c" d="M1471.924,47.323h-10.188q-.416.947-.782,1.915h10.971a.957.957,0,0,0,0-1.915Z" transform="translate(-3.222 -0.321)"/><path class="c" d="M1492.84,82.865a.782.782,0,0,0-.158-.014H1479.07a.827.827,0,0,0-.17.015h0a.77.77,0,0,0-.093.036.877.877,0,0,0-.343.179.875.875,0,0,0-.235.29.874.874,0,0,0-.058.127.971.971,0,0,0-.046.226.981.981,0,0,0,0,.141.772.772,0,0,0,0,.106.845.845,0,0,0,.049.137.9.9,0,0,0,.037.1.939.939,0,0,0,.145.218c.022.024.04.053.064.075a.919.919,0,0,0,.242.161c.02.009.035.024.056.032a.967.967,0,0,0,.357.071h2.317l0,0c-.5-.335-.977-.692-1.449-1.06.473.368.954.725,1.452,1.06h11.3a.96.96,0,0,0,.158-.013V82.865Z" transform="translate(-3.618 -1.142)"/><path class="c" d="M1480.8,48.645a.759.759,0,0,0,.045.067.97.97,0,0,0,.163.244h0a.96.96,0,0,0,.677.279h2.366c.3-.278.622-.537.944-.794-.32.257-.639.516-.941.8h8.684a.957.957,0,0,0,0-1.915h-11.054c-.019,0-.035.009-.054.01a.911.911,0,0,0-.887.85c0,.032-.019.062-.019.094v0A.954.954,0,0,0,1480.8,48.645Z" transform="translate(-3.678 -0.321)"/><path class="d" d="M1450.2,98.561h-.02a1.364,1.364,0,0,0-1.368,1.36v21.422a1.361,1.361,0,1,0,2.722,0V99.953A1.364,1.364,0,0,0,1450.2,98.561Z" transform="translate(-2.941 -1.504)"/><path class="d" d="M1365.011,122.241a69.835,69.835,0,0,0,8.68-11.391,52.926,52.926,0,0,0,4.973-10.782,1.361,1.361,0,1,0-2.588-.847,50.111,50.111,0,0,1-4.713,10.223,67.079,67.079,0,0,1-7,9.448v3.734A1.364,1.364,0,0,0,1365.011,122.241Z" transform="translate(-0.991 -1.498)"/><path class="d" d="M1424.371,98.521h0a1.363,1.363,0,0,0-1.3,1.416v21.388a1.36,1.36,0,1,0,2.721,0V99.937a.687.687,0,0,0,0-.107A1.363,1.363,0,0,0,1424.371,98.521Z" transform="translate(-2.347 -1.504)"/><path class="d" d="M1398.7,98.561h-.026a1.363,1.363,0,0,0-1.367,1.36v21.422a1.364,1.364,0,0,0,2.728,0V99.953A1.363,1.363,0,0,0,1398.7,98.561Z" transform="translate(-1.752 -1.504)"/><path class="d" d="M1477.455,109.439a50.131,50.131,0,0,1-4.715-10.222l-.02-.065a1.365,1.365,0,0,0-2.575.909,53,53,0,0,0,4.974,10.782,69.684,69.684,0,0,0,8.68,11.391,1.358,1.358,0,0,0,2-1.839A67.086,67.086,0,0,1,1477.455,109.439Z" transform="translate(-3.432 -1.497)"/><path class="d" d="M1364.447,66.742h1.954a8.1,8.1,0,0,0-8.094-8.093V60.6A6.147,6.147,0,0,1,1364.447,66.742Z" transform="translate(-0.851 -0.583)"/><path class="d" d="M1370.515,66.6h1.954a14.178,14.178,0,0,0-14.162-14.161v1.954A12.221,12.221,0,0,1,1370.515,66.6Z" transform="translate(-0.851 -0.439)"/><path class="d" d="M1376.9,66.447h1.954A20.573,20.573,0,0,0,1358.307,45.9v1.954A18.617,18.617,0,0,1,1376.9,66.447Z" transform="translate(-0.851 -0.288)"/><path class="e" d="M1334.849,91.572a1.468,1.468,0,1,0,1.469,1.468h0A1.468,1.468,0,0,0,1334.849,91.572Z" transform="translate(-0.276 -1.343)"/><path class="e" d="M1348,92.939a3.477,3.477,0,0,0-1.135-.79,3.911,3.911,0,0,0-1.482-.282h-2.091v7.313h2.091a3.6,3.6,0,0,0,1.482-.3v0A3.219,3.219,0,0,0,1348,98.1a3.81,3.81,0,0,0,.989-2.584,3.731,3.731,0,0,0-.264-1.43A3.559,3.559,0,0,0,1348,92.939Z" transform="translate(-0.505 -1.35)"/><path class="e" d="M1357.58,69.571a3.339,3.339,0,0,0-3.336-3.335h-26.461a3.339,3.339,0,0,0-3.336,3.335v58.336a3.34,3.34,0,0,0,3.336,3.336h26.461a3.34,3.34,0,0,0,3.336-3.336Zm-22.934,26.462a3.575,3.575,0,1,1,3.576-3.575A3.576,3.576,0,0,1,1334.646,96.034Zm15.85,1.189a5.878,5.878,0,0,1-1.286,1.861,5.793,5.793,0,0,1-1.907,1.237,5.954,5.954,0,0,1-2.354.46h-4.479V89.086h4.479a6.246,6.246,0,0,1,2.354.444,6.1,6.1,0,0,1,1.907,1.253,5.854,5.854,0,0,1,1.286,1.861A5.924,5.924,0,0,1,1350.5,97.222Z" transform="translate(-0.069 -0.758)"/><path class="c" d="M1360.441,69.5a6.273,6.273,0,0,0-6.267-6.266h-26.461a6.273,6.273,0,0,0-6.267,6.266v58.336a6.274,6.274,0,0,0,6.267,6.267h26.461a6.274,6.274,0,0,0,6.267-6.267Zm-6.267,61.672h-26.461a3.34,3.34,0,0,1-3.336-3.336V69.5a3.339,3.339,0,0,1,3.336-3.335h26.461a3.339,3.339,0,0,1,3.336,3.335v58.336A3.34,3.34,0,0,1,1354.174,131.174Z" transform="translate(0 -0.689)"/><path class="c" d="M1349.589,91.324a6.1,6.1,0,0,0-1.907-1.253,6.246,6.246,0,0,0-2.354-.444h-4.479v11.695h4.479a5.954,5.954,0,0,0,2.354-.46,5.793,5.793,0,0,0,1.907-1.237,5.776,5.776,0,0,0,0-8.3Zm-1.644,6.729a3.219,3.219,0,0,1-1.136.775v0a3.6,3.6,0,0,1-1.482.3h-2.091V91.814h2.091a3.911,3.911,0,0,1,1.482.282,3.477,3.477,0,0,1,1.135.79,3.559,3.559,0,0,1,.725,1.152,3.731,3.731,0,0,1,.264,1.43A3.81,3.81,0,0,1,1347.945,98.053Z" transform="translate(-0.448 -1.298)"/><path class="c" d="M1334.8,89.418a3.575,3.575,0,1,0,3.576,3.575A3.576,3.576,0,0,0,1334.8,89.418Zm1.466,3.573a1.468,1.468,0,1,1-1.469-1.468,1.467,1.467,0,0,1,1.469,1.468Z" transform="translate(-0.226 -1.293)"/></g></svg>