<svg xmlns="http://www.w3.org/2000/svg" xmlns:xlink="http://www.w3.org/1999/xlink" width="100" height="100" viewBox="0 0 100 100"><defs><style>.a{fill:url(#a);}.b{fill:#fff;}.c{fill:#231f20;}</style><linearGradient id="a" x1="0.5" x2="0.5" y2="1" gradientUnits="objectBoundingBox"><stop offset="0" stop-color="#7fb0f8"/><stop offset="1" stop-color="#d5d3ff"/></linearGradient></defs><g transform="translate(-1282.057 -2030.057)"><g transform="translate(1282.057 2030.057)"><rect class="a" width="100" height="100" rx="10"/><g transform="translate(13.017 14.692)"><path class="b" d="M333.338,260.528a2.192,2.192,0,0,0,3.069.336l2.023-1.625v33.955a3.974,3.974,0,0,0,3.961,3.964h56.32a3.975,3.975,0,0,0,3.964-3.964V259.307l1.961,1.577a2.212,2.212,0,0,0,1.365.477,2.154,2.154,0,0,0,1.7-.833,2.2,2.2,0,0,0-.336-3.073L372.9,229.741l-.792-.394a3.9,3.9,0,0,0-3.134.01l-.83.384-34.469,27.718a2.192,2.192,0,0,0-.336,3.069" transform="translate(-332.861 -229.023)"/><path class="c" d="M358.657,260.687a8.244,8.244,0,0,0,2.915-1.982,8.982,8.982,0,0,0,1.841-2.97,9.492,9.492,0,0,0,.672-3.607,9.3,9.3,0,0,0-.672-3.645,8.847,8.847,0,0,0-1.841-2.932,8.689,8.689,0,0,0-2.915-2,10.041,10.041,0,0,0-3.782-.713h-5.329V261.5h5.329a10.131,10.131,0,0,0,3.782-.813m-3.782-23.476a16.029,16.029,0,0,1,6,1.128,15.659,15.659,0,0,1,4.876,3.193,14.719,14.719,0,0,1,3.268,4.753,14.125,14.125,0,0,1,1.169,5.843,14.45,14.45,0,0,1-1.169,5.843,15.954,15.954,0,0,1-3.268,4.756,14.236,14.236,0,0,1-4.876,3.131,14.926,14.926,0,0,1-6,1.169H343.445V237.211Z" transform="translate(-307.151 -209.131)"/><path class="c" d="M345.574,249.917a3.743,3.743,0,1,1,3.745-3.745,3.741,3.741,0,0,1-3.745,3.745m0-12.856a9.113,9.113,0,1,0,9.111,9.111,9.116,9.116,0,0,0-9.111-9.111" transform="translate(-324.121 -209.496)"/></g></g></g></svg>