<svg xmlns="http://www.w3.org/2000/svg" width="200" height="77.057" viewBox="0 0 200 77.057"><defs><style>.a{fill:#fff;}.b{fill:#2b2e34;}.c{fill:#1e1d1d;}.d{fill:#1e1d1e;}.e{fill:#dfdedf;}.f{fill:#5ea9ff;}.g{fill:#edf4fa;}.h{fill:#f0f5fa;}.i{fill:#d1d7de;}.j{fill:#dfedf7;}.k{fill:#c9d3dd;}</style></defs><g transform="translate(-16133.348 22175.498)"><g transform="translate(16134.814 -22164.633)"><path class="a" d="M1.643,31.192a2.975,2.975,0,0,1-2.969-2.969V-22.193a2.975,2.975,0,0,1,2.969-2.969H172.352a2.972,2.972,0,0,1,2.969,2.969V28.222a2.972,2.972,0,0,1-2.969,2.969Z" transform="translate(1.326 25.162)"/></g><g transform="translate(16133.348 -22166.104)"><path class="b" d="M96.946,0h-170.7A4.442,4.442,0,0,0-78.2,4.442V54.856A4.442,4.442,0,0,0-73.758,59.3h170.7a4.442,4.442,0,0,0,4.442-4.442V4.442A4.442,4.442,0,0,0,96.946,0m0,2.94a1.5,1.5,0,0,1,1.5,1.5V54.856a1.5,1.5,0,0,1-1.5,1.5h-170.7a1.5,1.5,0,0,1-1.5-1.5V4.442a1.5,1.5,0,0,1,1.5-1.5Z" transform="translate(78.2)"/></g><g transform="translate(16157.331 -22116.67)"><path class="b" d="M60.722,1.085H-48.007A.977.977,0,0,1-48.7.8.977.977,0,0,1-48.983.1a.978.978,0,0,1,.976-.979H60.722a.98.98,0,0,1,0,1.96" transform="translate(48.983 0.875)"/></g><g transform="translate(16276.456 -22116.67)"><path class="c" d="M8.254,1.085H-5.677A.978.978,0,0,1-6.372.8.978.978,0,0,1-6.658.1.979.979,0,0,1-6.37-.589a.979.979,0,0,1,.694-.286H8.254a.98.98,0,0,1,0,1.96" transform="translate(6.658 0.875)"/></g><g transform="translate(16279.069 -22152.197)"><path class="c" d="M6.807,1.085H-4.51A.98.98,0,0,1-5.2.8.98.98,0,0,1-5.491.1.979.979,0,0,1-5.2-.589.979.979,0,0,1-4.51-.875H6.807a.98.98,0,1,1,0,1.96" transform="translate(5.491 0.875)"/></g><g transform="translate(16219.023 -22152.197)"><path class="b" d="M28.506,1.085H-22.016a.98.98,0,0,1-.7-.286A.98.98,0,0,1-23,.1a.979.979,0,0,1,.289-.694.979.979,0,0,1,.7-.285H28.507a.98.98,0,1,1,0,1.96" transform="translate(23 0.875)"/></g><g transform="translate(16152.126 -22124.908)"><path class="d" d="M78.791,0H-63.559V18.1H78.791ZM75.853,2.94V15.158H-60.619V2.94Z" transform="translate(63.559)"/></g><g transform="translate(16270.639 -22174.648)"><path class="a" d="M11.644,0A37.8,37.8,0,0,0,3.29,1.635a.727.727,0,0,1-.457.912,36.931,36.931,0,0,0-7.381,3.43l-.376.1a.727.727,0,0,1-.616-.342,37.714,37.714,0,0,0-3.852,2.8H28.462A4.437,4.437,0,0,1,32.9,12.982v5.129a26.751,26.751,0,0,1,0,39.261V63.4a4.442,4.442,0,0,1-4.442,4.442h-36.4a.722.722,0,0,1-.1.174A37.623,37.623,0,0,0-.71,72.337.727.727,0,0,1-.044,71.9a.718.718,0,0,1,.28.056,37.249,37.249,0,0,0,7.8,2.327.727.727,0,0,1,.585.835,37.908,37.908,0,0,0,6.1.493c.8,0,1.6-.025,2.4-.076a.727.727,0,0,1,.661-.777,37.026,37.026,0,0,0,8-1.55A.739.739,0,0,1,26,73.179a.722.722,0,0,1,.69.5A37.6,37.6,0,0,0,34.412,70.1a.727.727,0,0,1,.229-.994,37.557,37.557,0,0,0,6.349-5.1.808.808,0,0,1,.573-.235.692.692,0,0,1,.485.191,38.053,38.053,0,0,0,5.2-6.809.727.727,0,0,1-.264-.988A36.962,36.962,0,0,0,50.22,48.7a.72.72,0,0,1,.69-.51.769.769,0,0,1,.211.029,38.02,38.02,0,0,0,1.413-8.392.727.727,0,0,1-.692-.75c.014-.446.023-.888.023-1.333a37.254,37.254,0,0,0-.624-6.8.727.727,0,0,1,.577-.837,37.721,37.721,0,0,0-2.636-8.1l-.309.069a.727.727,0,0,1-.654-.412,36.793,36.793,0,0,0-4.307-6.9.727.727,0,0,1,.114-1.014q-1.179-1.442-2.526-2.789a38.325,38.325,0,0,0-3.572-3.15.727.727,0,0,1-.578.287.715.715,0,0,1-.434-.145A36.906,36.906,0,0,0,29.9,3.84a.727.727,0,0,1-.37-.952A37.854,37.854,0,0,0,21.373.465a.727.727,0,0,1-.715.607l-.114-.009A37.5,37.5,0,0,0,14.717.6q-1.156,0-2.3.072c-.027,0-.052,0-.076,0a.677.677,0,0,1-.488-.193.677.677,0,0,1-.2-.484" transform="translate(9.393 0)"/></g><g transform="translate(16256.882 -22163.166)"><path class="a" d="M29.394,26.709a26.631,26.631,0,0,1-15.236,4.759h-.278v.4H27.9a1.5,1.5,0,0,0,1.5-1.5ZM-8.046,19.65H-19.864c.052.114.1.231.153.345a.727.727,0,0,1-.354.956,37.28,37.28,0,0,0,2.2,4h4.3a.983.983,0,0,1,.983.981.983.983,0,0,1-.983.981h-2.972q.467.642.963,1.268a.738.738,0,0,1,.457-.157.716.716,0,0,1,.558.262c.768.934,1.593,1.841,2.448,2.7.3.3.609.6.921.888H10.942v-.591A26.613,26.613,0,0,1-.789,26.911H-3.161a.98.98,0,0,1-.979-.895.98.98,0,0,1,.808-1.051A26.912,26.912,0,0,1-8.046,19.65M9-21.546H-12.53a.716.716,0,0,1-.193.618,37.539,37.539,0,0,0-4.945,6.465.72.72,0,0,1-.62.35l-.365-.1A37.42,37.42,0,0,0-20.5-10.58h10.43a.979.979,0,0,1,.695.286.979.979,0,0,1,.287.694.98.98,0,0,1-.288.694.98.98,0,0,1-.694.287H-21.3q-.41,1.1-.753,2.213a.727.727,0,0,1,.49.894,37.343,37.343,0,0,0-1.364,8.025.727.727,0,0,1-.727.683h-.036a38.01,38.01,0,0,0,.614,8.488.683.683,0,0,1,.15-.015.727.727,0,0,1,.7.582,36.943,36.943,0,0,0,1.211,4.459H-9.766A26.772,26.772,0,0,1,9-21.546m18.889,0H19.307A26.639,26.639,0,0,1,29.394-17.28v-2.766a1.5,1.5,0,0,0-1.5-1.5" transform="translate(23.717 21.546)"/></g><g transform="translate(16267.86 -22166.104)"><path class="e" d="M24.948,27.029a26.959,26.959,0,0,1-2.94,2.365v3.66a1.5,1.5,0,0,1-1.5,1.5H6.491v2.943H20.509a4.442,4.442,0,0,0,4.442-4.442ZM20.509-21.8H-17.348q-1.373,1.139-2.661,2.423c-.04.04-.081.081-.116.119a.72.72,0,0,1,.208.4H1.619a27.054,27.054,0,0,1,10.3,0h8.588a1.5,1.5,0,0,1,1.5,1.5v2.764a26.96,26.96,0,0,1,2.94,2.365v-5.129A4.442,4.442,0,0,0,20.506-21.8" transform="translate(20.125 21.8)"/></g><g transform="translate(16262.734 -22116.67)"><path class="e" d="M2.381,0h-4.3q.632.994,1.33,1.96H2.381a.98.98,0,1,0,0-1.96" transform="translate(1.921 0)"/></g><g transform="translate(16276.454 -22116.654)"><path class="e" d="M.45,0A.98.98,0,0,0,.62,1.946H2.992A26.872,26.872,0,0,1,.45,0" transform="translate(0.362)"/></g><g transform="translate(16259.3 -22152.197)"><path class="e" d="M6.215,0H-4.214q-.426.969-.8,1.96H6.215a.98.98,0,1,0,0-1.96" transform="translate(5.014 0)"/></g><g transform="translate(16259.591 -22124.908)"><path class="e" d="M17.682,8.064v.591H-4.445c.793.739,1.615,1.445,2.457,2.1a.722.722,0,0,1,.226.837H20.621V8.254a27.086,27.086,0,0,1-2.939-.191M-3.023-6.505H-14.264q.507,1.5,1.142,2.94H-1.3a26.689,26.689,0,0,1-1.72-2.94" transform="translate(14.264 6.505)"/></g><g transform="translate(16256.226 -22175.498)"><path class="f" d="M23.056,42.651A.727.727,0,0,1,23,41.2a37.187,37.187,0,0,0,8-1.55.727.727,0,0,1,.432,1.384,38.706,38.706,0,0,1-8.307,1.61Zm-9.937-.485-.132-.014a38.672,38.672,0,0,1-8.1-2.418A.727.727,0,0,1,5.446,38.4a37.17,37.17,0,0,0,7.8,2.327.727.727,0,0,1-.13,1.437m27.115-5.277a.727.727,0,0,1-.388-1.337,37.472,37.472,0,0,0,6.349-5.1.774.774,0,0,1,1.066-.04.674.674,0,0,1,.037.987l-.081.081a39.08,39.08,0,0,1-6.6,5.3ZM-3.4,34.741a.711.711,0,0,1-.448-.154,39.538,39.538,0,0,1-3.5-3.107c-.888-.888-1.744-1.832-2.546-2.8a.727.727,0,0,1,.1-1.022.731.731,0,0,1,1.022.1c.768.934,1.593,1.841,2.448,2.7a38.314,38.314,0,0,0,3.377,2.992.727.727,0,0,1,.23.8.727.727,0,0,1-.678.489M52.823,23.7l-.359-.094a.727.727,0,0,1-.271-.99,37.148,37.148,0,0,0,3.238-7.467.727.727,0,1,1,1.384.428,38.436,38.436,0,0,1-3.364,7.76.727.727,0,0,1-.629.363M-14.6,20.491a.727.727,0,0,1-.661-.428,38.54,38.54,0,0,1-2.607-8.049.722.722,0,0,1,.1-.545.722.722,0,0,1,.461-.31.713.713,0,0,1,.547.1.713.713,0,0,1,.308.464,37.081,37.081,0,0,0,2.511,7.745.727.727,0,0,1-.361.959ZM57.777,6.272h-.027a.727.727,0,0,1-.7-.75q.023-.669.025-1.333A37.433,37.433,0,0,0,56.455-2.6a.727.727,0,0,1,.212-.733.727.727,0,0,1,.751-.139.727.727,0,0,1,.461.608,38.738,38.738,0,0,1,.646,7.053q0,.689-.025,1.382a.727.727,0,0,1-.727.7M-17.873,2.667h-.04A.727.727,0,0,1-18.6,1.9,38.92,38.92,0,0,1-17.18-6.435a.721.721,0,0,1,.344-.437.721.721,0,0,1,.553-.063.722.722,0,0,1,.435.345.722.722,0,0,1,.062.552,37.482,37.482,0,0,0-1.364,8.025.727.727,0,0,1-.727.683m71.96-14.14a.727.727,0,0,1-.654-.412,36.92,36.92,0,0,0-4.309-6.9.727.727,0,0,1,.119-1.019.727.727,0,0,1,1.019.121,38.351,38.351,0,0,1,4.48,7.178.727.727,0,0,1-.341.969ZM-12.512-14.64l-.374-.1a.722.722,0,0,1-.33-.446.722.722,0,0,1,.084-.548,38.9,38.9,0,0,1,5.138-6.714.727.727,0,0,1,1.026-.025.727.727,0,0,1,.023,1.023,37.664,37.664,0,0,0-4.95,6.466.714.714,0,0,1-.618.35M42.559-25.457a.727.727,0,0,1-.434-.145,36.791,36.791,0,0,0-7.015-4.119.727.727,0,0,1-.365-.959.727.727,0,0,1,.956-.367,38.237,38.237,0,0,1,7.292,4.287.727.727,0,0,1,.145,1.014.727.727,0,0,1-.58.292M.283-27.47a.722.722,0,0,1-.618-.35.727.727,0,0,1,.242-.994,38.415,38.415,0,0,1,7.672-3.57.731.731,0,0,1,.918.457.727.727,0,0,1-.457.918A36.987,36.987,0,0,0,.659-27.576ZM25.869-32.49l-.116-.011a37.527,37.527,0,0,0-8.132-.383.68.68,0,0,1-.538-.164.68.68,0,0,1-.23-.513.727.727,0,0,1,.678-.77,38.737,38.737,0,0,1,8.448.4.721.721,0,0,1,.474.289.721.721,0,0,1,.129.54.727.727,0,0,1-.712.614" transform="translate(18.597 34.406)"/></g><g transform="translate(16312.934 -22156.535)"><path class="g" d="M0,0V39.261A26.682,26.682,0,0,0,8.576,19.631,26.686,26.686,0,0,0,0,0"/></g><g transform="translate(16268 -22163.166)"><path class="h" d="M13.029,26.812a1.069,1.069,0,0,1-.17.015H1.3A26.613,26.613,0,0,0,13.03,31.195ZM5.973,19.567H-5.957a26.912,26.912,0,0,0,4.715,5.315,1.069,1.069,0,0,1,.17-.015H12.859a1.069,1.069,0,0,1,.17.015V22.475a18.03,18.03,0,0,1-7.055-2.907m25.51-5.115a18.109,18.109,0,0,1-15.237,8.307h-.28v8.627h.28a26.631,26.631,0,0,0,15.237-4.759ZM21.4-21.629H11.1A26.772,26.772,0,0,0-7.675,16.626H2.662A18.127,18.127,0,0,1,3.969-8.7H1.542a.98.98,0,0,1-.98-.98.979.979,0,0,1,.98-.979H6.516A18.133,18.133,0,0,1,31.484-5.187V-17.363A26.639,26.639,0,0,0,21.4-21.629" transform="translate(10.508 21.629)"/></g><g transform="translate(16289.607 -22163.664)"><path class="i" d="M11.285,2.635V14.81a18.045,18.045,0,0,1,2.89,9.82,18.032,18.032,0,0,1-2.89,9.819V46.624a26.94,26.94,0,0,0,2.94-2.363V5a26.7,26.7,0,0,0-2.94-2.366M-3.951-2.13a26.728,26.728,0,0,0-5.147.5H1.2a26.725,26.725,0,0,0-5.149-.5" transform="translate(9.099 2.13)"/></g><g transform="translate(16277.264 -22116.67)"><path class="i" d="M7.8,0H-6.126A.86.86,0,0,0-6.3.015,26.849,26.849,0,0,0-3.755,1.96H7.8a1.068,1.068,0,0,0,.17-.014V.015A.86.86,0,0,0,7.8,0" transform="translate(6.3 0)"/></g><g transform="translate(16279.068 -22152.197)"><path class="i" d="M3.3,0H-1.676a.98.98,0,0,0-.694.285.98.98,0,0,0-.288.693.981.981,0,0,0,.288.694.981.981,0,0,0,.695.287H.747A18.194,18.194,0,0,1,3.3,0" transform="translate(2.659 0)"/></g><g transform="translate(16270.829 -22124.908)"><path class="i" d="M11.46,3.235v8.722a26.532,26.532,0,0,0,2.939.191V3.518a18.4,18.4,0,0,1-2.939-.282M1.088-2.61H-9.249A26.9,26.9,0,0,0-7.529.33H4.4A18.352,18.352,0,0,1,1.088-2.61" transform="translate(9.249 2.61)"/></g><g transform="translate(16276.63 -22155.031)"><path class="j" d="M8.249,18.3H1.2a17.994,17.994,0,0,0,7.055,2.907Zm3.218-33.062a18.045,18.045,0,0,0-9.731,2.831H8.078a.979.979,0,0,1,.694.286.979.979,0,0,1,.288.693.981.981,0,0,1-.287.695.981.981,0,0,1-.694.288H-.808A18.127,18.127,0,0,0-2.121,15.359H11.19v6.13h.28a18.112,18.112,0,0,0,15.236-8.3V-6.455a18.109,18.109,0,0,0-15.237-8.307" transform="translate(6.657 14.762)"/></g><g transform="translate(16309.992 -22146.723)"><path class="k" d="M0,0V19.64A18.038,18.038,0,0,0,2.89,9.821,18.04,18.04,0,0,0,0,0" transform="translate(0)"/></g><g transform="translate(16282.478 -22152.197)"><path class="k" d="M4.92,0H-1.425A18.044,18.044,0,0,0-3.969,1.96H4.92A.98.98,0,0,0,4.92,0" transform="translate(3.969 0)"/></g><g transform="translate(16281.166 -22124.908)"><path class="k" d="M7.368,0H-5.943A18.179,18.179,0,0,0-2.632,2.94H4.429V5.848a17.873,17.873,0,0,0,2.939.282Z" transform="translate(5.943)"/></g><g transform="translate(16283.748 -22145.369)"><path class="a" d="M2.691,9.292A4.866,4.866,0,0,1-2.171,4.43V-2.634A4.866,4.866,0,0,1,2.691-7.5H15.734a4.867,4.867,0,0,1,4.86,4.862V4.43a4.867,4.867,0,0,1-4.86,4.862Z" transform="translate(2.171 7.5)"/></g><g transform="translate(16282.956 -22146.162)"><path class="b" d="M10.352,0H-2.694A5.653,5.653,0,0,0-8.347,5.657v7.061a5.653,5.653,0,0,0,5.653,5.657H10.352A5.653,5.653,0,0,0,16,12.719V5.657A5.653,5.653,0,0,0,10.352,0m0,1.588a4.073,4.073,0,0,1,4.067,4.069v7.061a4.073,4.073,0,0,1-4.067,4.069H-2.694a4.075,4.075,0,0,1-4.069-4.069V5.657A4.075,4.075,0,0,1-2.694,1.588Z" transform="translate(8.347 0)"/></g><g transform="translate(16294.754 -22140.963)"><path class="b" d="M2.289,3.535A2.239,2.239,0,0,0,3.082,3a2.665,2.665,0,0,0,.506-.808,2.665,2.665,0,0,0,.179-.979,2.774,2.774,0,0,0-.179-1,2.4,2.4,0,0,0-.506-.8,2.536,2.536,0,0,0-.793-.551,2.819,2.819,0,0,0-1.026-.195H-.19V3.739H1.264a2.491,2.491,0,0,0,1.026-.2M1.264-2.852a4.333,4.333,0,0,1,1.631.311,4.394,4.394,0,0,1,1.321.862A4.038,4.038,0,0,1,5.1-.387a3.85,3.85,0,0,1,.323,1.593A4.014,4.014,0,0,1,5.1,2.8,4.193,4.193,0,0,1,4.216,4.09a3.968,3.968,0,0,1-1.322.858,4.031,4.031,0,0,1-1.631.317H-1.847V-2.852Z" transform="translate(1.847 2.852)"/></g><g transform="translate(16288.237 -22141.102)"><path class="b" d="M1.376,1.935A1.022,1.022,0,1,1,2.395.911h0A1.034,1.034,0,0,1,1.376,1.935m0-3.5A2.483,2.483,0,1,0,3.855.923h0A2.479,2.479,0,0,0,1.378-1.561Z" transform="translate(1.11 1.561)"/></g></g></svg>