<svg width="24" height="24" viewBox="0 0 24 24" fill="none" xmlns="http://www.w3.org/2000/svg">
<path fill-rule="evenodd" clip-rule="evenodd" d="M12 4V4C16.4187 4 20 7.58133 20 12V12C20 16.4187 16.4187 20 12 20V20C7.58133 20 4 16.4187 4 12V12C4 7.58133 7.58133 4 12 4Z" stroke="currentColor" stroke-width="1.5" stroke-linecap="round" stroke-linejoin="round" fill="none"/>
<path d="M12 12V8" stroke="currentColor" stroke-width="1.5" stroke-linecap="round" stroke-linejoin="round" fill="none"/>
<path d="M12 15.25C12 15.25 12 15.362 12 15.5C12 15.638 12 15.75 12 15.75C12 15.75 12 15.638 12 15.5C12 15.362 12 15.25 12 15.25" stroke="currentColor" stroke-width="1.5" stroke-linecap="round" stroke-linejoin="round" fill="none"/>
</svg>
