<svg width="12" height="12" viewBox="0 0 12 12" fill="none" xmlns="http://www.w3.org/2000/svg">
<circle cx="6" cy="6" r="6" fill="#1A1A1A"/>
<path d="M3.59672 9H6.24272C7.58372 9 8.74472 8.478 8.74472 7.074C8.74472 6.174 8.27672 5.796 7.77272 5.553C8.10572 5.337 8.51072 4.788 8.51072 4.176C8.51072 2.835 7.27772 2.475 6.13472 2.475H3.59672V9ZM4.88372 6.138H6.25172C7.05272 6.138 7.43072 6.462 7.43072 7.074C7.43072 7.677 7.06172 7.992 6.30572 7.992H4.88372V6.138ZM4.88372 3.483H6.21572C6.81872 3.483 7.18772 3.789 7.18772 4.302C7.18772 4.878 6.82772 5.166 6.21572 5.166H4.88372V3.483Z" fill="white"/>
</svg>
